<?xml version="1.0" encoding="utf-8"?><svg xmlns="http://www.w3.org/2000/svg" xmlns:xlink="http://www.w3.org/1999/xlink"><symbol viewBox="0 0 16 16" id="euro-icon" xmlns="http://www.w3.org/2000/svg"><path d="M8 0a8 8 0 100 16A8 8 0 008 0zm2.792 12.053c-.24.108-.49.2-.748.27-.974.27-1.949.28-2.92-.037-1.172-.378-1.949-1.178-2.413-2.298-.089-.217-.148-.444-.217-.671h-.919A.276.276 0 013.3 9.04v-.619c0-.154.125-.276.276-.276h.76V7.64h-.76a.276.276 0 01-.276-.276v-.62c0-.154.125-.276.276-.276h.968l.033-.095c.26-.827.708-1.534 1.396-2.068.547-.425 1.179-.658 1.857-.767.964-.155 1.9-.023 2.805.333.059.023.115.049.17.082.218.128.274.29.179.523-.102.244-.204.49-.316.731-.096.208-.227.273-.451.224-.307-.069-.606-.165-.912-.227-.646-.132-1.288-.138-1.916.109-.54.214-.87.625-1.093 1.139-.004.006-.004.013-.004.02h1.88c.155 0 .277.125.277.276v.619a.276.276 0 01-.277.276H6.025c-.004.165 0 .33 0 .504h2.15c.154 0 .276.125.276.277v.619a.276.276 0 01-.277.276H6.212c.237.678.623 1.202 1.347 1.429.58.181 1.162.171 1.748.05.303-.063.6-.155.902-.224.237-.053.366.01.464.227.112.243.217.49.316.74.092.224.033.405-.197.51z"/></symbol><symbol viewBox="0 0 18 18" id="facebook-icon" xmlns="http://www.w3.org/2000/svg"><path d="M15.363 0H2.637A2.64 2.64 0 000 2.636v12.727A2.64 2.64 0 002.637 18h5.308v-6.364h-2.11V8.472h2.11V6.328a3.168 3.168 0 013.164-3.164h3.2v3.164h-3.2v2.144h3.2l-.528 3.164H11.11V18h4.254A2.64 2.64 0 0018 15.363V2.636A2.64 2.64 0 0015.363 0z"/></symbol><symbol viewBox="0 0 18 12" id="google-icon" xmlns="http://www.w3.org/2000/svg"><path d="M5.836 2.11c1.219 0 2.321.625 2.953 1.487l1.498-1.509C9.39.924 7.667 0 5.836 0 2.63 0 0 2.595 0 5.8c0 3.207 2.63 5.802 5.836 5.802a5.793 5.793 0 005.58-4.22 5.624 5.624 0 00.22-1.581v-.528H6.364v2.11h2.795a3.67 3.67 0 01-3.322 2.11C3.8 9.492 2.109 7.835 2.109 5.8c0-2.036 1.691-3.692 3.727-3.692zm10.547 1.054h-2.11v1.582h-1.582v2.11h1.582v1.582h2.11V6.854H18V4.746h-1.617V3.164z"/></symbol><symbol viewBox="0 0 14 14" id="link-icon" xmlns="http://www.w3.org/2000/svg"><path d="M12.844.963a3.19 3.19 0 00-4.512 0L5.666 3.629c-1.289 1.289-1.17 3.342 0 4.511.196.196.412.356.641.487l.487-.487c.319-.319.207-.692.2-.961a1.54 1.54 0 01-.2-.167c-.6-.6-.627-1.628 0-2.255L9.46 2.09a1.597 1.597 0 012.256 0 1.597 1.597 0 010 2.256L9.953 6.11c.051.282.357.95.2 2.051.008-.007.017-.012.024-.02l2.667-2.666a3.19 3.19 0 000-4.511z"/><path d="M8.486 5.32a3.036 3.036 0 00-.642-.486l-.486.487c-.32.319-.207.692-.201.961.07.05.138.104.2.167.6.6.628 1.628 0 2.255l-2.872 2.873a1.597 1.597 0 01-2.256 0 1.597 1.597 0 010-2.255l1.97-1.97c-.052-.281-.358-.95-.2-2.051-.008.007-.017.012-.025.02L1.101 8.194a3.19 3.19 0 004.512 4.511l2.872-2.873c1.265-1.264 1.196-3.316 0-4.511z"/></symbol><symbol viewBox="0 0 18 18" id="medium-icon" xmlns="http://www.w3.org/2000/svg"><path fill-rule="evenodd" clip-rule="evenodd" d="M2.637 0h12.726A2.64 2.64 0 0118 2.636v12.727A2.64 2.64 0 0115.363 18H2.637A2.64 2.64 0 010 15.363V2.636A2.64 2.64 0 012.637 0zM15 4.205l-.957.94a.288.288 0 00-.107.274v6.911a.289.289 0 00.107.274l.935.94v.205h-4.706v-.206l.97-.963c.094-.096.094-.127.094-.274V6.722l-2.697 7.01h-.364l-3.136-7.01v4.698a.649.649 0 00.173.539l1.26 1.564v.206H3v-.203l1.26-1.567a.63.63 0 00.162-.54V5.99a.488.488 0 00-.152-.402L3.152 4.205V4H6.63l2.689 6.038L11.683 4H15v.205z"/></symbol><symbol viewBox="0 0 18 18" id="reddit-icon" xmlns="http://www.w3.org/2000/svg"><path fill-rule="evenodd" clip-rule="evenodd" d="M15.363 0H2.637A2.64 2.64 0 000 2.636v12.727A2.64 2.64 0 002.637 18h12.726A2.64 2.64 0 0018 15.363V2.636A2.64 2.64 0 0015.363 0zm-1.11 11.036c0-.133-.011-.265-.031-.394A1.32 1.32 0 0015 9.44a1.312 1.312 0 00-2.224-.943c-.897-.649-2.134-1.067-3.512-1.115l.598-2.815 1.954.416a.935.935 0 001.871-.045A.938.938 0 0012.75 4a.933.933 0 00-.838.524L9.73 4.059a.234.234 0 00-.278.18s-.655 3.123-.655 3.141c-1.403.036-2.664.456-3.575 1.113a1.313 1.313 0 10-1.444 2.145c-.02.13-.031.263-.031.398 0 2.02 2.352 3.658 5.253 3.658 2.902 0 5.254-1.637 5.254-3.658zm-4.13-.657a.94.94 0 01.938-.939.94.94 0 01.938.939.94.94 0 01-.938.938.94.94 0 01-.938-.938zm.76 2.134c-.404.403-1.268.547-1.884.547-.618 0-1.48-.144-1.884-.547a.242.242 0 00-.344 0 .242.242 0 000 .344c.64.64 1.868.69 2.228.69.36 0 1.586-.05 2.228-.69a.246.246 0 000-.344.242.242 0 00-.344 0zM6.933 9.44a.94.94 0 01.939.939.94.94 0 01-.939.938.94.94 0 01-.938-.938.94.94 0 01.938-.939z"/></symbol><symbol viewBox="0 0 14 16" id="slider-arrow" xmlns="http://www.w3.org/2000/svg"><path d="M7.908 16V3.327l4.808 4.599L14 6.697 7 0 0 6.697l1.284 1.229 4.808-4.6V16h1.816z"/></symbol><symbol viewBox="0 0 21 20" id="star-icon" xmlns="http://www.w3.org/2000/svg"><path d="M15.922 11.82a1.1 1.1 0 00-.319.97l.89 4.92a1.08 1.08 0 01-.45 1.08 1.1 1.1 0 01-1.17.08l-4.43-2.31a1.13 1.13 0 00-.5-.131h-.27a.812.812 0 00-.271.09l-4.43 2.321c-.219.11-.467.149-.71.11a1.112 1.112 0 01-.89-1.271l.89-4.92a1.119 1.119 0 00-.319-.979L.332 8.28a1.08 1.08 0 01-.269-1.13c.134-.396.476-.685.889-.75l4.97-.721c.378-.039.71-.269.88-.609L8.992.58c.052-.1.119-.192.2-.27l.09-.07a.671.671 0 01.161-.13l.109-.04.17-.07h.421c.376.039.707.264.88.6l2.22 4.47c.16.327.47.554.83.609l4.97.721c.42.06.77.35.91.75.13.401.017.841-.29 1.13l-3.74 3.54z"/></symbol><symbol viewBox="0 0 9 14" id="steps-icon" xmlns="http://www.w3.org/2000/svg"><path opacity=".77" d="M5.493 10.065c.673.236 1.266.386 2.12.654-.328 4.236-4.244 2.554-2.12-.654zm3.496-3.89c-.044-1.272-.263-2.94-2.007-2.68-.818.22-1.422 1.138-1.706 2.723-.157.871-.066 2.094.118 2.827.168.517.111.485.292.583.7.162 1.392.34 2.096.522.717-.518 1.305-3.264 1.207-3.976zm-5.383-.098c.184-.733.274-1.957.118-2.828C3.44 1.664 2.836.745 2.018.527.274.266.055 1.934.011 3.206c-.098.712.49 3.458 1.207 3.975a82.13 82.13 0 012.096-.521c.18-.098.124-.066.292-.583zM1.388 7.75c.327 4.235 4.243 2.553 2.119-.654-.673.236-1.266.386-2.12.654z"/></symbol><symbol viewBox="0 0 18 18" id="telegram-icon" xmlns="http://www.w3.org/2000/svg"><path fill-rule="evenodd" clip-rule="evenodd" d="M2.637 0h12.726A2.64 2.64 0 0118 2.637v12.726A2.64 2.64 0 0115.363 18H2.637A2.64 2.64 0 010 15.363V2.637A2.64 2.64 0 012.637 0zm.922 8.153L14.2 4.05c.494-.178.925.12.765.868l.001-.001-1.812 8.536c-.134.606-.494.753-.997.468l-2.76-2.034-1.33 1.282c-.148.147-.272.271-.557.271l.196-2.808 5.114-4.62c.223-.196-.05-.306-.343-.111L6.158 9.88l-2.724-.85c-.592-.188-.605-.591.125-.877z"/></symbol><symbol viewBox="0 0 18 18" id="twitter-icon" xmlns="http://www.w3.org/2000/svg"><path fill-rule="evenodd" clip-rule="evenodd" d="M2.637 0h12.726A2.64 2.64 0 0118 2.637v12.726A2.64 2.64 0 0115.363 18H2.637A2.64 2.64 0 010 15.363V2.637A2.64 2.64 0 012.637 0zm3.25 13.695a10.3 10.3 0 001.59.126c.6 0 1.18-.056 1.721-.169 1.101-.229 2.029-.677 2.756-1.332a4.903 4.903 0 001.316-1.95c.302-.808.429-1.74.376-2.771a1.12 1.12 0 01.21-.728c.593-.793.636-.859.671-.911v-.001l.04-.056.433-.591-.732.033a2.257 2.257 0 00-.092.006l.447-1.277-.685.236c-.184.063-.332.119-.462.168l-.004.002c-.218.082-.38.142-.598.2a2.658 2.658 0 00-1.633-.675 2.867 2.867 0 00-1.664.409c-.439.27-.77.648-.955 1.094a2.36 2.36 0 00-.143 1.254c-1.573-.218-2.9-.964-3.946-2.221l-.33-.398-.248.454a2.745 2.745 0 00-.293 1.848c.051.254.138.495.258.722l-.285-.11-.033.474c-.034.482.126 1.045.43 1.505.084.13.194.272.334.413l-.147-.023.179.544a2.644 2.644 0 001.359 1.574c-.634.27-1.146.44-1.987.717l-.77.254.711.388c.271.149 1.23.643 2.175.792z"/></symbol></svg>