<svg width="58" height="58" viewBox="0 0 58 58" fill="none" xmlns="http://www.w3.org/2000/svg">
<path d="M53.2929 18.1977C50.8699 18.1972 48.8431 16.3574 48.6089 13.9457C46.2855 15.1032 43.4638 14.1582 42.3061 11.8349C41.237 9.689 41.9544 7.08237 43.9709 5.78575C33.6418 2.77462 22.8274 8.70712 19.8163 19.0362C16.8051 29.3654 22.7376 40.1798 33.0668 43.1909C43.3959 46.202 54.2103 40.2695 57.2214 29.9404C58.4714 25.6524 58.21 21.065 56.4809 16.9467C55.6141 17.7511 54.4754 18.198 53.2929 18.1977Z" fill="#FFD782"/>
<path d="M17 52.9977C26.3888 52.9977 34 45.3866 34 35.9977C34 26.6089 26.3888 18.9977 17 18.9977C7.61116 18.9977 0 26.6089 0 35.9977C0 45.3866 7.61116 52.9977 17 52.9977Z" fill="#D3843D"/>
<path d="M29 17.9977C30.1046 17.9977 31 17.1023 31 15.9977C31 14.8932 30.1046 13.9977 29 13.9977C27.8954 13.9977 27 14.8932 27 15.9977C27 17.1023 27.8954 17.9977 29 17.9977Z" fill="#B5554E"/>
<path d="M47.2399 36.5998C49.0967 36.5998 50.6019 35.0946 50.6019 33.2378C50.6019 31.381 49.0967 29.8758 47.2399 29.8758C45.3832 29.8758 43.8779 31.381 43.8779 33.2378C43.8779 35.0946 45.3832 36.5998 47.2399 36.5998Z" fill="#B5554E"/>
<path d="M36.6643 23.3328L38.8705 21.1267C39.837 20.1602 41.4041 20.1602 42.3707 21.1267C43.3372 22.0932 43.3372 23.6603 42.3707 24.6269L40.1645 26.833C39.198 27.7996 37.6308 27.7996 36.6642 26.833C35.6978 25.8664 35.6978 24.2994 36.6643 23.3328Z" fill="#D3843D"/>
<path d="M6.74953 39.7486L4.74978 37.7489C3.78328 36.7824 3.78328 35.2152 4.74978 34.2486C5.71628 33.2821 7.2834 33.2821 8.25003 34.2486L10.2498 36.2484C11.2163 37.2149 11.2163 38.782 10.2498 39.7486C9.28315 40.7152 7.71603 40.7152 6.74953 39.7486Z" fill="#FFD782"/>
<path d="M14.0005 48.9977C15.1051 48.9977 16.0005 48.1022 16.0005 46.9977C16.0005 45.8931 15.1051 44.9977 14.0005 44.9977C12.8959 44.9977 12.0005 45.8931 12.0005 46.9977C12.0005 48.1022 12.8959 48.9977 14.0005 48.9977Z" fill="#B5554E"/>
<path d="M24 30.9977C25.1046 30.9977 26 30.1022 26 28.9977C26 27.8931 25.1046 26.9977 24 26.9977C22.8954 26.9977 22 27.8931 22 28.9977C22 30.1022 22.8954 30.9977 24 30.9977Z" fill="#B5554E"/>
<path d="M53.0004 26.9978C52.7352 26.9978 52.4809 26.8923 52.2934 26.7048L50.2934 24.7048C49.9098 24.3075 49.9207 23.6744 50.3179 23.2908C50.7054 22.9165 51.3198 22.9165 51.7074 23.2908L53.7074 25.2908C54.0979 25.6814 54.0978 26.3145 53.7072 26.705C53.5198 26.8924 53.2655 26.9978 53.0004 26.9978Z" fill="#D3843D"/>
<path d="M37.0002 40.9977C36.448 40.9976 36.0004 40.5498 36.0005 39.9975C36.0005 39.7323 36.1059 39.4782 36.2932 39.2907L38.2932 37.2907C38.6905 36.907 39.3235 36.918 39.7072 37.3152C40.0816 37.7027 40.0816 38.3172 39.7072 38.7047L37.7072 40.7047C37.5197 40.8922 37.2655 40.9977 37.0002 40.9977Z" fill="#B5554E"/>
<path d="M15.9998 36.9977C15.4475 36.9976 14.9999 36.5499 15 35.9975C15 35.7324 15.1054 35.4782 15.2928 35.2907L17.2928 33.2907C17.69 32.9071 18.3231 32.918 18.7068 33.3152C19.081 33.7027 19.081 34.3171 18.7068 34.7047L16.7068 36.7047C16.5193 36.8922 16.265 36.9977 15.9998 36.9977Z" fill="#B5554E"/>
<path d="M30 37.9977C29.7347 37.9977 29.4805 37.8922 29.293 37.7047L27.293 35.7047C26.9092 35.3074 26.9202 34.6744 27.3175 34.2907C27.705 33.9164 28.3194 33.9164 28.707 34.2907L30.707 36.2907C31.0975 36.6813 31.0974 37.3144 30.7067 37.7049C30.5194 37.8923 30.2651 37.9977 30 37.9977Z" fill="#B5554E"/>
<path d="M38.0002 15.9977C37.6656 15.9981 37.353 15.8311 37.1672 15.5527L35.1672 12.5527C34.8607 12.0932 34.9847 11.4722 35.4442 11.1657C35.9037 10.8592 36.5247 10.9832 36.8312 11.4427L38.8313 14.4427C39.1378 14.9021 39.0139 15.5231 38.5544 15.8296C38.3903 15.9391 38.1975 15.9976 38.0002 15.9977Z" fill="#D3843D"/>
<path d="M21 39.9977V44.9977H26L21 39.9977Z" fill="#FFD782"/>
<path d="M14.9995 24.9977H9.99951V29.9978L14.9995 24.9977Z" fill="#FFD782"/>
</svg>
