<?xml version="1.0" standalone="no"?>
<!DOCTYPE svg PUBLIC "-//W3C//DTD SVG 20010904//EN"
 "http://www.w3.org/TR/2001/REC-SVG-20010904/DTD/svg10.dtd">
<svg version="1.0" xmlns="http://www.w3.org/2000/svg"
 width="860.000000pt" height="860.000000pt" viewBox="0 0 860.000000 860.000000"
 preserveAspectRatio="xMidYMid meet">
<metadata>
Created by potrace 1.14, written by Peter Selinger 2001-2017
</metadata>
<g transform="translate(0.000000,860.000000) scale(0.100000,-0.100000)"
fill="#000000" stroke="none">
<path d="M3985 7719 c-55 -5 -167 -20 -250 -34 -966 -161 -1821 -728 -2347
-1556 -285 -449 -468 -986 -518 -1521 -14 -146 -14 -505 0 -645 93 -935 547
-1777 1275 -2362 744 -598 1713 -861 2655 -722 1276 190 2338 1069 2756 2284
86 251 149 543 174 802 13 140 13 509 0 644 -130 1352 -1032 2497 -2314 2937
-254 87 -557 151 -821 174 -140 12 -467 11 -610 -1z m673 -1333 c582 -86 1046
-379 1340 -847 64 -101 156 -301 196 -426 29 -90 76 -275 76 -298 0 -3 -301
-5 -669 -5 l-670 0 -31 58 c-90 168 -255 297 -445 347 -79 21 -260 21 -340 0
-300 -78 -481 -341 -514 -746 -29 -351 55 -647 233 -824 125 -125 262 -178
457 -177 128 0 205 18 319 74 107 52 224 166 285 275 l40 73 668 0 c393 0 667
-4 667 -9 0 -29 -73 -291 -105 -376 -165 -441 -464 -782 -865 -989 -298 -154
-591 -219 -985 -220 -401 -1 -673 58 -980 209 -482 239 -819 672 -955 1227
-57 235 -65 308 -65 623 0 255 3 306 23 420 78 449 248 798 526 1079 290 294
693 485 1126 535 52 6 111 13 130 15 74 9 440 -4 538 -18z"/>
</g>
</svg>
