<svg width="16" height="17" viewBox="0 0 16 17" fill="none" xmlns="http://www.w3.org/2000/svg">
<path d="M15.7606 9.93636C14.6921 14.2226 10.3508 16.8311 6.06404 15.7623C1.77909 14.6937 -0.829432 10.3522 0.239615 6.06626C1.30772 1.77955 5.64899 -0.829164 9.93441 0.239414C14.2208 1.30799 16.8292 5.65 15.7605 9.93644L15.7606 9.93636H15.7606Z" fill="#F7931A"/>
<path d="M11.5393 6.84701C11.6985 5.78227 10.8879 5.20992 9.77944 4.82812L10.139 3.38582L9.26107 3.16706L8.91102 4.57137C8.68021 4.51381 8.44317 4.45957 8.20759 4.40579L8.56018 2.99221L7.68276 2.77344L7.32297 4.21526C7.13197 4.17177 6.94437 4.12879 6.76236 4.08351L6.76338 4.07897L5.55265 3.77663L5.3191 4.71435C5.3191 4.71435 5.97047 4.86366 5.95675 4.87286C6.31227 4.96159 6.37657 5.19694 6.36589 5.38348L5.95628 7.02659C5.98076 7.03281 6.01251 7.04181 6.04755 7.05589C6.01826 7.04861 5.98709 7.04067 5.95475 7.03293L5.38061 9.33469C5.33716 9.44271 5.22688 9.60481 4.97831 9.54325C4.98711 9.556 4.34019 9.38401 4.34019 9.38401L3.9043 10.389L5.04683 10.6738C5.25938 10.7271 5.46767 10.7829 5.67279 10.8353L5.30948 12.2942L6.18643 12.5129L6.54622 11.0696C6.78579 11.1346 7.01829 11.1946 7.24589 11.2512L6.88731 12.6877L7.76532 12.9065L8.12859 11.4504C9.62571 11.7337 10.7514 11.6195 11.2253 10.2653C11.6071 9.17509 11.2062 8.54624 10.4186 8.13616C10.9923 8.00386 11.4244 7.62654 11.5396 6.84713L11.5393 6.84693L11.5393 6.84701ZM9.53334 9.65987C9.26201 10.7501 7.42637 10.1608 6.83123 10.013L7.31335 8.08027C7.90845 8.22884 9.81691 8.52285 9.53338 9.65987H9.53334ZM9.80486 6.83121C9.55735 7.8229 8.02953 7.31908 7.53392 7.19554L7.97103 5.44269C8.46664 5.56623 10.0627 5.79681 9.80494 6.83121H9.80486Z" fill="white"/>
</svg>
