<svg width="28" height="28" viewBox="0 0 28 28" fill="none" xmlns="http://www.w3.org/2000/svg">
<rect x="4.78784" y="4.78809" width="20.3636" height="20.3636" rx="9" fill="#FDFDFD"/>
<path fill-rule="evenodd" clip-rule="evenodd" d="M19.3411 27.091L8.64585 27.091C4.02476 27.091 0.909125 24.1181 0.909125 19.6816L0.909126 8.33172C0.909126 3.89391 4.02476 0.909179 8.64585 0.909179L19.3411 0.909179C23.9753 0.90918 27.0909 3.89391 27.0909 8.33172L27.0909 19.6816C27.0909 24.1181 23.9753 27.091 19.3411 27.091ZM16.9717 13.0183L8.65894 13.0183C8.10912 13.0183 7.67713 13.4634 7.67713 14.0001C7.67713 14.5499 8.10912 14.9819 8.65894 14.9819L16.9717 14.9819L13.7251 18.2154C13.5419 18.3986 13.4371 18.6605 13.4371 18.9092C13.4371 19.1566 13.5419 19.4066 13.7251 19.603C14.1048 19.9826 14.7331 19.9826 15.1128 19.603L20.048 14.6939C20.4146 14.3274 20.4146 13.6728 20.048 13.3063L15.1128 8.39717C14.7331 8.01754 14.1048 8.01754 13.7251 8.39717C13.3455 8.7899 13.3455 9.40517 13.7251 9.7979L16.9717 13.0183Z" fill="url(#paint0_linear)"/>
<defs>
<linearGradient id="paint0_linear" x1="12.0606" y1="0.90918" x2="14.4849" y2="27.091" gradientUnits="userSpaceOnUse">
<stop stop-color="#6766E2"/>
<stop offset="1" stop-color="#9794E9"/>
</linearGradient>
</defs>
</svg>
