<svg width="30" height="30" viewBox="0 0 30 30" fill="none" xmlns="http://www.w3.org/2000/svg">
<path fill-rule="evenodd" clip-rule="evenodd" d="M8.50499 0H21.51C26.595 0 30 3.57001 30 8.88001V21.1365C30 26.4315 26.595 30 21.51 30H8.50499C3.42 30 0 26.4315 0 21.1365V8.88001C0 3.57001 3.42 0 8.50499 0ZM19.515 19.5C20.025 18.9915 20.025 18.1665 19.515 17.6565L16.845 14.9865L19.515 12.315C20.025 11.8065 20.025 10.9665 19.515 10.4565C19.005 9.94501 18.18 9.94501 17.655 10.4565L15 13.125L12.33 10.4565C11.805 9.94501 10.98 9.94501 10.47 10.4565C9.95998 10.9665 9.95998 11.8065 10.47 12.315L13.14 14.9865L10.47 17.6415C9.95998 18.1665 9.95998 18.9915 10.47 19.5C10.725 19.755 11.07 19.8915 11.4 19.8915C11.745 19.8915 12.075 19.755 12.33 19.5L15 16.8465L17.67 19.5C17.925 19.7715 18.255 19.8915 18.585 19.8915C18.93 19.8915 19.26 19.755 19.515 19.5Z" fill="#04044C"/>
</svg>
