<svg width="16" height="16" viewBox="0 0 16 16" fill="none" xmlns="http://www.w3.org/2000/svg">
<path d="M12.7334 9.45476C12.5263 9.65554 12.4311 9.9459 12.4783 10.2307L13.1894 14.1661C13.2494 14.4997 13.1086 14.8373 12.8294 15.03C12.5559 15.23 12.1919 15.254 11.8935 15.094L8.35081 13.2463C8.22762 13.1807 8.09084 13.1455 7.95086 13.1415H7.73409C7.6589 13.1527 7.58531 13.1767 7.51812 13.2135L3.97458 15.07C3.7994 15.158 3.60103 15.1892 3.40666 15.158C2.93312 15.0684 2.61716 14.6173 2.69475 14.1414L3.40666 10.2059C3.45385 9.9187 3.35866 9.62674 3.15149 9.42277L0.263066 6.62313C0.0214978 6.38876 -0.0624912 6.03681 0.0478944 5.71925C0.15508 5.40249 0.428645 5.17132 0.759001 5.11933L4.73448 4.54261C5.03684 4.51141 5.30241 4.32743 5.43839 4.05547L7.19016 0.463939C7.23176 0.38395 7.28535 0.310359 7.35014 0.247968L7.42213 0.191975C7.45973 0.15038 7.50292 0.115985 7.55091 0.0879885L7.6381 0.0559927L7.77408 0H8.11084C8.4116 0.0311959 8.67637 0.211172 8.81475 0.479937L10.5897 4.05547C10.7177 4.31704 10.9665 4.49861 11.2536 4.54261L15.2291 5.11933C15.5651 5.16733 15.8458 5.39929 15.957 5.71925C16.0618 6.04001 15.9714 6.39196 15.725 6.62313L12.7334 9.45476Z" fill="#FDA361"/>
</svg>
