<svg width="129" height="46" viewBox="0 0 129 46" fill="none" xmlns="http://www.w3.org/2000/svg">
<rect opacity="0.1" width="46" height="46" rx="23" fill="url(#paint0_linear)"/>
<rect opacity="0.2" x="5" y="5" width="36" height="36" rx="18" fill="url(#paint1_linear)"/>
<rect x="8" y="8" width="30" height="30" rx="15" fill="url(#paint2_linear)"/>
<path d="M29.9176 20.6562C29.4318 16.625 26.3807 14.3068 22.3409 14.3068C17.7301 14.3068 14.2102 17.5625 14.2102 23.2727C14.2102 28.9659 17.6705 32.2386 22.3409 32.2386C26.8153 32.2386 29.517 29.2642 29.9176 26.0511L26.1847 26.0341C25.8352 27.9006 24.3693 28.9744 22.4006 28.9744C19.75 28.9744 17.9517 27.0057 17.9517 23.2727C17.9517 19.642 19.7244 17.571 22.4261 17.571C24.446 17.571 25.9034 18.7386 26.1847 20.6562H29.9176Z" fill="white"/>
<path d="M45.9652 32.2557C49.9368 32.2557 52.4084 29.5369 52.4084 25.5057C52.4084 21.4489 49.9368 18.7386 45.9652 18.7386C41.9936 18.7386 39.522 21.4489 39.522 25.5057C39.522 29.5369 41.9936 32.2557 45.9652 32.2557ZM45.9822 29.4432C44.1499 29.4432 43.2124 27.7642 43.2124 25.4801C43.2124 23.196 44.1499 21.5085 45.9822 21.5085C47.7805 21.5085 48.718 23.196 48.718 25.4801C48.718 27.7642 47.7805 29.4432 45.9822 29.4432ZM55.7692 32H59.3999V18.9091H55.7692V32ZM57.593 17.2216C58.6754 17.2216 59.5618 16.3949 59.5618 15.3807C59.5618 14.375 58.6754 13.5483 57.593 13.5483C56.5192 13.5483 55.6328 14.375 55.6328 15.3807C55.6328 16.3949 56.5192 17.2216 57.593 17.2216ZM66.9389 24.4318C66.9474 22.7443 67.9531 21.7557 69.419 21.7557C70.8764 21.7557 71.7543 22.7102 71.7457 24.3125V32H75.3764V23.6648C75.3764 20.6136 73.5866 18.7386 70.8594 18.7386C68.9162 18.7386 67.5099 19.6932 66.9219 21.2188H66.7685V18.9091H63.3082V32H66.9389V24.4318ZM94.7067 20.6562C94.2209 16.625 91.1697 14.3068 87.13 14.3068C82.5192 14.3068 78.9993 17.5625 78.9993 23.2727C78.9993 28.9659 82.4595 32.2386 87.13 32.2386C91.6044 32.2386 94.3061 29.2642 94.7067 26.0511L90.9737 26.0341C90.6243 27.9006 89.1584 28.9744 87.1896 28.9744C84.5391 28.9744 82.7408 27.0057 82.7408 23.2727C82.7408 19.642 84.5135 17.571 87.2152 17.571C89.2351 17.571 90.6925 18.7386 90.9737 20.6562H94.7067ZM106.68 26.4261C106.688 28.1818 105.487 29.1023 104.183 29.1023C102.81 29.1023 101.924 28.1392 101.915 26.5966V18.9091H98.2848V27.2443C98.2933 30.304 100.083 32.1705 102.717 32.1705C104.685 32.1705 106.1 31.1562 106.688 29.6222H106.825V32H110.31V18.9091H106.68V26.4261ZM114.283 32H117.862V29.9034H118.024C118.527 30.9943 119.626 32.2131 121.74 32.2131C124.723 32.2131 127.05 29.8523 127.05 25.4716C127.05 20.9716 124.621 18.7386 121.749 18.7386C119.558 18.7386 118.51 20.0426 118.024 21.108H117.913V14.5455H114.283V32ZM117.837 25.4545C117.837 23.1193 118.825 21.6278 120.589 21.6278C122.388 21.6278 123.342 23.1875 123.342 25.4545C123.342 27.7386 122.371 29.3239 120.589 29.3239C118.842 29.3239 117.837 27.7898 117.837 25.4545Z" fill="black"/>
<defs>
<linearGradient id="paint0_linear" x1="1.51195e-06" y1="26.4074" x2="46" y2="22.1481" gradientUnits="userSpaceOnUse">
<stop stop-color="#6766E2"/>
<stop offset="1" stop-color="#9794E9"/>
</linearGradient>
<linearGradient id="paint1_linear" x1="5" y1="25.6667" x2="41" y2="22.3333" gradientUnits="userSpaceOnUse">
<stop stop-color="#6766E2"/>
<stop offset="1" stop-color="#9794E9"/>
</linearGradient>
<linearGradient id="paint2_linear" x1="30.5" y1="35" x2="19" y2="12" gradientUnits="userSpaceOnUse">
<stop stop-color="#6766E2"/>
<stop offset="1" stop-color="#9794E9"/>
</linearGradient>
</defs>
</svg>
