<svg width="170" height="44" viewBox="0 0 170 44" fill="none" xmlns="http://www.w3.org/2000/svg">
<path d="M56.2982 12.7216C58.5118 12.7216 60.34 13.3037 61.7829 14.4678C63.2421 15.632 64.1849 17.206 64.6113 19.19H60.1596C59.8317 18.3866 59.3234 17.7553 58.6347 17.2962C57.9625 16.8371 57.1591 16.6076 56.2245 16.6076C54.9947 16.6076 54.0027 17.0585 53.2485 17.9603C52.4943 18.8621 52.1172 20.0672 52.1172 21.5757C52.1172 23.0842 52.4943 24.2893 53.2485 25.1911C54.0027 26.0765 54.9947 26.5192 56.2245 26.5192C57.1591 26.5192 57.9625 26.2897 58.6347 25.8306C59.3234 25.3715 59.8317 24.7484 60.1596 23.9614H64.6113C64.1849 25.929 63.2421 27.503 61.7829 28.6836C60.34 29.8477 58.5118 30.4298 56.2982 30.4298C54.6094 30.4298 53.1255 30.0609 51.8466 29.323C50.5677 28.5688 49.5757 27.5194 48.8707 26.1749C48.182 24.8304 47.8377 23.2973 47.8377 21.5757C47.8377 19.8541 48.182 18.321 48.8707 16.9765C49.5757 15.632 50.5677 14.5908 51.8466 13.853C53.1255 13.0987 54.6094 12.7216 56.2982 12.7216ZM76.1442 16.3862C77.5051 16.3862 78.7185 16.6732 79.7842 17.247C80.8664 17.8045 81.7108 18.6161 82.3175 19.6819C82.9406 20.7477 83.2521 21.9938 83.2521 23.4203C83.2521 24.8468 82.9406 26.0929 82.3175 27.1587C81.7108 28.2245 80.8664 29.0443 79.7842 29.6182C78.7185 30.1756 77.5051 30.4544 76.1442 30.4544C74.7833 30.4544 73.5618 30.1756 72.4796 29.6182C71.3975 29.0443 70.5448 28.2245 69.9218 27.1587C69.3151 26.0929 69.0118 24.8468 69.0118 23.4203C69.0118 21.9938 69.3151 20.7477 69.9218 19.6819C70.5448 18.6161 71.3975 17.8045 72.4796 17.247C73.5618 16.6732 74.7833 16.3862 76.1442 16.3862ZM76.1442 20.0262C75.3408 20.0262 74.6603 20.3214 74.1029 20.9116C73.5618 21.4855 73.2912 22.3217 73.2912 23.4203C73.2912 24.5189 73.5618 25.3551 74.1029 25.929C74.6603 26.5028 75.3408 26.7898 76.1442 26.7898C76.9477 26.7898 77.6199 26.5028 78.161 25.929C78.7021 25.3551 78.9726 24.5189 78.9726 23.4203C78.9726 22.3217 78.7021 21.4855 78.161 20.9116C77.6199 20.3214 76.9477 20.0262 76.1442 20.0262ZM87.7961 12.697C87.7961 12.0576 88.0257 11.5329 88.4848 11.123C88.9439 10.6967 89.5506 10.4835 90.3048 10.4835C91.059 10.4835 91.6657 10.6967 92.1248 11.123C92.5839 11.5329 92.8135 12.0576 92.8135 12.697C92.8135 13.3201 92.5839 13.8448 92.1248 14.2711C91.6657 14.681 91.059 14.8859 90.3048 14.8859C89.5506 14.8859 88.9439 14.681 88.4848 14.2711C88.0257 13.8448 87.7961 13.3201 87.7961 12.697ZM92.3954 16.5584V30.2822H88.1897V16.5584H92.3954ZM106.762 16.4108C108.336 16.4108 109.582 16.9355 110.501 17.9849C111.435 19.0343 111.903 20.4771 111.903 22.3135V30.2822H107.697V22.8054C107.697 21.8872 107.451 21.174 106.959 20.6657C106.484 20.141 105.844 19.8787 105.041 19.8787C104.188 19.8787 103.508 20.1492 102.999 20.6903C102.507 21.2314 102.261 22.002 102.261 23.0022V30.2822H98.0558V16.5584H102.261V19.067C102.655 18.2472 103.237 17.5996 104.008 17.1241C104.795 16.6486 105.713 16.4108 106.762 16.4108ZM123.631 16.3862C125.402 16.3862 126.886 16.8781 128.083 17.8619C129.28 18.8293 130.034 20.1656 130.345 21.8708H125.894C125.763 21.2806 125.492 20.8215 125.082 20.4935C124.672 20.1656 124.156 20.0016 123.533 20.0016C122.795 20.0016 122.188 20.2968 121.713 20.8871C121.237 21.4609 120.999 22.3053 120.999 23.4203C120.999 24.5353 121.237 25.3879 121.713 25.9782C122.188 26.552 122.795 26.839 123.533 26.839C124.156 26.839 124.672 26.675 125.082 26.3471C125.492 26.0191 125.763 25.56 125.894 24.9698H130.345C130.034 26.675 129.28 28.0195 128.083 29.0033C126.886 29.9707 125.402 30.4544 123.631 30.4544C122.286 30.4544 121.09 30.1756 120.04 29.6182C119.007 29.0443 118.196 28.2245 117.605 27.1587C117.015 26.0929 116.72 24.8468 116.72 23.4203C116.72 21.9774 117.007 20.7313 117.581 19.6819C118.171 18.6161 118.991 17.8045 120.04 17.247C121.09 16.6732 122.286 16.3862 123.631 16.3862ZM148.947 16.5584V30.2822H144.717V27.7982C144.324 28.6016 143.733 29.2411 142.946 29.7165C142.176 30.192 141.274 30.4298 140.241 30.4298C138.667 30.4298 137.412 29.9051 136.478 28.8557C135.56 27.8064 135.101 26.3635 135.101 24.5271V16.5584H139.282V24.0106C139.282 24.9452 139.519 25.6748 139.995 26.1995C140.487 26.7078 141.143 26.9619 141.962 26.9619C142.815 26.9619 143.487 26.6914 143.979 26.1503C144.471 25.6092 144.717 24.8386 144.717 23.8384V16.5584H148.947ZM163.162 16.3862C164.293 16.3862 165.301 16.6732 166.187 17.247C167.088 17.8045 167.794 18.6161 168.302 19.6819C168.827 20.7313 169.089 21.9774 169.089 23.4203C169.089 24.8468 168.827 26.0929 168.302 27.1587C167.794 28.2245 167.088 29.0443 166.187 29.6182C165.301 30.1756 164.293 30.4544 163.162 30.4544C162.112 30.4544 161.21 30.2166 160.456 29.7411C159.702 29.2656 159.153 28.618 158.808 27.7982V30.2822H154.603V12.0822H158.808V19.0425C159.153 18.2226 159.702 17.575 160.456 17.0995C161.21 16.624 162.112 16.3862 163.162 16.3862ZM161.809 20.0754C160.923 20.0754 160.194 20.3788 159.62 20.9854C159.062 21.5757 158.784 22.3873 158.784 23.4203C158.784 24.4369 159.062 25.2485 159.62 25.8552C160.194 26.4619 160.923 26.7652 161.809 26.7652C162.711 26.7652 163.432 26.47 163.973 25.8798C164.531 25.2895 164.809 24.4697 164.809 23.4203C164.809 22.3709 164.531 21.5511 163.973 20.9608C163.432 20.3706 162.711 20.0754 161.809 20.0754Z" fill="#6766E2"/>
<circle opacity="0.3" cx="19.9291" cy="21.7043" r="19.9291" fill="#6766E2"/>
<circle cx="19.9288" cy="21.704" r="17.3471" fill="#6766E2"/>
<g filter="url(#filter0_ddddiiiiii)">
<path d="M19.9711 11.4258C21.736 11.4258 23.3091 11.7615 24.6903 12.433C26.0906 13.0852 27.2225 14.0156 28.0857 15.2241C28.9681 16.4327 29.5532 17.8427 29.841 19.4541H23.1076C22.8007 18.7827 22.3595 18.2647 21.784 17.9002C21.2277 17.5166 20.585 17.3247 19.856 17.3247C18.7818 17.3247 17.9281 17.7276 17.2951 18.5333C16.6812 19.339 16.3743 20.4228 16.3743 21.7849C16.3743 23.1469 16.6812 24.2307 17.2951 25.0364C17.9281 25.8421 18.7818 26.245 19.856 26.245C20.585 26.245 21.2277 26.0627 21.784 25.6983C22.3595 25.3146 22.8007 24.7871 23.1076 24.1156H29.841C29.5532 25.727 28.9681 27.137 28.0857 28.3456C27.2225 29.5541 26.0906 30.4941 24.6903 31.1655C23.3091 31.8178 21.736 32.1439 19.9711 32.1439C17.9185 32.1439 16.1345 31.7122 14.619 30.849C13.1035 29.9666 11.9333 28.7388 11.1084 27.1658C10.3027 25.5928 9.89987 23.7991 9.89987 21.7849C9.89987 19.7706 10.3027 17.977 11.1084 16.4039C11.9333 14.8309 13.1035 13.6127 14.619 12.7495C16.1345 11.867 17.9185 11.4258 19.9711 11.4258Z" fill="url(#paint0_linear)"/>
</g>
<defs>
<filter id="filter0_ddddiiiiii" x="2.82504" y="4.35092" width="33.1735" height="33.9504" filterUnits="userSpaceOnUse" color-interpolation-filters="sRGB">
<feFlood flood-opacity="0" result="BackgroundImageFix"/>
<feColorMatrix in="SourceAlpha" type="matrix" values="0 0 0 0 0 0 0 0 0 0 0 0 0 0 0 0 0 0 127 0"/>
<feOffset dx="0.832337" dy="0.832337"/>
<feGaussianBlur stdDeviation="2.66259"/>
<feColorMatrix type="matrix" values="0 0 0 0 0.243373 0 0 0 0 0.239288 0 0 0 0 0.745833 0 0 0 1 0"/>
<feBlend mode="normal" in2="BackgroundImageFix" result="effect1_dropShadow"/>
<feColorMatrix in="SourceAlpha" type="matrix" values="0 0 0 0 0 0 0 0 0 0 0 0 0 0 0 0 0 0 127 0"/>
<feOffset dx="-0.832337" dy="-0.832337"/>
<feGaussianBlur stdDeviation="3.12126"/>
<feColorMatrix type="matrix" values="0 0 0 0 0.966667 0 0 0 0 0.971014 0 0 0 0 1 0 0 0 0.2 0"/>
<feBlend mode="normal" in2="effect1_dropShadow" result="effect2_dropShadow"/>
<feColorMatrix in="SourceAlpha" type="matrix" values="0 0 0 0 0 0 0 0 0 0 0 0 0 0 0 0 0 0 127 0"/>
<feOffset dx="0.416168" dy="0.416168"/>
<feGaussianBlur stdDeviation="0.806847"/>
<feColorMatrix type="matrix" values="0 0 0 0 0.403922 0 0 0 0 0.4 0 0 0 0 0.886275 0 0 0 1 0"/>
<feBlend mode="normal" in2="effect2_dropShadow" result="effect3_dropShadow"/>
<feColorMatrix in="SourceAlpha" type="matrix" values="0 0 0 0 0 0 0 0 0 0 0 0 0 0 0 0 0 0 127 0"/>
<feOffset dx="-0.416168" dy="-0.832337"/>
<feGaussianBlur stdDeviation="1.0489"/>
<feColorMatrix type="matrix" values="0 0 0 0 0.753995 0 0 0 0 0.752014 0 0 0 0 0.991667 0 0 0 0.62 0"/>
<feBlend mode="normal" in2="effect3_dropShadow" result="effect4_dropShadow"/>
<feBlend mode="normal" in="SourceGraphic" in2="effect4_dropShadow" result="shape"/>
<feColorMatrix in="SourceAlpha" type="matrix" values="0 0 0 0 0 0 0 0 0 0 0 0 0 0 0 0 0 0 127 0" result="hardAlpha"/>
<feOffset dx="0.416168" dy="0.416168"/>
<feGaussianBlur stdDeviation="1.04042"/>
<feComposite in2="hardAlpha" operator="arithmetic" k2="-1" k3="1"/>
<feColorMatrix type="matrix" values="0 0 0 0 1 0 0 0 0 1 0 0 0 0 1 0 0 0 0.6 0"/>
<feBlend mode="normal" in2="shape" result="effect5_innerShadow"/>
<feColorMatrix in="SourceAlpha" type="matrix" values="0 0 0 0 0 0 0 0 0 0 0 0 0 0 0 0 0 0 127 0" result="hardAlpha"/>
<feOffset dx="0.416168" dy="0.416168"/>
<feGaussianBlur stdDeviation="5.2021"/>
<feComposite in2="hardAlpha" operator="arithmetic" k2="-1" k3="1"/>
<feColorMatrix type="matrix" values="0 0 0 0 1 0 0 0 0 1 0 0 0 0 1 0 0 0 0.4 0"/>
<feBlend mode="normal" in2="effect5_innerShadow" result="effect6_innerShadow"/>
<feColorMatrix in="SourceAlpha" type="matrix" values="0 0 0 0 0 0 0 0 0 0 0 0 0 0 0 0 0 0 127 0" result="hardAlpha"/>
<feOffset dx="-0.832337" dy="-0.832337"/>
<feGaussianBlur stdDeviation="1.04042"/>
<feComposite in2="hardAlpha" operator="arithmetic" k2="-1" k3="1"/>
<feColorMatrix type="matrix" values="0 0 0 0 1 0 0 0 0 1 0 0 0 0 1 0 0 0 0.02 0"/>
<feBlend mode="normal" in2="effect6_innerShadow" result="effect7_innerShadow"/>
<feColorMatrix in="SourceAlpha" type="matrix" values="0 0 0 0 0 0 0 0 0 0 0 0 0 0 0 0 0 0 127 0" result="hardAlpha"/>
<feOffset dx="0.416168" dy="0.416168"/>
<feGaussianBlur stdDeviation="1.04042"/>
<feComposite in2="hardAlpha" operator="arithmetic" k2="-1" k3="1"/>
<feColorMatrix type="matrix" values="0 0 0 0 1 0 0 0 0 1 0 0 0 0 1 0 0 0 0.6 0"/>
<feBlend mode="normal" in2="effect7_innerShadow" result="effect8_innerShadow"/>
<feColorMatrix in="SourceAlpha" type="matrix" values="0 0 0 0 0 0 0 0 0 0 0 0 0 0 0 0 0 0 127 0" result="hardAlpha"/>
<feOffset dx="0.416168" dy="0.416168"/>
<feGaussianBlur stdDeviation="5.2021"/>
<feComposite in2="hardAlpha" operator="arithmetic" k2="-1" k3="1"/>
<feColorMatrix type="matrix" values="0 0 0 0 1 0 0 0 0 1 0 0 0 0 1 0 0 0 0.4 0"/>
<feBlend mode="normal" in2="effect8_innerShadow" result="effect9_innerShadow"/>
<feColorMatrix in="SourceAlpha" type="matrix" values="0 0 0 0 0 0 0 0 0 0 0 0 0 0 0 0 0 0 127 0" result="hardAlpha"/>
<feOffset dx="-0.416168" dy="0.416168"/>
<feGaussianBlur stdDeviation="0.806847"/>
<feComposite in2="hardAlpha" operator="arithmetic" k2="-1" k3="1"/>
<feColorMatrix type="matrix" values="0 0 0 0 1 0 0 0 0 1 0 0 0 0 1 0 0 0 0.02 0"/>
<feBlend mode="normal" in2="effect9_innerShadow" result="effect10_innerShadow"/>
</filter>
<linearGradient id="paint0_linear" x1="13.4355" y1="13.531" x2="23.9456" y2="32.0306" gradientUnits="userSpaceOnUse">
<stop stop-color="white"/>
<stop offset="1" stop-color="white" stop-opacity="0"/>
</linearGradient>
</defs>
</svg>
