<svg width="15" height="15" viewBox="0 0 15 15" fill="none" xmlns="http://www.w3.org/2000/svg">
<path d="M7.5 15C11.6421 15 15 11.6421 15 7.5C15 3.35786 11.6421 0 7.5 0C3.35786 0 0 3.35786 0 7.5C0 11.6421 3.35786 15 7.5 15Z" fill="url(#paint0_linear)"/>
<path d="M10.7823 10.4888L8.24617 4.35739C8.10313 4.04038 7.8905 3.88574 7.61022 3.88574H7.38599C7.10571 3.88574 6.89308 4.04038 6.75004 4.35739L5.6463 7.02878H4.81125C4.56189 7.03072 4.35893 7.23175 4.35699 7.48304V7.48883C4.35893 7.73819 4.56189 7.94115 4.81125 7.94309H5.2597L4.20622 10.4888C4.18689 10.5449 4.17529 10.6029 4.17529 10.6628C4.17529 10.8058 4.21975 10.918 4.299 11.0049C4.37826 11.0919 4.4923 11.1345 4.63534 11.1345C4.73006 11.1325 4.82091 11.1035 4.8963 11.0475C4.97748 10.9914 5.03354 10.9102 5.078 10.8174L6.23779 7.94115H7.04192C7.29127 7.93922 7.49424 7.73819 7.49617 7.4869V7.4753C7.49424 7.22595 7.29127 7.02298 7.04192 7.02105H6.61279L7.4981 4.81551L9.91047 10.8155C9.95493 10.9083 10.011 10.9895 10.0922 11.0455C10.1676 11.1016 10.2603 11.1306 10.3531 11.1325C10.4962 11.1325 10.6083 11.09 10.6895 11.003C10.7707 10.916 10.8132 10.8039 10.8132 10.6609C10.8151 10.6029 10.8054 10.543 10.7823 10.4888Z" fill="white"/>
<defs>
<linearGradient id="paint0_linear" x1="13.0919" y1="2.79484" x2="1.93189" y2="12.1848" gradientUnits="userSpaceOnUse">
<stop stop-color="#B6509E"/>
<stop offset="1" stop-color="#2EBAC6"/>
</linearGradient>
</defs>
</svg>
