<svg width="17" height="16" viewBox="0 0 17 16" fill="none" xmlns="http://www.w3.org/2000/svg">
<path d="M4.45226 7.44677C4.41763 8.0485 4.88083 8.56366 5.48256 8.59829C5.50421 8.59829 5.52585 8.59829 5.5475 8.59829C6.15355 8.59829 6.64273 8.10911 6.6384 7.50305C6.6384 6.89699 6.14923 6.40781 5.54317 6.41214C4.96308 6.41214 4.48256 6.86668 4.45226 7.44677Z" fill="#0033AD"/>
<path d="M0.373634 7.16484C0.178829 7.15185 0.00999768 7.30337 0.00133967 7.49817C-0.00731834 7.69297 0.139868 7.8618 0.334673 7.87046C0.529478 7.88344 0.69398 7.73193 0.706967 7.53713C0.719954 7.34233 0.568439 7.17783 0.373634 7.16484Z" fill="#0033AD"/>
<path d="M4.38211 1.09997C4.55527 1.01339 4.62454 0.796942 4.53796 0.623782C4.45138 0.450622 4.23493 0.381358 4.06177 0.467938C3.88861 0.554518 3.81935 0.766639 3.90593 0.939799C3.99251 1.11729 4.20462 1.19088 4.38211 1.09997C4.37778 1.09997 4.38211 1.09997 4.38211 1.09997Z" fill="#0033AD"/>
<path d="M5.49037 3.03553C5.75877 2.90133 5.867 2.57233 5.7328 2.30393C5.5986 2.03553 5.26959 1.9273 5.00119 2.0615C4.73279 2.1957 4.62457 2.52471 4.75877 2.79311C4.89297 3.0615 5.22197 3.16973 5.49037 3.03553Z" fill="#0033AD"/>
<path d="M1.7587 4.36405C1.96649 4.49825 2.24354 4.44197 2.38207 4.23418C2.51627 4.02639 2.46 3.74933 2.2522 3.6108C2.04441 3.4766 1.76735 3.53288 1.62882 3.74067C1.4903 3.94847 1.5509 4.22985 1.7587 4.36405Z" fill="#0033AD"/>
<path d="M2.42067 6.97065C2.11764 6.95333 1.86223 7.18277 1.84491 7.4858C1.8276 7.78883 2.05703 8.04425 2.36006 8.06156C2.66309 8.07888 2.91851 7.84944 2.93582 7.54641C2.95314 7.2477 2.7237 6.98796 2.42067 6.97065Z" fill="#0033AD"/>
<path d="M1.8193 10.6373C1.59852 10.7498 1.50761 11.0182 1.62016 11.2433C1.73272 11.4641 2.00112 11.555 2.22622 11.4425C2.447 11.3299 2.53791 11.0615 2.42536 10.8364C2.3128 10.6156 2.04008 10.5247 1.8193 10.6373Z" fill="#0033AD"/>
<path d="M3.93987 5.84025C4.23857 6.03506 4.63684 5.95281 4.82732 5.6541C5.02212 5.3554 4.93987 4.95714 4.64117 4.76666C4.34247 4.57186 3.9442 4.65411 3.75372 4.95281C3.55892 5.24718 3.64117 5.64545 3.93987 5.84025Z" fill="#0033AD"/>
<path d="M10.6724 2.99191C10.9235 3.15641 11.2655 3.08715 11.43 2.83606C11.5945 2.58498 11.5252 2.24299 11.2741 2.07849C11.023 1.91398 10.6811 1.98325 10.5166 2.23433C10.3477 2.48974 10.417 2.8274 10.6724 2.99191Z" fill="#0033AD"/>
<path d="M11.7896 1.06546C11.9541 1.17369 12.1706 1.12607 12.2788 0.961565C12.387 0.797063 12.3394 0.580612 12.1749 0.472387C12.0104 0.364162 11.794 0.411781 11.6857 0.571954C11.5818 0.736457 11.6295 0.957236 11.7896 1.06546Z" fill="#0033AD"/>
<path d="M10.7544 6.40319C10.1527 6.36856 9.6332 6.83176 9.6029 7.43349C9.56826 8.03522 10.0315 8.5547 10.6332 8.585C10.6548 8.585 10.6765 8.585 10.6938 8.585C11.2955 8.585 11.7847 8.09583 11.7847 7.48977C11.789 6.91401 11.3345 6.43349 10.7544 6.40319Z" fill="#0033AD"/>
<path d="M5.85055 5.76258C6.03669 6.13054 6.41332 6.36431 6.8289 6.36431C7.43063 6.36431 7.91981 5.87513 7.91981 5.26908C7.91981 5.10025 7.88085 4.93142 7.80293 4.77557C7.5302 4.23445 6.87219 4.018 6.33539 4.29073C5.79427 4.56778 5.57782 5.22579 5.85055 5.76258Z" fill="#0033AD"/>
<path d="M14.4166 4.36383C14.6374 4.25128 14.724 3.97855 14.6114 3.75777C14.4989 3.53699 14.2262 3.45041 14.0054 3.56296C13.7846 3.67552 13.698 3.94392 13.8062 4.1647C13.9231 4.38548 14.1915 4.47639 14.4166 4.36383Z" fill="#0033AD"/>
<path d="M11.6464 4.71036C11.3304 4.87054 11.2005 5.25581 11.3607 5.57183C11.5209 5.88785 11.9062 6.01772 12.2222 5.85754C12.5382 5.69737 12.6681 5.31209 12.5079 4.99608C12.3477 4.68006 11.9624 4.55452 11.6464 4.71036Z" fill="#0033AD"/>
<path d="M8.07453 0.901073C8.32128 0.91406 8.53341 0.723584 8.55072 0.476831C8.56804 0.230077 8.37323 0.0179561 8.12648 0.000640121C7.87972 -0.0123469 7.6676 0.1738 7.65028 0.420554C7.6373 0.671636 7.82778 0.883757 8.07453 0.901073Z" fill="#0033AD"/>
<path d="M8.07096 3.7279C8.42594 3.74955 8.72896 3.47682 8.74628 3.12184C8.76792 2.76686 8.4952 2.46383 8.14022 2.44652C7.78525 2.42487 7.48222 2.6976 7.4649 3.05258C7.44759 3.40756 7.71598 3.71059 8.07096 3.7279Z" fill="#0033AD"/>
<path d="M4.58984 10.2911C4.90586 10.1309 5.03573 9.74562 4.87556 9.42961C4.71538 9.1136 4.3301 8.98373 4.01409 9.1439C3.69807 9.30407 3.5682 9.68935 3.72838 10.0054C3.88855 10.3214 4.27383 10.4512 4.58984 10.2911Z" fill="#0033AD"/>
<path d="M8.48659 4.66733C8.15759 5.17383 8.29612 5.84915 8.80261 6.17815C9.30911 6.50716 9.98443 6.36863 10.3134 5.86214C10.6424 5.35564 10.5039 4.68032 9.99742 4.35132C9.81993 4.23443 9.61214 4.17383 9.40002 4.17383C9.03205 4.17383 8.69006 4.35998 8.48659 4.66733Z" fill="#0033AD"/>
<path d="M10.3869 9.23847C10.1142 8.69734 9.45617 8.48089 8.91938 8.75362C8.37825 9.02635 8.1618 9.68436 8.43453 10.2212C8.70726 10.7623 9.36526 10.9787 9.90206 10.706C10.4389 10.4376 10.6596 9.78826 10.3912 9.24713C10.3912 9.2428 10.3912 9.2428 10.3869 9.23847Z" fill="#0033AD"/>
<path d="M12.2962 9.16119C11.9975 8.96639 11.5992 9.04864 11.4088 9.34734C11.2139 9.64604 11.2962 10.0443 11.5949 10.2348C11.8936 10.4296 12.2919 10.3474 12.4824 10.0486C12.6772 9.75427 12.5949 9.356 12.2962 9.16119Z" fill="#0033AD"/>
<path d="M14.3907 7.52003C14.408 7.217 14.1785 6.96159 13.8755 6.94428C13.5725 6.92696 13.3171 7.1564 13.2997 7.45942C13.2824 7.76245 13.5119 8.01786 13.8149 8.03517C14.1136 8.05249 14.3733 7.81873 14.3907 7.52003Z" fill="#0033AD"/>
<path d="M15.9017 7.13066C15.7069 7.11767 15.5381 7.26919 15.5294 7.464C15.5208 7.6588 15.6679 7.82763 15.8627 7.83629C16.0575 7.84928 16.222 7.69776 16.235 7.50296C16.2437 7.30815 16.0965 7.14365 15.9017 7.13066Z" fill="#0033AD"/>
<path d="M14.4771 10.6372C14.2693 10.503 13.9923 10.5592 13.8537 10.767C13.7195 10.9748 13.7758 11.2519 13.9836 11.3904C14.1914 11.5246 14.4685 11.4684 14.607 11.2606C14.7455 11.0528 14.6849 10.7714 14.4771 10.6372Z" fill="#0033AD"/>
<path d="M4.44301 13.9353C4.27851 13.8271 4.06206 13.8747 3.95383 14.0348C3.84561 14.1993 3.89323 14.4158 4.0534 14.524C4.2179 14.6322 4.43435 14.5846 4.54258 14.4245C4.65513 14.2643 4.60751 14.0435 4.44301 13.9353Z" fill="#0033AD"/>
<path d="M11.854 13.9014C11.6808 13.988 11.6116 14.2044 11.6982 14.3776C11.7847 14.5507 12.0012 14.62 12.1744 14.5334C12.3475 14.4468 12.4168 14.2347 12.3302 14.0615C12.2436 13.8841 12.0315 13.8105 11.854 13.9014C11.8583 13.9014 11.854 13.9014 11.854 13.9014Z" fill="#0033AD"/>
<path d="M7.75033 10.334C8.07934 9.82753 7.94081 9.1522 7.43432 8.81887C6.92782 8.48986 6.2525 8.62839 5.91917 9.13488C5.58583 9.64138 5.72869 10.3167 6.23518 10.65C6.41267 10.7669 6.62047 10.8275 6.83259 10.8275C7.20488 10.8319 7.54687 10.6457 7.75033 10.334Z" fill="#0033AD"/>
<path d="M5.56409 12.0091C5.31301 11.8446 4.97101 11.9139 4.80651 12.165C4.64201 12.4161 4.71127 12.7581 4.96236 12.9226C5.21344 13.0871 5.55543 13.0178 5.71993 12.7667C5.88876 12.5156 5.8195 12.1737 5.56409 12.0091Z" fill="#0033AD"/>
<path d="M8.11373 14.1002C7.86698 14.0872 7.65486 14.2777 7.63755 14.5245C7.62023 14.7712 7.81503 14.9833 8.06178 15.0007C8.30853 15.0136 8.52065 14.8275 8.53797 14.5808C8.55096 14.3297 8.36048 14.1176 8.11373 14.1002Z" fill="#0033AD"/>
<path d="M8.11794 11.2737C7.76296 11.252 7.45993 11.5247 7.44261 11.8797C7.42097 12.2347 7.69369 12.5377 8.04868 12.555C8.40366 12.5724 8.70669 12.304 8.72401 11.949C8.74565 11.5983 8.47292 11.291 8.11794 11.2737Z" fill="#0033AD"/>
<path d="M10.7455 11.9657C10.4771 12.1043 10.3689 12.4333 10.5074 12.7017C10.6459 12.9701 10.975 13.0783 11.2433 12.9398C11.5117 12.8056 11.62 12.4766 11.4858 12.2082C11.3472 11.9398 11.0182 11.8272 10.7455 11.9657Z" fill="#0033AD"/>
</svg>
