<svg width="15" height="15" viewBox="0 0 15 15" fill="none" xmlns="http://www.w3.org/2000/svg">
<g clip-path="url(#clip0)">
<path d="M2.59259 15L4.7619 11.2434L6.93122 7.5L9.0873 3.74339L9.44444 3.14815L9.60317 3.74339L10.2646 6.21693L9.52381 7.5L7.3545 11.2434L5.19841 15H7.79101L9.96032 11.2434L11.0847 9.29894L11.6138 11.2434L12.619 15H14.9471L13.9418 11.2434L12.9365 7.5L12.672 6.53439L14.2857 3.74339H11.9312L11.8519 3.46561L11.0317 0.396825L10.9259 0H8.66402L8.61111 0.0793651L6.49471 3.74339L4.3254 7.5L2.16931 11.2434L0 15H2.59259Z" fill="black"/>
</g>
<defs>
<clipPath id="clip0">
<rect width="14.9471" height="15" fill="white"/>
</clipPath>
</defs>
</svg>
