<svg width="15" height="15" viewBox="0 0 15 15" fill="none" xmlns="http://www.w3.org/2000/svg">
<path d="M7.5 15C11.6421 15 15 11.6421 15 7.5C15 3.35786 11.6421 0 7.5 0C3.35786 0 0 3.35786 0 7.5C0 11.6421 3.35786 15 7.5 15Z" fill="#0AC18E"/>
<path d="M9.83943 4.98128C9.46253 4.12658 8.59641 3.94384 7.53613 4.12087L7.1954 2.7998L6.3921 3.00729L6.72712 4.32455C6.51583 4.37785 6.29882 4.42354 6.08372 4.48445L5.7487 3.1748L4.9454 3.38229L5.28613 4.70336C5.11291 4.75285 3.66431 5.12404 3.66431 5.12404L3.88512 5.98445C3.88512 5.98445 4.47522 5.81884 4.46951 5.83216C4.79692 5.74651 4.95111 5.91021 5.02344 6.0644L5.95999 9.68496C5.97141 9.78965 5.95238 9.96859 5.72776 10.0295C5.74108 10.0371 5.14337 10.1799 5.14337 10.1799L5.23093 11.1831C5.23093 11.1831 6.66621 10.8157 6.85466 10.7681L7.19921 12.1044L8.0025 11.8969L7.65796 10.5511C7.87877 10.4997 8.09388 10.4464 8.30327 10.3912L8.64591 11.7294L9.4492 11.5219L9.10466 10.1875C10.342 9.88673 11.2157 9.10628 11.0368 7.91275C10.9226 7.19321 10.1364 6.6031 9.48347 6.53648C9.88512 6.18052 10.0888 5.66085 9.83943 4.98128ZM9.45301 8.13166C9.61291 9.31376 7.97014 9.45843 7.42763 9.6012L6.95555 7.8328C7.49997 7.69003 9.18271 7.09041 9.45301 8.13166ZM8.46316 5.72366C8.63258 6.77442 7.22776 6.89625 6.77471 7.01237L6.34451 5.40767C6.79946 5.29536 8.11862 4.75095 8.46316 5.72366Z" fill="white"/>
</svg>
