<svg width="15" height="15" viewBox="0 0 15 15" fill="none" xmlns="http://www.w3.org/2000/svg">
<path d="M14.7753 9.31457C13.7736 13.3326 9.70404 15.7779 5.68554 14.7759C1.66873 13.7742 -0.776552 9.70434 0.225597 5.68665C1.22687 1.66819 5.29647 -0.777277 9.31371 0.224432C13.3319 1.22614 15.7771 5.29644 14.7752 9.31464L14.7753 9.31457H14.7753Z" fill="#F7931A"/>
<path d="M10.8201 6.42022C10.9693 5.4221 10.2094 4.88558 9.17034 4.52766L9.50743 3.17563L8.6844 2.97055L8.35626 4.28699C8.13988 4.23302 7.91769 4.18218 7.69684 4.13177L8.02737 2.80664L7.20486 2.60156L6.86759 3.95316C6.68854 3.91239 6.51268 3.8721 6.34206 3.82965L6.34301 3.8254L5.20804 3.54198L4.98911 4.42102C4.98911 4.42102 5.59972 4.56099 5.58685 4.5696C5.92013 4.65279 5.9804 4.87341 5.9704 5.04828L5.58641 6.58857C5.60936 6.59439 5.63913 6.60283 5.67198 6.61602C5.64452 6.60921 5.6153 6.60176 5.58498 6.5945L5.04677 8.75223C5.00604 8.85348 4.90266 9.00544 4.66965 8.94774C4.6779 8.95969 4.07146 8.79846 4.07146 8.79846L3.66284 9.74055L4.73388 10.0076C4.93313 10.0575 5.12838 10.1098 5.32066 10.159L4.98009 11.5265L5.80216 11.7316L6.13944 10.3786C6.36402 10.4395 6.58196 10.4958 6.79533 10.5488L6.45919 11.8954L7.28225 12.1005L7.62279 10.7355C9.02622 11.0011 10.0815 10.894 10.5257 9.62463C10.8836 8.60262 10.5079 8.01312 9.76951 7.6287C10.3073 7.50467 10.7123 7.15097 10.8203 6.42033L10.8201 6.42015L10.8201 6.42022ZM8.93963 9.05706C8.68528 10.0791 6.96452 9.5266 6.40662 9.38806L6.85857 7.57631C7.41643 7.71558 9.20546 7.99119 8.93967 9.05706H8.93963ZM9.19417 6.40541C8.96214 7.33504 7.52993 6.86275 7.06533 6.74694L7.47509 5.10378C7.93968 5.21959 9.43587 5.43574 9.19424 6.40541H9.19417Z" fill="white"/>
</svg>
