<svg width="15" height="15" viewBox="0 0 15 15" fill="none" xmlns="http://www.w3.org/2000/svg">
<path d="M7.5 15C11.6421 15 15 11.6421 15 7.5C15 3.35786 11.6421 0 7.5 0C3.35786 0 0 3.35786 0 7.5C0 11.6421 3.35786 15 7.5 15Z" fill="#988430"/>
<path d="M7.49999 14.7598C11.5094 14.7598 14.7598 11.5094 14.7598 7.49999C14.7598 3.49054 11.5094 0.240234 7.49999 0.240234C3.49054 0.240234 0.240234 3.49054 0.240234 7.49999C0.240234 11.5094 3.49054 14.7598 7.49999 14.7598Z" fill="#7A6A2A"/>
<path d="M7.50011 14.6062C11.4251 14.6062 14.6069 11.4244 14.6069 7.49938C14.6069 3.5744 11.4251 0.392578 7.50011 0.392578C3.57513 0.392578 0.393311 3.5744 0.393311 7.49938C0.393311 11.4244 3.57513 14.6062 7.50011 14.6062Z" fill="#BA9F33"/>
<path fill-rule="evenodd" clip-rule="evenodd" d="M3.27927 6.69944C3.23679 6.66064 3.19191 6.62176 3.15063 6.58296C3.10935 6.54416 3.06695 6.50527 3.02447 6.46647L2.89823 6.34647C2.87759 6.32583 2.85575 6.30767 2.83511 6.28695C2.81447 6.26879 2.79023 6.24815 2.76959 6.22991C2.60207 6.07094 2.43359 5.91197 2.26839 5.75293C2.43951 5.90949 2.60703 6.06494 2.77815 6.22383L2.83759 6.28335C2.85823 6.30391 2.88007 6.32215 2.90071 6.34279L3.02687 6.45927C3.06935 6.49807 3.11063 6.53696 3.15311 6.57928C3.19559 6.6216 3.23687 6.66056 3.27935 6.69928L3.27927 6.69944ZM1.05599 6.67544C1.05599 6.67544 1.66519 6.73848 1.96255 6.78096C2.23799 6.81984 3.09967 6.95209 3.09967 6.95209L1.05599 6.67544ZM1.05599 6.67544C1.22711 6.69 1.39823 6.70816 1.56935 6.7264C1.65671 6.73488 1.74047 6.74456 1.82423 6.75304L1.95279 6.76768C1.99527 6.77368 2.03655 6.77976 2.07903 6.78584L2.58879 6.86713L2.84359 6.90961C2.92735 6.92417 3.01111 6.94001 3.09847 6.95457C3.01471 6.94609 2.92735 6.93393 2.84359 6.92177L2.58879 6.88537L2.07903 6.81016C2.03655 6.80408 1.99527 6.79552 1.95279 6.78952L1.82415 6.77472C1.74039 6.76624 1.65303 6.75408 1.56927 6.74432C1.39815 6.72376 1.22703 6.70184 1.05591 6.6752L1.05599 6.67544ZM3.03903 7.11081C3.03903 7.11081 2.38855 7.27594 2.16887 7.33906C1.95287 7.3985 1.29871 7.59755 1.29871 7.59755L3.03895 7.11089L3.03903 7.11081Z" fill="#CFB66C"/>
<path fill-rule="evenodd" clip-rule="evenodd" d="M3.03883 7.11035C2.89443 7.15283 2.75083 7.19411 2.60435 7.23298L2.16987 7.34946C2.02547 7.39193 1.88187 7.43321 1.73787 7.47569L1.52187 7.53512C1.45027 7.55576 1.37747 7.57392 1.30347 7.59464C1.37499 7.57064 1.44787 7.54608 1.51947 7.52544L1.73547 7.45633C1.87987 7.41137 2.02347 7.36889 2.16747 7.32402C2.31427 7.28762 2.45875 7.24874 2.60555 7.21354C2.74507 7.17835 2.89195 7.14323 3.03883 7.11043V7.11035ZM1.38963 7.99749C1.46115 7.97077 2.28643 7.58616 2.47819 7.49633C2.57419 7.45137 2.85323 7.35234 2.85323 7.35234L1.38963 7.99749Z" fill="#CFB66C"/>
<path fill-rule="evenodd" clip-rule="evenodd" d="M1.38973 7.99774C1.45277 7.97373 1.51229 7.94437 1.57293 7.91645L1.75253 7.83268L2.11301 7.65915C2.23301 7.60211 2.34965 7.53915 2.47341 7.48554C2.53653 7.4589 2.59965 7.43706 2.66269 7.41642L2.75869 7.3861C2.79141 7.37762 2.82181 7.36786 2.85469 7.35938C2.73469 7.41642 2.60837 7.46498 2.48821 7.52075C2.36821 7.58027 2.24549 7.62883 2.12165 7.6822L1.75517 7.84357C1.63213 7.89341 1.51213 7.94677 1.38965 7.99774H1.38973ZM1.46973 8.33376C1.46973 8.33376 2.21725 7.89565 2.47453 7.75484C2.60925 7.67964 3.04493 7.46354 3.04493 7.46354L1.46973 8.33376Z" fill="#CFB66C"/>
<path fill-rule="evenodd" clip-rule="evenodd" d="M1.46973 8.3335C1.59589 8.25582 1.72452 8.17694 1.85316 8.09686L2.04516 7.9803C2.11068 7.9415 2.1738 7.9051 2.2406 7.8663C2.30612 7.82742 2.36924 7.78862 2.43596 7.75222C2.46772 7.73261 2.501 7.71556 2.53548 7.70126L2.6374 7.6503C2.77211 7.58478 2.90683 7.51798 3.04883 7.46094C2.92019 7.5423 2.78787 7.6115 2.65564 7.68302C2.59012 7.71942 2.52332 7.75222 2.4578 7.78862C2.39228 7.82502 2.32916 7.8639 2.26236 7.8991C2.19684 7.9379 2.13372 7.9743 2.067 8.0095L1.86916 8.1175L1.46989 8.3335H1.46973ZM3.03883 7.55918C3.03883 7.55918 2.57404 7.91598 2.42356 8.03006C2.27308 8.14414 1.83012 8.46454 1.83012 8.46454L3.03883 7.55918Z" fill="#CFB66C"/>
<path fill-rule="evenodd" clip-rule="evenodd" d="M5.70635 10.4371L5.46851 9.98686L5.60683 9.42374L6.59348 9.0427L6.17355 8.1811L6.38108 7.31094L6.77068 6.53174L7.97461 6.34246L8.85926 5.49902L10.7695 5.64342L11.1445 7.6859L10.4224 10.2575L10.011 11.5889L8.3435 11.652L7.56925 11.1156L6.66268 10.7369L5.70635 10.4371Z" fill="#E2CC85"/>
<path fill-rule="evenodd" clip-rule="evenodd" d="M8.63095 10.4229C8.63095 10.4229 8.40031 10.5285 8.00695 10.5041C7.89311 10.3513 7.09584 10.2797 7.09584 10.2797C7.09584 10.2797 6.99632 10.2493 6.82033 10.3221C6.64321 10.3941 6.47569 10.3853 6.31913 10.4241C6.16257 10.4629 6.00714 10.259 5.88714 10.2165C5.76714 10.1717 5.60802 10.0637 5.60802 10.0637L5.27202 10.0309L4.59731 9.74565L3.5254 8.67773L3.23413 9.13373L3.14429 9.69805L3.46836 10.3668L4.34091 11.1617L6.04234 11.5937L7.0508 11.2965L8.31415 10.7625L8.63095 10.4228V10.4229Z" fill="#F1D789"/>
<path fill-rule="evenodd" clip-rule="evenodd" d="M2.58623 6.64863L2.80223 5.99454L3.05959 5.57213L3.88839 5.50293L3.63959 6.2287L2.94671 7.46177L3.23431 8.56251L2.72463 8.81731L2.56799 8.57707L2.44183 8.0261L2.43335 7.40712L2.58623 6.64863Z" fill="#F4ECB4"/>
<path fill-rule="evenodd" clip-rule="evenodd" d="M3.51595 10.3776L3.35699 10.1555C3.35699 10.1555 3.31451 10.0499 3.33883 9.9577C3.36283 9.86426 3.35939 9.85818 3.34731 9.82298C3.33523 9.78778 3.23323 9.66642 3.23931 9.56202C3.24531 9.45642 3.23083 9.42122 3.30843 9.33754C3.38971 9.25626 3.36547 9.11546 3.36547 9.11546L3.47107 9.18098L3.49507 9.14458C3.49507 9.14458 3.53387 9.1749 3.53387 9.22226C3.54235 9.15674 3.50715 8.8533 3.58723 8.78418C3.66731 8.71506 3.80931 9.10818 3.80931 9.10818L3.72195 8.53778L3.49739 7.9529L3.09811 7.4189L3.07411 6.83026V6.7793C3.07411 6.7793 2.89083 7.0609 2.83987 7.2833C2.80347 7.43618 2.89083 7.62186 2.87267 7.84154C2.85803 8.06002 2.83987 8.04298 2.89323 8.12954C2.94659 8.2161 3.07651 8.3941 3.02555 8.52274C2.98067 8.63322 2.82771 8.55554 2.82771 8.55554C2.82771 8.55554 2.79739 8.6453 2.75611 8.6781C2.74155 8.62474 2.72579 8.59074 2.69667 8.5581C2.69419 8.57874 2.68819 8.60666 2.68819 8.60666C2.68819 8.60666 2.66147 8.5229 2.63475 8.4173C2.59843 8.27658 2.55955 8.0909 2.52435 7.99138C2.50979 8.04842 2.47339 8.22194 2.47339 8.22194L2.49403 8.48898L2.59355 8.85546L2.68955 9.09546L2.78299 9.38914L2.86419 9.58642L2.92971 9.7369L2.98675 10.0755L3.26219 10.3667L3.40907 10.4323L3.51579 10.3777L3.51595 10.3776Z" fill="#F3E19D"/>
<path fill-rule="evenodd" clip-rule="evenodd" d="M2.73042 6.11374C2.73042 6.11374 2.53258 6.44974 2.47562 6.78845C2.41866 7.12717 2.36762 7.48508 2.40362 7.94619C2.44002 8.41107 2.50922 8.69618 2.56506 8.9001C2.66106 9.23874 2.9097 9.70961 2.9097 9.70961L2.91818 9.69137C2.87639 9.61215 2.84303 9.52876 2.81866 9.44257C2.78586 9.31393 2.7737 9.16106 2.74338 9.09186C2.71666 9.02274 2.67178 8.96322 2.64994 8.87826C2.6293 8.79698 2.62594 8.66834 2.56258 8.57251C2.53586 8.53363 2.50306 8.43171 2.49338 8.32979C2.48122 8.17683 2.49946 8.00571 2.4849 7.865C2.45818 7.63076 2.44002 7.4718 2.46426 7.34916C2.4885 7.22653 2.61482 6.87837 2.6925 6.60166C2.74346 6.42446 2.71306 6.27518 2.8065 6.12102C2.89994 5.96814 2.95706 5.83343 2.97762 5.73999C3.00162 5.65503 2.7301 6.11374 2.7301 6.11374H2.73042Z" fill="#F2E8B0"/>
<path fill-rule="evenodd" clip-rule="evenodd" d="M3.6688 5.97949C3.6688 5.97949 3.56688 6.00989 3.51832 6.06325C3.46976 6.11421 3.44912 6.15669 3.3836 6.24285C3.31808 6.32902 3.3144 6.39942 3.26095 6.50742C3.20759 6.61302 3.08983 6.77198 3.07527 6.82902C3.06071 6.88606 3.03647 7.15302 3.00615 7.27926C2.97943 7.4055 3.03647 7.56087 3.03647 7.56087L3.10559 7.54623C3.10559 7.54623 3.10559 7.63607 3.17479 7.69679C3.24391 7.75623 3.25607 7.49527 3.25607 7.49527L3.51456 6.6227L3.90409 6.35814L3.94657 6.14453L3.66864 5.97949H3.6688Z" fill="#F5EEC0"/>
<path fill-rule="evenodd" clip-rule="evenodd" d="M3.85801 6.37507C3.85801 6.37507 3.67474 6.38715 3.58498 6.45275C3.54858 6.4794 3.53402 6.50124 3.49522 6.53404C3.42362 6.59348 3.35075 6.64812 3.31563 6.72604C3.27675 6.80365 3.23427 6.92141 3.20515 7.1435C3.19299 7.23694 3.19299 7.32311 3.18451 7.39839C3.17235 7.50031 3.15419 7.5816 3.16387 7.6384C3.17603 7.75488 3.29619 7.8156 3.30787 7.94785L3.55666 7.82168L3.79089 6.89805L4.28848 6.58604L4.00689 6.27051L3.85769 6.37451L3.85801 6.37507Z" fill="#E6DB9D"/>
<path fill-rule="evenodd" clip-rule="evenodd" d="M2.54549 12.5948C2.54653 12.5856 2.54757 12.5765 2.54861 12.5672C2.58493 12.2552 2.59109 12.0187 2.61773 11.8706C2.65653 11.6607 2.68325 11.5826 2.67717 11.504C2.66869 11.3779 2.65901 11.2856 2.67117 11.1885C2.68933 11.0599 2.81557 10.907 2.81197 10.8014C2.80949 10.7176 2.76701 10.6631 2.73061 10.6121C2.69421 10.5612 2.66509 10.5187 2.66509 10.5187C2.66509 10.5187 2.91389 10.3476 2.91149 9.6582C2.91658 9.65964 2.92146 9.66168 2.92605 9.66428L3.04862 10.0125L3.13238 10.1144L3.45398 10.714L3.86783 11.1157L4.47943 11.5271L4.86296 11.9444L4.90176 13.0573L4.40055 13.7078L4.31847 13.8564C3.66636 13.5291 3.06837 13.1035 2.54541 12.5947L2.54549 12.5948Z" fill="#E5CB7A"/>
<path fill-rule="evenodd" clip-rule="evenodd" d="M4.07642 13.6586C4.07642 13.6586 4.0849 13.5203 4.19898 13.4304C4.21722 13.4608 4.2293 13.49 4.2257 13.5117C4.24634 13.4754 4.39073 13.2424 4.71721 13.1816C5.04369 13.1222 5.12257 12.8844 5.12257 12.8844L5.81545 12.2545L6.60793 11.5252L7.57152 11.1865L8.02184 11.076C8.02184 11.076 8.03032 11.1088 8.01336 11.1816C8.09704 11.1756 8.28272 11.1332 8.47568 11.0652C8.55336 11.0348 8.62624 11.0227 8.66504 11.0628C8.72208 11.1161 8.73056 11.2424 8.73416 11.3176C8.8276 11.2969 8.9356 11.2072 9.02216 11.2156C9.16056 11.2302 9.28312 11.3928 9.42392 11.3928C9.6096 11.3928 9.69328 11.2788 9.82319 11.1889C9.90088 11.1356 10.0125 11.0689 10.0756 11.0239C10.2261 10.9134 11.8183 10.4268 11.8183 10.4268L12.3765 10.4632L12.4664 11.0627L12.4184 12.6299C12.4125 12.6356 12.4065 12.6415 12.4005 12.6472L9.86232 13.9728L6.34393 14.5122C5.5558 14.3834 4.79524 14.1218 4.09466 13.7385L4.07666 13.6585L4.07642 13.6586Z" fill="#D8C173"/>
<path fill-rule="evenodd" clip-rule="evenodd" d="M2.75879 12.7936C2.80879 12.689 2.85375 12.6016 2.86167 12.5703C2.86791 12.6334 2.87935 12.7717 2.90239 12.9187C2.85402 12.8776 2.80615 12.8359 2.75879 12.7935V12.7936Z" fill="#F1D789"/>
<path fill-rule="evenodd" clip-rule="evenodd" d="M5.32893 14.269L5.78397 14.1424L5.82277 14.1546C5.82277 14.1546 5.84341 14.1667 5.84341 14.2079C5.90045 14.1752 5.94902 14.1812 5.98422 14.1594C6.00238 14.1982 6.02054 14.3269 6.1007 14.3426C6.18438 14.3609 6.27422 14.3062 6.36526 14.2371C6.45502 14.1655 6.55726 14.0757 6.63462 14.0393C6.66301 14.0915 6.68815 14.1453 6.7099 14.2006C6.81182 14.1193 6.98902 13.7893 7.24143 13.7953C7.31438 13.6229 7.43626 13.4756 7.59199 13.3717C7.82623 13.2128 7.97303 13.2006 8.15632 13.2152C8.22911 13.1206 8.31882 13.0404 8.42088 12.9785C8.4512 12.9907 8.53496 13.0417 8.63936 12.9931C8.74496 12.9446 8.86384 12.7565 9.0204 12.7322C9.10477 12.7206 9.19055 12.7386 9.26313 12.7832C9.26313 12.7832 9.71913 12.3305 10.0338 12.18C10.0216 12.1436 9.99737 12.0064 10.3663 11.703C10.3869 11.7212 10.3723 11.7722 10.3869 11.775C10.3929 11.775 10.4829 11.7362 10.5968 11.6488C10.7376 11.5432 10.9063 11.4328 11.0082 11.4024C11.2002 11.3454 11.4039 11.4619 11.4039 11.4619C11.4212 11.4497 11.4405 11.4407 11.4609 11.4352C11.5094 11.4267 11.5446 11.4206 11.5713 11.4112C11.5689 11.4743 11.6041 11.5823 11.5713 11.6757C11.6093 11.6971 11.6495 11.7142 11.6913 11.7267C11.6707 11.7716 11.6258 11.8856 11.5506 11.9403C11.6136 11.9706 11.6221 12.0058 11.7119 12.0363C11.6755 12.0873 11.6159 12.1747 11.5894 12.2283C11.5627 12.2853 11.4667 12.522 11.4243 12.6117C11.3794 12.7016 11.3187 12.8666 11.2895 12.8997C11.2603 12.9329 11.1548 13.0733 11.0735 13.1424C11.1455 13.1157 11.4401 13.0259 11.5651 12.9919C11.5279 13.0465 11.3393 13.3262 11.158 13.5953C10.2901 14.1155 9.32118 14.4448 8.31595 14.5612C7.31073 14.6775 6.29224 14.5783 5.32837 14.2702L5.32893 14.269Z" fill="#E0CD81"/>
<path fill-rule="evenodd" clip-rule="evenodd" d="M3.88795 6.34271C3.88795 6.34271 3.78243 6.34271 3.76179 6.35727C3.74114 6.37183 3.86739 6.40223 3.90619 6.41679C3.94499 6.43135 4.02876 6.49807 4.0506 6.55151C4.07124 6.60247 4.80911 6.89975 4.80911 6.89975L5.33097 6.87303L5.5109 6.62447L5.16865 6.32471L5.40866 5.61719L5.09072 5.66815L4.32613 6.12415L3.94259 6.27103L3.88795 6.34271Z" fill="#DFC57C"/>
<path fill-rule="evenodd" clip-rule="evenodd" d="M5.03383 6.57656C5.04137 6.58878 5.05199 6.59879 5.06463 6.6056C5.07727 6.61241 5.09148 6.61578 5.10583 6.61536C5.21383 6.61536 5.31327 6.64208 5.35455 6.69664C5.42375 6.78408 5.61551 7.0632 5.61551 7.0632L6.07423 7.22824L6.10383 6.68808L5.60263 6.33984L5.03223 6.54976V6.57648H5.03351L5.03383 6.57656Z" fill="#E5CC7C"/>
<path fill-rule="evenodd" clip-rule="evenodd" d="M4.94388 6.7765C4.94388 6.7765 5.02756 6.78258 5.13316 6.7437C5.23876 6.70482 5.41228 6.62114 5.48756 6.65394C5.59308 6.69882 5.57124 6.83962 5.6854 6.96594C5.75452 7.04362 5.88076 7.04122 5.95236 7.12498C6.02396 7.20874 6.27028 7.16986 6.27028 7.16986L6.36372 7.67386L5.98876 8.15451L5.86613 8.75154H5.35909L4.89588 8.56779L4.66772 8.01578L4.7818 7.45754L4.94388 6.7765Z" fill="#D2C281"/>
<path fill-rule="evenodd" clip-rule="evenodd" d="M5.9249 6.8012C5.93748 6.80507 5.95054 6.80712 5.9637 6.80728C5.94914 6.81944 5.91874 6.84607 5.9309 6.91527C5.94306 6.98447 5.98186 7.07182 5.94914 7.12518C5.97526 7.15374 5.99474 7.18773 6.00618 7.2247C6.02682 7.28422 6.0329 7.33877 6.16754 7.34733C6.14811 7.35929 6.13019 7.37356 6.11418 7.38981C6.11418 7.38981 6.20762 7.47109 6.25498 7.54629C6.30346 7.54421 6.4321 7.50421 6.4321 7.50421L6.45882 7.52245L6.51586 7.49845C6.51586 7.49845 6.4625 7.47781 6.5013 7.34797C6.5377 7.2339 6.5705 7.23998 6.5733 7.2315C6.5761 7.22302 6.60002 7.10286 6.60002 7.05431C6.61818 6.99127 6.63274 6.79952 6.63274 6.79952L6.59394 6.37601L6.37554 6.2437L6.19794 6.07227L6.03042 6.38777L5.9201 6.49777L5.91162 6.7708L5.9249 6.8012Z" fill="#E2C270"/>
<path fill-rule="evenodd" clip-rule="evenodd" d="M6.4502 6.44718C6.4502 6.44718 6.489 6.55758 6.50364 6.64254C6.50879 6.62603 6.51165 6.60888 6.51212 6.59158C6.51212 6.59158 6.54244 6.7591 6.54844 6.8283C6.5606 6.82582 6.57244 6.82222 6.57516 6.8343C6.57788 6.84638 6.60556 6.98118 6.59916 7.05638C6.64969 6.97301 6.71962 6.90308 6.803 6.85254C6.85156 6.82214 6.9086 6.78942 6.96812 6.78694C7.06156 6.78454 7.12948 6.84646 7.24116 6.84646C7.51052 6.84646 7.75452 6.64862 7.93412 6.58798C8.06636 6.54302 8.18043 6.5103 8.26051 6.43742C8.29939 6.4047 8.3686 6.3319 8.43164 6.22382C8.5154 6.07982 8.60276 5.95446 8.6902 5.9387C8.65063 5.94597 8.61039 5.94881 8.5702 5.94718C8.5702 5.94718 8.59692 5.92046 8.6422 5.88406C8.68748 5.84766 8.74172 5.80278 8.81932 5.80278C8.95772 5.80278 9.02683 5.82334 9.10452 5.82334C9.1822 5.82094 9.22708 5.80278 9.22708 5.80278C9.22708 5.80278 9.30844 5.85982 9.49164 5.85982C9.67492 5.86222 9.79748 5.87798 9.8934 5.88654C9.98932 5.8951 10.3108 5.85982 10.4031 5.86254C10.4632 5.86486 10.5223 5.87931 10.5767 5.90502L10.2793 5.04102L9.21116 4.10742L8.57524 4.55766L7.597 5.53582L6.65044 5.88654L6.4526 6.10862V6.44718H6.4502Z" fill="#CCB360"/>
<path fill-rule="evenodd" clip-rule="evenodd" d="M8.57414 5.95146C8.57414 5.95146 8.60086 5.92482 8.64566 5.88842C8.69046 5.85202 8.74526 5.80706 8.82286 5.80706C8.96119 5.80706 9.03039 5.8277 9.10807 5.8277C9.18575 5.8253 9.23063 5.80706 9.23063 5.80706C9.23063 5.80706 9.31208 5.86402 9.4952 5.86402C9.67849 5.86642 9.80105 5.88218 9.89697 5.89066C9.99289 5.89914 10.3144 5.86402 10.4067 5.86666C10.4668 5.86892 10.5258 5.88337 10.5802 5.90914L10.4455 5.51954L10.289 5.22226L9.84233 4.73314C9.84233 4.73314 9.30632 4.41762 9.30224 4.41522C9.29984 4.41282 9.11655 4.36426 9.11655 4.36426L8.6311 4.65794L8.19061 5.79754L8.18213 6.03754L8.46726 6.17226C8.53886 6.05226 8.61782 5.95626 8.69182 5.9441C8.62502 5.95138 8.57406 5.95138 8.57406 5.95138L8.57414 5.95146Z" fill="#D5B457"/>
<path fill-rule="evenodd" clip-rule="evenodd" d="M8.56809 6.03298C8.52561 6.03538 8.49049 6.0269 8.48073 5.99658C8.44433 5.89466 8.41521 5.8801 8.38473 5.8801C8.35425 5.8801 8.31314 5.94562 8.28874 5.95162C8.26434 5.95762 8.23538 5.87642 8.23538 5.87642L8.20866 5.86426C8.20866 5.86426 8.05211 5.96618 7.94171 6.08634C7.83132 6.2065 7.65045 6.41042 7.56917 6.44674C7.48789 6.48306 7.20871 6.4953 7.11319 6.51594C7.01767 6.53658 6.91176 6.60578 6.8972 6.62154C6.88264 6.6373 6.93976 6.65426 6.94824 6.67002C6.95672 6.68458 6.85472 6.6785 6.84624 6.69402C6.84024 6.70618 6.87024 6.7753 6.88512 6.8105C6.91116 6.79755 6.93973 6.7905 6.9688 6.78986C7.06223 6.78746 7.13023 6.84938 7.24182 6.84938C7.51125 6.84938 7.75516 6.65154 7.93475 6.59082C8.06707 6.54594 8.18114 6.51314 8.26122 6.44034C8.30002 6.40762 8.36921 6.33474 8.43233 6.22674C8.47841 6.15274 8.52337 6.08354 8.56833 6.03258L8.56809 6.03298Z" fill="#D2B257"/>
<path fill-rule="evenodd" clip-rule="evenodd" d="M4.70418 12.0383C4.70418 12.0383 4.68018 11.9484 4.45778 11.7167C4.39467 11.6512 4.35587 11.5967 4.31339 11.5577C4.20779 11.4581 4.14587 11.4315 4.07067 11.3744C3.90563 11.2519 3.72603 11.2519 3.58771 11.1014C3.4494 10.9509 3.2882 10.6634 3.1762 10.3695C3.0658 10.0758 3.0354 9.98239 3.0354 9.97391C3.0354 9.96543 3.0658 9.90839 3.1046 9.91687C3.1434 9.92535 3.1434 10.0006 3.15316 10.0188C3.17249 10.0486 3.19442 10.0766 3.21868 10.1025C3.27572 10.1681 3.357 10.2465 3.39828 10.3634C3.3898 10.2639 3.3558 10.1535 3.3558 10.1535C3.3558 10.1535 3.56939 10.2882 3.75139 10.429C3.93467 10.5698 4.00987 10.6183 4.06339 10.7081C4.11691 10.7979 4.24299 11.0346 4.30339 11.1038C4.36379 11.173 5.19138 11.4339 5.19138 11.4339L5.58505 11.7274L5.78049 12.1558L5.62753 12.3958L5.33386 12.4589L4.8569 12.2453L4.70418 12.0382V12.0383Z" fill="#D2B159"/>
<path fill-rule="evenodd" clip-rule="evenodd" d="M3.64429 10.563C3.64429 10.563 3.74381 10.722 3.98652 10.8725C4.205 11.0048 4.55084 11.125 4.85915 11.1966C5.03627 11.239 5.21347 11.2718 5.37243 11.2742C5.80082 11.2802 6.0957 11.1578 6.46105 11.1177C6.65889 11.097 6.90161 11.0813 7.15401 11.0217C7.478 10.944 7.66976 10.8566 7.93072 10.7337C8.12 10.6463 8.29359 10.5808 8.43431 10.497C8.63215 10.3806 8.77655 10.2507 8.94407 10.2119C8.92343 10.269 8.90159 10.3709 8.73655 10.4765C8.82391 10.474 8.94407 10.468 8.94407 10.468C8.94407 10.468 8.82759 10.5371 8.62247 10.6925C8.49623 10.7885 8.32879 10.951 8.15767 11.059C8.0472 11.1282 7.92704 11.179 7.84816 11.2204C7.65616 11.326 7.57872 11.3794 7.45256 11.5084C7.49744 11.506 7.50112 11.5084 7.50112 11.5084C7.50112 11.5084 7.34208 11.529 7.22809 11.5897C7.20409 11.5897 7.16249 11.5812 7.08969 11.6018C7.03265 11.62 6.95737 11.6614 6.87977 11.6831C6.76929 11.7159 6.73297 11.7014 6.73297 11.7014L6.75113 11.7378C6.75113 11.7378 6.60713 11.7353 6.55913 11.7402C6.56761 11.7426 6.56521 11.7462 6.56521 11.7462C6.55678 11.7476 6.54866 11.7505 6.54121 11.7547C6.51812 11.7697 6.49271 11.7807 6.46601 11.7874C6.45145 11.7898 6.4393 11.7898 6.42106 11.7935C6.42714 11.8081 6.47449 11.8895 6.49633 11.9375C6.47817 11.9497 6.20506 12.156 6.20506 12.156C6.21353 12.1693 6.22045 12.1836 6.2257 12.1985C6.23418 12.2251 6.23786 12.264 6.24634 12.2822C6.2669 12.3186 6.27906 12.3246 6.27906 12.3246C6.27906 12.3246 6.24634 12.3307 6.18922 12.3453C6.14074 12.3574 6.08122 12.378 5.99722 12.3902C5.97145 12.3935 5.94552 12.3955 5.91954 12.3962C5.9317 12.423 5.98506 12.5249 5.88674 12.6426C5.78842 12.7602 5.7581 12.7774 5.72778 12.8526C5.71252 12.841 5.69627 12.8308 5.67922 12.8222C5.6465 12.8076 5.60154 12.7858 5.58578 12.7566C5.5766 12.7955 5.56443 12.8337 5.54939 12.8707C5.51907 12.952 5.47419 13.0322 5.46571 13.0928C5.43291 13.0564 5.37227 12.9848 5.28851 12.9994C5.20475 13.0139 5.13803 13.128 5.12347 13.1608C5.12347 13.1402 5.10891 13.1244 5.10531 13.1486C5.10283 13.1754 5.05675 13.4544 4.79947 13.6802C4.79707 13.6231 4.79707 13.4969 4.79099 13.4557C4.76699 13.4797 4.73763 13.5151 4.56284 13.5904C4.39172 13.6656 4.41884 13.7409 4.41884 13.7409C4.41884 13.7409 4.40428 13.6209 4.49652 13.4945C4.58996 13.3683 4.647 13.3088 4.647 13.2991C4.64549 13.2893 4.64128 13.28 4.63484 13.2724C4.62268 13.2602 4.59844 13.2457 4.59844 13.236C4.613 13.23 4.75739 13.1608 4.74891 13.0175C4.74043 12.889 4.68588 12.8222 4.647 12.7749C4.641 12.7688 4.70412 12.7239 4.69556 12.7094C4.68948 12.7009 4.61188 12.6438 4.60212 12.6134C4.60441 12.5952 4.60848 12.5773 4.61428 12.56C4.62276 12.5333 4.62884 12.515 4.62644 12.4969C4.62036 12.4666 4.58756 12.3828 4.57788 12.3743C4.58636 12.3767 4.647 12.3743 4.647 12.3743C4.647 12.3743 4.59852 12.2966 4.58996 12.2602C4.5814 12.2238 4.56324 12.1279 4.55356 12.1098C4.5742 12.1122 4.62516 12.1158 4.62516 12.1098C4.62764 12.0915 4.58028 12.0612 4.60116 12.0378C4.61572 12.0402 4.64364 12.0523 4.67028 12.0863C4.65572 12.0474 4.63148 11.9722 4.58044 11.9419C4.60444 11.9334 4.68603 11.9115 4.75763 11.954C4.82923 11.9965 4.85363 12.0559 4.85363 12.0559C4.85363 12.0559 4.89611 12.0887 4.96171 12.1373C5.03691 12.1967 5.13275 12.2813 5.28571 12.3411C5.31851 12.3594 5.40219 12.3594 5.46291 12.3472C5.48934 12.3409 5.51469 12.3307 5.53811 12.3169C5.54656 12.3119 5.55552 12.3078 5.56482 12.3047C5.55178 12.2785 5.53678 12.2534 5.51995 12.2294C5.54059 12.2294 5.56482 12.2319 5.56482 12.2319C5.56482 12.2319 5.57938 12.1991 5.51387 12.1359C5.52843 12.1214 5.54666 12.1119 5.54666 12.0874C5.52603 12.085 5.48963 12.0546 5.48115 12.0425C5.49323 12.034 5.51147 12.0061 5.53211 11.9976C5.51387 11.983 5.46899 11.9223 5.44835 11.9163C5.46806 11.909 5.48714 11.9001 5.50539 11.8896C5.50539 11.8896 5.40347 11.8629 5.37067 11.841C5.33787 11.817 5.28939 11.7755 5.26027 11.7634C5.22987 11.7512 5.17651 11.7452 5.15467 11.7209C5.17523 11.727 5.20803 11.7209 5.23235 11.7209C5.25051 11.7209 5.25907 11.7233 5.26507 11.7233C5.26267 11.7148 5.26267 11.6966 5.31003 11.6906C5.33281 11.6871 5.35491 11.6802 5.37555 11.6699C5.37555 11.6699 5.33059 11.6675 5.27955 11.619C5.22851 11.5704 5.18611 11.5316 5.15699 11.5255C5.12667 11.5194 5.06963 11.5462 5.03443 11.5437C4.98587 11.5377 4.96523 11.5134 4.96523 11.5134C4.96523 11.5134 4.80387 11.5279 4.44588 11.3095C4.13636 11.1202 4.00164 10.9527 4.00164 10.9527C3.97268 10.9422 3.94468 10.9292 3.91796 10.9138C3.80149 10.8532 3.64005 10.727 3.64493 10.5618L3.64429 10.563Z" fill="#C2A44D"/>
<path fill-rule="evenodd" clip-rule="evenodd" d="M8.10915 3.27871C8.13723 3.28783 8.16218 3.30466 8.18115 3.32727C8.23819 3.39279 8.2746 3.51655 8.14475 3.64887C8.19571 3.66703 8.21675 3.67287 8.26124 3.66703C8.21635 3.72047 8.11443 3.83455 8.10835 3.93407C8.10227 4.01535 8.15323 4.03967 8.15323 4.03967C8.15323 4.03967 8.07555 4.12943 8.07195 4.27967C8.10864 4.2383 8.14878 4.20014 8.19195 4.16559C8.2818 4.09399 8.40556 4.01271 8.48932 3.96175C8.48818 3.98311 8.49106 4.00449 8.4978 4.02479C8.4978 4.02479 8.65428 3.89615 8.78581 3.95327C8.84525 3.97999 8.81853 4.06367 8.81853 4.06367C8.81853 4.06367 8.89989 4.03335 8.95693 4.09039C9.01397 4.14743 9.09461 4.29455 9.13597 4.35159C9.15413 4.37831 9.20149 4.42927 9.24998 4.50815C9.31621 4.61859 9.37151 4.73522 9.4151 4.85639C9.4175 4.79327 9.43326 4.69503 9.61294 4.75687C9.79255 4.81999 9.99639 4.95231 10.1675 5.21287C10.3386 5.47343 10.381 5.76759 10.4672 5.87959C10.5546 5.98759 10.6444 6.16719 10.6505 6.24247C10.6566 6.31775 10.6238 6.56039 10.8034 7.21695C10.8543 7.01311 10.932 6.56039 10.932 6.56039L10.9745 6.16111L11.0231 4.92567L9.73295 3.85391L8.72445 3.12207L8.06787 3.18519L8.10907 3.27863L8.10915 3.27871Z" fill="#CAA13E"/>
<path fill-rule="evenodd" clip-rule="evenodd" d="M10.5063 5.11785C10.5063 5.11785 10.488 4.99785 10.1847 4.79385C9.88123 4.59241 9.64459 4.59241 9.42619 4.42129C9.25867 4.28657 9.08395 3.97705 8.97019 3.87513C8.85971 3.77441 8.84155 3.48313 8.84155 3.48313L9.21411 3.17113L9.76819 2.37025L10.2366 1.85449L10.4611 2.16649L10.7731 2.53297L10.9466 3.26841L11.0097 4.34489L10.5057 5.11793L10.5063 5.11785Z" fill="#B59544"/>
<path fill-rule="evenodd" clip-rule="evenodd" d="M10.8812 6.40803C10.8904 6.24478 10.8702 6.08121 10.8217 5.92507C10.7417 5.67627 10.5669 5.23451 10.4857 5.06907C10.4529 4.88579 10.4772 4.87123 10.5124 4.85059C10.5476 4.82995 10.6799 4.75459 10.7524 4.49019C10.8249 4.22579 11.0498 4.21715 11.0498 4.21715L11.1881 4.11523L11.3981 4.64067L11.5813 5.11523L11.6383 5.47811L11.6808 5.78755L11.5813 6.44171L11.0899 6.88587L10.8811 6.40803H10.8812Z" fill="#C89D3A"/>
<path fill-rule="evenodd" clip-rule="evenodd" d="M4.02295 13.6989V13.6854C4.03316 13.679 4.04218 13.6709 4.04959 13.6614C4.05807 13.6493 4.06423 13.6347 4.07023 13.6311C4.08239 13.625 4.13943 13.6071 4.16975 13.6129C4.20007 13.6186 4.28024 13.6517 4.32272 13.6493C4.41008 13.6469 4.51201 13.5801 4.67345 13.6105C4.91618 13.6553 4.97322 13.8204 5.11402 13.9138C5.21003 13.9794 5.30939 13.9502 5.32395 13.9502H5.35667C5.36275 13.9502 5.40763 13.8993 5.43195 13.9017C5.48052 13.9041 5.48532 13.9442 5.51564 13.9466C5.58724 13.9551 5.72564 13.9102 5.79485 13.9285C5.81537 13.9349 5.83403 13.9462 5.84924 13.9614C5.86445 13.9766 5.87576 13.9952 5.88221 14.0157C5.89677 14.0606 5.88461 14.1177 5.84941 14.1505C5.77421 14.2196 5.7026 14.2852 5.68804 14.3425C5.70656 14.3566 5.72435 14.3717 5.74132 14.3876C5.14084 14.2346 4.56309 14.0033 4.02295 13.6996V13.6989Z" fill="#CEB052"/>
<path fill-rule="evenodd" clip-rule="evenodd" d="M10.4854 11.2736C10.4854 11.2736 10.6746 11.0212 10.7402 10.8962C10.8057 10.7673 10.5327 9.1353 10.5327 9.1353L11.0813 7.33802L11.0666 6.75306C11.0666 6.75306 11.0933 6.21298 11.1565 5.97874C11.2317 6.11346 11.466 6.2761 11.5169 6.36226C11.5409 6.19714 11.6225 5.8489 11.6104 5.47754C11.6553 5.54666 11.7633 6.2421 11.7633 6.2421L11.8713 6.7105L12.0121 7.2081L12.1686 7.73362L12.262 8.0965L12.3154 8.18386L12.3604 8.33674L12.4028 8.50186L12.5254 8.88898L12.5974 9.2069L12.6544 9.78338C12.6668 9.82752 12.6758 9.87256 12.6812 9.9181C12.6836 9.98122 12.6727 10.0176 12.6727 10.0286C12.6727 10.0395 12.6933 10.1669 12.6848 10.2628C12.6727 10.3588 12.6727 10.4339 12.5974 10.5028C12.5221 10.5717 12.4748 10.9834 12.4748 10.9834L12.3401 10.8936C12.3401 10.8936 12.3668 10.771 12.3037 10.6594C12.2406 10.5478 12.118 10.5247 12.0488 10.5429C11.9797 10.5575 11.8414 10.5792 11.7965 10.6181C11.754 10.6569 11.6497 10.7771 11.5537 10.8317C11.4337 10.9037 11.2382 10.9094 11.1339 10.9336C11.0283 10.9576 10.9118 11.0296 10.7892 11.1132C10.693 11.1755 10.5915 11.229 10.4858 11.2732L10.4854 11.2736Z" fill="#CCA847"/>
<path fill-rule="evenodd" clip-rule="evenodd" d="M10.4854 13.9265C10.4854 13.9265 10.4934 13.9317 10.5088 13.9402C11.371 13.5363 12.1435 12.9637 12.7808 12.2562C12.7738 12.0106 12.7648 11.7588 12.7549 11.6656C12.7343 11.4677 12.7489 11.2663 12.7428 11.1498C12.7367 11.0333 12.6712 10.5588 12.6409 10.4362C12.6081 10.3136 12.5449 10.2529 12.5353 10.2529C12.5268 10.2554 12.4758 10.4836 12.4758 10.5409C12.4758 10.5983 12.4636 10.7364 12.4636 10.7716C12.4551 10.7691 12.4515 10.7476 12.4515 10.7388C12.4394 10.7691 12.4248 10.8225 12.4187 10.8286C12.4126 10.8347 12.4272 10.7776 12.4187 10.7655C12.4102 10.7533 12.3947 10.7594 12.3981 10.7291C12.3995 10.7111 12.4023 10.6933 12.4066 10.6757C12.4066 10.6757 12.3702 10.7291 12.3435 10.865C12.3168 10.9997 12.3168 11.0034 12.3071 11.0155C12.2986 11.0301 12.2501 11.0786 12.2476 11.0968C12.2452 11.1296 12.2926 11.1624 12.2962 11.1805C12.2986 11.2109 12.2537 11.3516 12.2391 11.4205C12.2246 11.4894 12.2306 11.6244 12.2151 11.6936C12.203 11.7567 12.1911 11.7931 12.1496 11.8197C12.1799 11.8258 12.209 11.8343 12.209 11.8343C12.209 11.8343 12.2515 12.0139 12.1435 12.1668C12.1047 12.2202 12.095 12.2445 12.0538 12.2931C11.9724 12.3828 11.9093 12.4851 11.9032 12.5516C11.899 12.5319 11.8962 12.5121 11.8947 12.492C11.8947 12.492 11.7686 12.6389 11.7151 12.7227C11.646 12.8307 11.5501 12.8246 11.5231 12.8513C11.4962 12.878 11.4903 12.9265 11.4991 12.9654C11.4751 12.9714 11.43 12.98 11.3996 13.0734C11.385 13.1219 11.3486 13.1694 11.2916 13.202C11.2346 13.2347 11.1654 13.2445 11.1302 13.253C11.1605 13.2615 11.1726 13.2615 11.1872 13.2712C11.169 13.3015 11.0853 13.3488 10.9918 13.4096C10.8984 13.4666 10.8534 13.5503 10.8304 13.6049C10.8064 13.6559 10.771 13.6887 10.7139 13.6948C10.7379 13.7093 10.7734 13.7432 10.7916 13.7542C10.7649 13.7603 10.7196 13.7603 10.6387 13.8295C10.5538 13.8999 10.5246 13.9205 10.4858 13.9266L10.4854 13.9265Z" fill="#C39D3C"/>
<path fill-rule="evenodd" clip-rule="evenodd" d="M8.79679 14.4884C8.84326 14.4559 8.89359 14.4292 8.94663 14.409C9.13591 14.3338 9.33615 14.3192 9.41503 14.295C9.49031 14.271 9.54975 14.2379 9.64319 14.2197C9.64071 14.241 9.63863 14.261 9.63639 14.2799C9.36091 14.3665 9.08038 14.4361 8.79639 14.4884H8.79679Z" fill="#D2BA6B"/>
<path fill-rule="evenodd" clip-rule="evenodd" d="M12.2878 9.50947C12.2878 9.50947 12.249 9.71939 12.1798 9.85171C12.1106 9.98403 12.0358 10.1672 12.0358 10.1672C12.0362 10.1259 12.0411 10.0848 12.0503 10.0446C11.963 10.0955 11.7506 10.2182 11.6904 10.2727C11.6333 10.3237 11.5374 10.4135 11.5132 10.456C11.5702 10.2886 11.6296 10.1381 11.6394 10.0689C11.552 10.132 11.1442 10.4682 10.9319 10.6903L10.2704 11.2255C10.1941 11.2666 10.1155 11.3034 10.035 11.3357C9.92099 11.3842 9.78627 11.4254 9.68675 11.4643C9.71347 11.3927 9.75587 11.3295 9.81539 11.2689C9.87851 11.2095 10.0678 11.0043 10.0969 10.9089C10.1236 10.8094 10.1297 10.7499 10.0945 10.6662C10.0617 10.6747 9.98651 10.6783 9.93555 10.6929C9.88459 10.7075 9.82995 10.762 9.82995 10.762C9.82995 10.762 9.86875 10.5399 9.95251 10.33C9.88939 10.3324 9.78139 10.3506 9.78139 10.3506C9.78139 10.3506 9.93187 10.0982 10.1894 9.92227C10.1105 9.93905 10.0334 9.96299 9.95883 9.99379C9.80835 10.0569 9.64331 10.1503 9.52075 10.2013C9.58987 10.1053 10.0753 9.41251 10.3642 8.76684C10.6522 8.12245 10.7598 7.95741 10.8229 7.61158C10.8556 7.44046 10.8469 7.18758 10.8556 6.9611C10.8641 6.73655 10.892 6.53511 10.8739 6.40039C10.9491 6.49383 11.2307 6.75719 11.2404 7.34582C11.2488 7.93437 10.971 8.72932 10.676 9.15764C10.748 9.17828 10.9346 9.2026 11.1263 8.86964C11.318 8.53668 11.3156 8.44373 11.3848 8.30533C11.3933 8.37453 11.3908 8.39877 11.3908 8.39877C11.3908 8.39877 11.67 8.06021 11.8023 7.63422C11.829 7.81749 11.9079 7.97893 11.784 8.31509C11.6736 8.61844 11.5292 8.69252 11.5292 8.69252C11.5292 8.69252 11.6008 8.68036 11.7064 8.61724C11.7246 8.66212 11.721 8.71324 11.7513 8.73132C11.7816 8.7494 11.8229 8.77988 11.829 8.809C11.8617 8.76044 11.9127 8.69852 11.9285 8.65244C11.9164 8.74844 11.9079 9.1682 11.9525 9.38179C12.046 9.37331 12.1419 9.36723 12.2074 9.19852C12.1625 9.36363 12.1625 9.46307 12.1928 9.60387C12.2426 9.56995 12.2875 9.50923 12.2875 9.50923L12.2878 9.50947Z" fill="#C0993A"/>
<path fill-rule="evenodd" clip-rule="evenodd" d="M9.1346 2.82022C9.1346 2.82022 9.04116 2.85902 8.88219 2.85902C8.74387 2.85902 8.78267 2.80566 8.56667 2.80566C8.23418 2.80566 7.07271 2.99766 6.86878 2.99494C6.73646 2.99254 7.31535 3.05198 7.31535 3.05198L8.79483 3.07262L9.09212 3.04862L9.2026 2.82382L9.1346 2.82022Z" fill="#A88F33"/>
<path fill-rule="evenodd" clip-rule="evenodd" d="M5.29871 5.71251C5.29871 5.71251 5.10935 5.85691 5.02927 5.96739C4.94919 6.07787 4.90671 6.15059 4.81567 6.24043C4.83704 6.24125 4.8584 6.23838 4.87879 6.23195C4.87879 6.23195 4.87879 6.25595 4.86423 6.26227C4.87682 6.26086 4.88955 6.26229 4.90151 6.26644C4.91347 6.27059 4.92435 6.27737 4.93335 6.28627C4.90663 6.30083 4.83383 6.37371 4.89087 6.45987C4.93335 6.52539 5.02319 6.53139 5.02319 6.53139C5.02319 6.53139 5.00255 6.59091 5.08871 6.58483C5.27439 6.57635 5.48191 6.49499 5.57775 6.51563C5.67375 6.53963 5.72831 6.54843 5.79623 6.66619C5.86823 6.78267 5.93095 6.80091 5.93095 6.80091C5.93095 6.80091 5.97343 6.69283 5.96375 6.53147C5.99858 6.44449 6.01789 6.35208 6.02079 6.25843L5.95767 5.79363L5.68223 5.44531L5.32543 5.64315L5.29871 5.71227V5.71251Z" fill="#E3C571"/>
<path fill-rule="evenodd" clip-rule="evenodd" d="M5.63696 5.64385C5.63696 5.64385 5.66368 5.70697 5.77536 5.71297C5.7632 5.73969 5.7632 5.74337 5.76688 5.76393C5.76928 5.78457 5.77288 5.81489 5.77288 5.81489C5.78518 5.80894 5.79629 5.80081 5.80568 5.79089C5.81176 5.81761 5.7996 5.86001 5.80568 5.89041C5.80943 5.9089 5.81554 5.92684 5.82384 5.94377C5.82561 5.93962 5.82764 5.93559 5.82992 5.93169C5.83232 5.92561 5.85392 5.99721 5.91368 6.05169C5.91363 6.04332 5.91569 6.03506 5.91968 6.02769C5.9206 6.04291 5.92563 6.05759 5.93424 6.07017C5.92977 6.06804 5.92569 6.06518 5.92216 6.06169C5.92216 6.06169 5.92816 6.25369 5.96096 6.35297C5.96644 6.34656 5.97132 6.33965 5.97552 6.33233C5.97552 6.32633 5.97312 6.38577 5.96704 6.42833C5.95856 6.47081 5.96464 6.53025 5.96464 6.53025C5.98652 6.51303 6.01057 6.49875 6.03616 6.48777C6.07256 6.47313 6.13216 6.42825 6.16848 6.32873C6.18955 6.27237 6.2058 6.21432 6.21704 6.15521C6.22878 6.1778 6.23688 6.2021 6.24104 6.22721C6.24352 6.25753 6.30056 6.24177 6.30056 6.24177L6.31272 6.10945L6.38472 5.80969L6.45024 5.62401L6.76576 5.13257L7.33584 4.69353L7.83344 4.80761L8.25328 4.23721L7.53 3.80273L6.84552 3.87433L6.22432 4.73473L5.7268 5.51513L5.63696 5.64377V5.64385Z" fill="#D8B65B"/>
<path fill-rule="evenodd" clip-rule="evenodd" d="M9.22198 4.39856C9.22198 4.39856 9.1795 4.40704 9.05693 4.47056C8.93437 4.53408 8.84941 4.55424 8.80205 4.64768C8.75469 4.74112 8.75109 4.8152 8.75109 4.8152C8.75109 4.8152 8.83485 4.7788 8.88341 4.76664C8.93437 4.75456 8.99141 4.75816 8.98533 4.7788C8.9795 4.79295 8.97139 4.80606 8.96133 4.8176C8.96133 4.8176 9.05733 4.8152 9.05477 4.86256C9.05221 4.90992 9.03661 4.96208 9.01845 4.98512C9.00021 5.00913 8.92501 5.04465 8.91653 5.07257C8.89589 5.12961 8.92501 5.13201 8.91405 5.17809C8.90557 5.22305 8.86557 5.31041 8.73445 5.46329C8.59973 5.61625 8.54245 5.72425 8.54245 5.72425C8.54245 5.72425 8.47693 5.60169 8.44293 5.49609C8.41893 5.50817 8.29005 5.57977 8.29005 5.57977L7.99148 4.53976L7.99748 4.47056C7.99748 4.47056 8.0242 4.43784 8.03028 4.37712C7.9854 4.36256 7.97932 4.3504 7.9198 4.29344C7.86028 4.23648 7.8118 4.16719 7.71236 4.11983C7.6978 4.09311 7.67956 4.05679 7.60676 4.04215C7.53396 4.02751 7.49028 4.01551 7.49028 4.01551C7.49028 4.01551 7.52908 4.00087 7.54732 3.97055C7.50236 3.97663 7.46604 3.99119 7.36772 3.98879C7.2682 3.98631 7.25724 3.98271 7.20267 3.99119C7.14811 3.99967 7.08267 4.02399 7.05827 3.94023C7.03155 3.91959 6.97451 3.93783 6.92595 4.00935C6.87739 4.08087 6.86043 4.13799 6.76699 4.16591C6.76042 4.2071 6.746 4.24665 6.72451 4.2824C6.69779 4.32736 6.65531 4.37224 6.59827 4.43896C6.50843 4.54456 6.52299 4.71808 6.37979 4.8504C6.23538 4.98264 6.40379 4.48384 6.40379 4.48384L6.63435 3.93183L7.29092 3.28982L8.31037 3.2207L8.40989 3.74871L8.90749 3.91983L9.22182 4.3992L9.22198 4.39856Z" fill="#D3AE4D"/>
<path fill-rule="evenodd" clip-rule="evenodd" d="M9.38348 4.51406L8.9551 3.89639L8.65535 3.66575C8.65535 3.66575 8.44176 3.27264 8.4272 3.26048C8.41504 3.252 8.21361 3.23016 8.08498 3.22168L8.10898 3.28112C8.13705 3.29024 8.162 3.30706 8.18097 3.32968C8.23801 3.3952 8.27441 3.51895 8.14457 3.65127C8.19553 3.66943 8.21657 3.67527 8.26105 3.66943C8.21617 3.72287 8.11426 3.83695 8.10818 3.93647C8.1021 4.01774 8.15305 4.04198 8.15305 4.04198C8.15305 4.04198 8.07538 4.13182 8.07178 4.28198C8.10846 4.24061 8.1486 4.20245 8.19177 4.1679C8.28161 4.0959 8.40536 4.01494 8.48912 3.96399C8.48798 3.98537 8.49085 4.00678 8.4976 4.0271C8.4976 4.0271 8.65407 3.89847 8.78559 3.95551C8.84502 3.98223 8.81831 4.06598 8.81831 4.06598C8.81831 4.06598 8.89966 4.03566 8.9567 4.0927C9.01374 4.14974 9.09501 4.29654 9.13629 4.35366C9.15445 4.38038 9.20181 4.43134 9.25029 4.51014C9.31653 4.62059 9.37183 4.73725 9.4154 4.85845C9.4178 4.80989 9.42756 4.74197 9.5114 4.74197L9.38396 4.51382L9.38348 4.51406Z" fill="#CAA13E"/>
<path fill-rule="evenodd" clip-rule="evenodd" d="M2.96123 6.26977C2.96123 6.26977 2.93091 6.19448 2.96123 6.04769C2.99155 5.90088 3.03891 5.83169 3.05467 5.61568C3.07043 5.39969 3.21123 5.13025 3.21123 5.13025L3.60074 4.95312L3.87626 5.02833L3.95754 5.39729L3.60922 5.58929C3.60922 5.58929 3.59106 5.67056 3.49275 5.73608C3.39443 5.8016 3.25851 5.85257 3.22579 5.91937C3.20623 5.96027 3.19195 6.0035 3.18331 6.04801C3.18331 6.04801 3.08379 6.02737 3.02435 6.09289C2.96123 6.15969 2.96363 6.21912 2.96123 6.27008V6.26977Z" fill="#F4EFC8"/>
<path fill-rule="evenodd" clip-rule="evenodd" d="M3.74757 6.17089C3.74757 6.17089 3.71477 6.19153 3.69053 6.24289C3.66653 6.20409 3.60917 5.97346 3.60677 5.76594C3.60437 5.55842 3.59197 5.50698 3.63997 5.43546C3.68797 5.36394 3.87621 5.28858 3.84949 5.15979C3.82277 5.03723 3.71109 4.98627 3.57397 5.02147C3.47797 5.04547 3.40653 5.24962 3.30701 5.35154C3.23173 5.42922 3.14197 5.41706 3.11773 5.45954C3.08493 5.51658 3.11525 5.57362 3.10557 5.61002C3.10309 5.62218 3.07277 5.6877 3.01813 5.76658C2.90773 5.92554 2.72085 6.15009 2.69653 6.35153C2.70501 6.23745 2.69901 6.23505 2.72933 6.10881L2.71109 6.07849L2.83109 5.6853L2.90877 5.3613L3.08237 4.81875L3.38813 4.2642L3.68549 3.93164L3.99493 3.95228L4.03133 4.41707L4.20853 5.2897L4.58109 5.74842L3.98397 6.15025L3.74733 6.17089H3.74757Z" fill="#EBCC73"/>
<path fill-rule="evenodd" clip-rule="evenodd" d="M3.93315 6.33575C3.93315 6.33575 3.88219 6.34791 3.86395 6.33823C3.84571 6.32855 3.82763 6.31759 3.83363 6.30543C3.83963 6.29327 3.87243 6.27271 3.87243 6.26295C3.8731 6.25413 3.87031 6.24539 3.86465 6.23859C3.85899 6.2318 3.85091 6.22748 3.84211 6.22654C3.81419 6.22294 3.80571 6.2411 3.80571 6.2411C3.80571 6.2411 3.77899 6.22054 3.75723 6.2171C3.7701 6.21553 3.78306 6.2147 3.79603 6.21462C3.76249 6.19943 3.72692 6.18922 3.69043 6.1843C3.72075 6.16614 3.78027 6.1127 3.81907 6.1127C3.85787 6.1127 3.88219 6.1067 3.87611 6.08606C3.87003 6.06542 3.83971 6.0351 3.80699 6.02294C3.81907 6.00837 3.82763 5.98653 3.79851 5.92693C3.76811 5.86749 3.78027 5.82741 3.79003 5.81293C3.79851 5.79469 3.82883 5.76196 3.84339 5.74132C3.85795 5.72068 3.87011 5.69276 3.89435 5.6782C3.90651 5.66972 3.94531 5.6542 3.98419 5.6394C4.02667 5.62484 4.06187 5.6066 4.08611 5.62484C4.11283 5.643 4.10067 5.66732 4.10067 5.66732C4.10067 5.66732 4.18443 5.63692 4.25963 5.6758C4.33491 5.71212 4.51819 5.73524 4.51819 5.73524L4.58387 5.86757L4.14939 6.24014L3.96979 6.32999L3.93339 6.33599L3.93315 6.33575Z" fill="#E5C66B"/>
<path fill-rule="evenodd" clip-rule="evenodd" d="M4.53653 5.72652C4.53653 5.72652 4.40181 5.81636 4.37149 5.84908C4.38965 5.85156 4.41997 5.86372 4.40781 5.88188C4.39325 5.90004 4.30589 5.96316 4.25733 6.02268C4.20637 6.08212 4.15781 6.1574 4.14085 6.1938C4.12269 6.22652 3.98429 6.32244 3.93701 6.33452C4.03653 6.33452 4.23677 6.21196 4.31197 6.21196C4.30957 6.24836 4.33261 6.28964 4.37509 6.29324C4.41757 6.29684 4.54013 6.31996 4.70517 6.21804C4.87021 6.11852 4.81565 6.04444 4.88477 5.99596C5.01709 5.90852 5.07045 5.83084 5.14325 5.78236C5.21605 5.73388 5.25373 5.72284 5.25373 5.72284C5.25373 5.72284 5.25613 5.68644 5.27773 5.69012C5.28364 5.69079 5.28926 5.69308 5.29397 5.69671C5.29868 5.70035 5.3023 5.70521 5.30445 5.71076C5.30445 5.71076 5.43069 5.62092 5.59245 5.59668C5.58868 5.59499 5.58566 5.59197 5.58397 5.5882C5.58397 5.5882 5.59605 5.58212 5.59853 5.57604C5.59853 5.57604 5.60701 5.56388 5.61309 5.56996C5.61917 5.57604 5.62765 5.62092 5.63981 5.63916C5.66653 5.627 5.71749 5.51292 5.71749 5.51292L5.84013 5.1622V4.8418L5.74413 4.86004L5.02413 5.1658L4.58717 5.61852L4.53621 5.72652H4.53653Z" fill="#E6BD62"/>
<path fill-rule="evenodd" clip-rule="evenodd" d="M6.60901 4.15514C6.64795 4.14569 6.68529 4.13054 6.71981 4.11018C6.70525 4.14906 6.70525 4.19154 6.64213 4.28378C6.57901 4.37603 6.57661 4.38939 6.52565 4.48523C6.47469 4.58475 6.46861 4.72795 6.42005 4.79099C6.44181 4.78042 6.46516 4.77347 6.48917 4.77043C6.48917 4.77043 6.44069 4.81291 6.42005 4.85779C6.39941 4.90268 6.36301 4.99612 6.27325 5.05324C6.18349 5.11036 6.06933 5.14668 5.94677 5.2814C5.82413 5.41364 5.69797 5.58117 5.63477 5.64141C5.66757 5.58437 5.71245 5.47029 5.72461 5.39508C5.73677 5.31988 5.72213 5.22996 5.74277 5.13052C5.76341 5.03108 5.76341 4.9594 5.86277 4.78579C5.96213 4.61219 6.13221 4.00906 6.13221 4.00906L6.49869 3.89258L6.60917 4.15474L6.60901 4.15514Z" fill="#B6933F"/>
<path fill-rule="evenodd" clip-rule="evenodd" d="M6.3448 3.9335C6.3448 3.9335 6.2344 4.09246 6.20408 4.23326C6.17376 4.37406 6.2016 4.3619 6.18344 4.4311C6.17258 4.47329 6.17258 4.51754 6.18344 4.55974C6.22167 4.49814 6.27402 4.44653 6.33616 4.40918C6.44056 4.34614 6.52551 4.30118 6.57615 4.24782C6.62711 4.19078 6.66959 4.09734 6.77999 4.02574C6.73511 4.01966 6.67199 3.99902 6.65999 4.00174C6.70495 3.95078 6.83959 3.8731 6.97551 3.77966C7.11023 3.68366 7.10175 3.64494 7.32023 3.5491C7.24863 3.56126 7.21463 3.54302 7.15511 3.5491C7.17911 3.49814 7.26311 3.47382 7.3471 3.39014C7.4311 3.30646 7.29375 3.18262 7.29375 3.18262L6.65375 3.56974L6.34432 3.93382L6.3448 3.9335Z" fill="#C49937"/>
<path fill-rule="evenodd" clip-rule="evenodd" d="M4.60791 3.64422L4.62247 3.52774L4.80575 3.23406L4.99751 2.7183V2.01318L4.98295 1.60542L5.01327 1.33838L5.03631 1.2535L5.06063 1.2207L5.21711 1.30198L5.43319 1.59566L5.45383 2.16246L5.24383 3.05686L4.64431 3.71102L4.60791 3.64422Z" fill="#DFC068"/>
<path fill-rule="evenodd" clip-rule="evenodd" d="M5.08504 1.18855C5.08504 1.18855 4.98904 1.19103 4.96856 1.59031C4.94808 1.98959 4.93816 2.19951 4.9236 2.39735C4.90904 2.59519 4.87512 2.71527 4.85808 2.83183C4.84104 2.94839 4.83136 3.10727 4.7768 3.20439C4.7528 3.24927 4.70153 3.39007 4.58137 3.49567C4.44665 3.61215 4.24537 3.69351 4.21489 3.69959C4.16145 3.71167 3.89082 3.73839 3.78042 3.79911C3.74162 3.81975 3.67482 3.84399 3.60082 3.91319C3.45394 4.04543 3.25858 4.28207 3.11779 4.56727C2.90179 4.99327 2.68579 6.19591 2.68579 6.19591L2.73435 6.11463C2.73435 6.11463 2.74043 6.00663 2.84843 5.81727C2.95403 5.62799 2.92371 5.41559 3.07051 5.05271C3.12755 4.91439 3.19914 4.73479 3.2865 4.58183C3.4249 4.33303 3.59234 4.11943 3.76106 4.00295C4.03649 3.81367 4.33993 3.77239 4.33993 3.77239L4.66641 3.55639C4.66641 3.55639 4.72345 3.44599 4.79872 3.31975C4.90424 3.14263 5.03872 2.94479 5.06808 2.65719C5.11304 2.23119 5.00496 1.95207 5.01104 1.69967C5.01712 1.44727 5.01952 1.26159 5.07056 1.21663C5.1216 1.17167 5.08512 1.18871 5.08512 1.18871L5.08504 1.18855Z" fill="#A88F33"/>
<path fill-rule="evenodd" clip-rule="evenodd" d="M5.08488 3.09292C5.08488 3.09292 5.22888 2.73852 5.2948 2.4242C5.30696 2.36108 5.33121 2.29804 5.33729 2.24708C5.36761 1.94972 5.37609 1.82716 5.33729 1.66452C5.30696 1.54452 5.19048 1.43636 5.12976 1.35252C5.07032 1.26508 5.0424 1.23252 5.05456 1.21412C5.06672 1.19572 5.114 1.16564 5.16008 1.16924C5.20906 1.17067 5.25725 1.18204 5.3017 1.20267C5.34615 1.2233 5.38594 1.25275 5.41865 1.28924C5.51209 1.39724 5.5861 1.7638 5.5861 1.7638L5.66394 2.24748L5.86179 2.85668L5.08504 3.0934L5.08488 3.09292Z" fill="#C99E3D"/>
<path fill-rule="evenodd" clip-rule="evenodd" d="M6.43818 2.72469C6.43818 2.72469 6.41146 2.73677 6.36298 2.72469C6.36505 2.7445 6.36161 2.7645 6.35304 2.78248C6.34447 2.80046 6.33111 2.81573 6.31442 2.82661C6.26346 2.80597 5.78642 2.84725 5.78642 2.84725C5.78642 2.84725 5.56434 2.80837 5.49514 2.51469C5.44666 2.31925 5.53154 2.04989 5.50362 1.87269C5.46114 1.61173 5.4017 1.56069 5.39562 1.47949C5.38954 1.39829 5.38346 1.37757 5.38346 1.32661C5.35674 1.32053 5.34098 1.31205 5.31434 1.31205C5.30826 1.28805 5.32034 1.26709 5.2937 1.22461C5.30826 1.23069 5.40778 1.24285 5.52426 1.35325C5.62026 1.44309 5.62026 1.47581 5.63474 1.49405C5.6529 1.51221 5.79978 1.63805 5.8629 1.76349C5.92602 1.88893 6.04858 2.28893 6.0765 2.35445C6.08498 2.38117 6.10322 2.40789 6.1485 2.46853C6.2189 2.55597 6.32202 2.70053 6.4385 2.72453L6.43818 2.72469Z" fill="#B58634"/>
<path fill-rule="evenodd" clip-rule="evenodd" d="M5.65186 1.5C5.72537 1.61876 5.79142 1.74199 5.84962 1.86896C5.92122 2.03032 5.9637 2.16264 6.05354 2.27064C6.00498 2.12992 5.91882 1.8532 5.86786 1.75488C5.81082 1.65088 5.69434 1.53888 5.65186 1.50008V1.5Z" fill="#A88F33"/>
<path fill-rule="evenodd" clip-rule="evenodd" d="M4.82654 3.4952C4.82654 3.4952 4.70397 3.52552 4.47581 3.64568C4.40053 3.68448 4.32901 3.7172 4.25981 3.7476C4.08005 3.82888 3.88725 3.904 3.73428 3.94544C3.74644 3.96 3.75244 3.966 3.75244 3.966C3.75244 3.966 3.75244 4.02552 3.78524 4.05944C3.76708 4.07768 3.52428 4.24272 3.59596 4.79488C3.64444 4.77672 3.70148 4.7524 3.70996 4.7524C3.7246 4.75488 3.7282 4.79488 3.74636 4.79488C3.76452 4.79488 3.82405 4.77088 3.88717 4.68928C3.88477 4.72208 3.84837 5.05216 4.04373 5.27424C4.08013 5.23176 4.17237 5.09096 4.17237 5.09096L4.17477 5.04608C4.17477 5.04608 4.18325 4.88952 4.23429 4.74632C4.28533 4.60312 4.38477 4.49752 4.38477 4.49752L4.90406 3.756L4.82638 3.49512L4.82654 3.4952Z" fill="#E6C367"/>
<path fill-rule="evenodd" clip-rule="evenodd" d="M4.34103 4.58406C4.31725 4.60086 4.29106 4.61394 4.26335 4.62286C4.25487 4.59254 4.24271 4.48814 4.31431 4.38622C4.39807 4.26358 4.58127 4.10463 4.63223 3.97823C4.66503 3.89687 4.65047 3.69303 4.94175 3.43208C5.23303 3.17112 5.34703 3.08136 5.34703 3.08136L5.81791 2.84473L6.39679 3.07288L6.10919 4.20007L5.88591 4.72806L4.99791 4.56062L4.34095 4.58406H4.34103Z" fill="#DCBA5A"/>
<path fill-rule="evenodd" clip-rule="evenodd" d="M4.67993 4.27739L4.79041 4.13907V4.04076C4.79041 4.04076 4.91297 4.00796 5.04522 3.87324C5.17746 3.73852 5.36074 3.48005 5.52218 3.49581C5.68363 3.51405 5.69939 3.84652 5.70547 3.94004C5.71155 4.03356 5.73219 4.24579 5.76491 4.35995C5.80131 4.47403 5.3717 4.90602 5.3717 4.90602L5.07994 5.1281L4.67993 4.27739Z" fill="#E9CE77"/>
<path fill-rule="evenodd" clip-rule="evenodd" d="M5.02173 5.4292C5.02173 5.4292 5.11156 5.2884 5.04573 5.25808C5.08453 5.17072 5.15612 5.07848 5.15612 5.07848C5.15612 5.07848 5.20708 4.95232 5.37211 4.79696C5.53715 4.6416 5.63914 4.5384 5.66586 4.43408C5.68233 4.3661 5.69129 4.29651 5.69258 4.22656C5.71042 4.24114 5.72951 4.25412 5.74962 4.26536C5.77634 4.27752 5.90249 4.38184 5.88433 4.59184C5.86617 4.80184 5.78833 4.8892 5.78833 4.8892C5.78833 4.8892 5.71314 4.9644 5.65978 5.00328C5.60266 5.04208 5.5821 5.08696 5.48619 5.09064C5.49605 5.0828 5.50713 5.07664 5.51899 5.0724C5.51899 5.0724 5.41947 5.06032 5.36603 5.1088C5.3126 5.15728 5.199 5.30664 5.14196 5.3516C5.08493 5.388 5.02197 5.42928 5.02197 5.42928L5.02173 5.4292Z" fill="#CDAE50"/>
<path fill-rule="evenodd" clip-rule="evenodd" d="M9.05707 3.06961C8.91369 3.01736 8.76302 2.98788 8.61052 2.98225C8.35564 2.97377 7.98309 2.98833 7.61782 2.99073C7.22462 2.99313 6.86783 2.85601 6.37272 2.83177C6.29144 2.78321 6.08472 2.5708 5.43945 3.02105C5.47825 3.01865 5.90793 2.92153 6.05712 3.10849C6.2076 3.29417 6.16512 3.6097 6.14456 3.6849C6.10568 3.85242 5.97944 4.09635 5.92856 4.26747C5.87769 4.43859 5.88969 4.52851 5.85329 4.64851C5.81689 4.76851 5.73681 4.82812 5.78409 4.96644C5.84721 4.92764 5.88009 4.92764 5.98552 4.69099C6.09096 4.45435 6.06928 4.28563 6.24408 4.08539C6.4152 3.88394 6.70007 3.60842 6.80839 3.53922C6.91671 3.47002 7.77677 3.02345 8.67732 3.44946C8.89452 3.42642 9.05715 3.06953 9.05715 3.06953L9.05707 3.06961Z" fill="#D2A83E"/>
<path fill-rule="evenodd" clip-rule="evenodd" d="M5.80208 2.90413C5.80119 2.89501 5.79917 2.88604 5.79608 2.87741C5.78766 2.85967 5.7766 2.8433 5.76328 2.82886C5.76328 2.82886 5.54968 2.79006 5.44169 2.80214C5.25233 2.82278 5.08121 3.05701 5.00113 3.17717C4.92105 3.29733 4.82153 3.48292 4.71354 3.57884C4.71472 3.5695 4.71257 3.56003 4.70746 3.55212C4.70746 3.55212 4.71354 3.5606 4.70146 3.57276C4.68938 3.58492 4.6893 3.59092 4.69538 3.59676L4.71362 3.61492C4.71962 3.61492 4.88713 3.53964 5.11529 3.32693C5.35801 3.10485 5.54368 2.99093 5.6408 2.95189C5.6926 2.92988 5.74673 2.91386 5.80216 2.90413H5.80208Z" fill="#C29637"/>
<path fill-rule="evenodd" clip-rule="evenodd" d="M9.94547 1.99121C9.94547 1.99121 9.90659 2.03969 9.85803 2.09313C9.75003 2.20721 9.60923 2.33577 9.48907 2.46809C9.37507 2.59434 9.24643 2.69266 9.10195 2.8577C8.95747 3.02274 8.78994 3.20594 8.74754 3.25938C8.70874 3.31282 8.67843 3.40018 8.67843 3.44506C8.65779 3.4305 8.63354 3.41474 8.63354 3.41474C8.64375 3.4338 8.65595 3.45171 8.66995 3.46818C8.70027 3.51066 8.74755 3.56418 8.77187 3.59682C8.8017 3.63838 8.82312 3.68537 8.83491 3.73515C8.84947 3.73755 8.94291 3.75579 9.05947 3.56402C9.17603 3.37226 9.32883 3.16234 9.32883 3.16234L9.57155 2.80186L9.72451 2.4961L9.91651 2.15385L9.94571 1.99121H9.94547Z" fill="#AC8132"/>
<path fill-rule="evenodd" clip-rule="evenodd" d="M10.1943 1.74707C10.1943 1.74707 10.0474 1.86707 9.99034 1.93908C9.9333 2.01108 9.79834 2.20005 9.79834 2.20005L9.8469 2.19397L10.0933 1.97556L10.1893 1.80443L10.1942 1.74739L10.1943 1.74707Z" fill="#A88F33"/>
<path fill-rule="evenodd" clip-rule="evenodd" d="M10.1491 11.3903C10.1491 11.3903 10.1467 11.2908 10.2025 11.2313C10.2596 11.1718 10.404 11.0844 10.5448 10.7568C10.6856 10.4291 10.7012 10.3551 10.7012 10.3551C10.7012 10.3551 10.4488 10.5711 10.2932 10.622C10.3296 10.5468 10.3503 10.4934 10.3685 10.4545C10.3479 10.4364 10.2605 10.4157 10.252 10.406C10.3005 10.3575 10.3272 10.2385 10.4256 10.1596C10.5518 10.0636 10.7824 9.89869 10.9616 9.75165C11.1408 9.60461 11.4931 9.26261 11.538 9.16309C11.5648 9.20189 11.5708 9.22613 11.5708 9.22613C11.5708 9.22613 11.3936 9.45677 11.3014 9.60357C11.22 9.72981 11.2261 9.80141 11.2261 9.80141L11.3936 9.72941C11.3936 9.72941 11.4421 9.90901 11.2225 10.1821C11.3185 10.1457 11.3572 10.1676 11.4118 10.1372C11.322 10.1943 11.1982 10.272 11.0817 10.4855C10.9676 10.6991 10.8123 10.9479 10.5502 11.1032C10.2953 11.267 10.1484 11.3896 10.1484 11.3896L10.1491 11.3903Z" fill="#A67A2E"/>
<path fill-rule="evenodd" clip-rule="evenodd" d="M9.49147 3.19522C9.49147 3.19522 9.39195 3.40265 9.37739 3.56409C9.37499 3.60297 9.36523 3.63329 9.36523 3.67817C9.36283 3.82257 9.37371 3.984 9.34123 4.0592C9.32907 4.02888 9.32299 4.00824 9.31083 3.99616C9.29268 4.04712 9.25988 4.20608 9.23316 4.26552C9.22108 4.22672 9.19436 4.092 9.19684 3.93304C9.19932 3.77409 9.20284 3.74369 9.20284 3.71097C9.19684 3.75945 9.16404 3.82505 9.15188 3.86385C9.13372 3.83113 9.11308 3.78865 9.08877 3.75345C9.07421 3.77745 9.05605 3.81289 9.04029 3.83113C9.03781 3.81657 9.03181 3.77769 9.02813 3.72313C9.02573 3.66001 9.02205 3.57873 9.02573 3.56169C9.03173 3.52897 9.08277 3.40033 9.19076 3.28257C9.31939 3.14178 9.45171 2.87122 9.49051 2.78746C9.5293 2.7037 9.69434 2.35547 9.69434 2.35547H9.82057L9.6373 2.7729C9.6373 2.7729 9.5269 3.00106 9.46987 3.0849C9.41283 3.16874 9.29268 3.40897 9.23924 3.50241C9.27804 3.45145 9.31083 3.42473 9.34971 3.37617C9.38731 3.34217 9.49163 3.19538 9.49163 3.19538L9.49147 3.19522Z" fill="#8C6228"/>
<path fill-rule="evenodd" clip-rule="evenodd" d="M10.1968 1.73047C10.1762 1.79394 10.1436 1.85286 10.1008 1.90407C10.0256 1.99391 9.86413 2.11399 9.78534 2.20983C9.71334 2.30327 9.56935 2.55815 9.63479 2.86031C9.65879 2.79479 9.70398 2.66495 9.82414 2.51807C9.94429 2.37119 10.0729 2.20255 10.1361 2.07151C10.1992 1.93919 10.2076 1.83487 10.2076 1.83487L10.2316 1.80455L10.2171 1.73535L10.1964 1.73047H10.1968Z" fill="#CBA94C"/>
<path fill-rule="evenodd" clip-rule="evenodd" d="M12.6545 9.78044C12.6545 9.78044 12.6059 9.6482 12.5914 9.52804C12.5768 9.40788 12.6154 9.38404 12.5707 9.24652C12.544 9.16276 12.4955 9.17452 12.4834 9.16276C12.4712 9.151 12.4627 9.02444 12.4651 8.95524C12.4675 8.88604 12.4627 8.79628 12.4506 8.7574C12.4324 8.74284 12.4203 8.73068 12.3935 8.64092C12.3632 8.55108 12.3487 8.5062 12.3341 8.47956C12.3195 8.45292 12.277 8.4286 12.277 8.40188C12.277 8.34844 12.3255 8.3206 12.3255 8.30588C12.3231 8.27556 12.2867 8.29988 12.277 8.29132C12.2649 8.27676 12.3074 8.1894 12.2916 8.17724C12.2855 8.17124 12.2431 8.2222 12.2321 8.20764C12.2199 8.193 12.2054 8.0486 12.1835 7.95276C12.163 7.85932 12.1411 7.7914 12.1387 7.76348C12.1363 7.73676 11.9711 7.26588 11.9311 7.1518C11.8989 7.0554 11.8718 6.95737 11.8499 6.85812C11.8377 6.80108 11.8292 6.68452 11.8231 6.69668C11.8171 6.70884 11.8207 6.76828 11.811 6.76588C11.8025 6.7634 11.7722 6.55596 11.7625 6.52316C11.754 6.49036 11.703 6.37916 11.6905 6.29868C11.6783 6.21732 11.6517 6.00492 11.6335 5.86052C11.6152 5.71612 11.6067 5.65668 11.6067 5.62052C11.6097 5.53207 11.6048 5.44354 11.5922 5.35596C11.5682 5.203 11.5202 5.01732 11.4781 4.9094C11.3968 4.70548 11.1807 4.18364 11.1421 4.0538C11.1421 4.021 11.1846 4.03924 11.1846 4.03924C11.1846 4.03924 11.2901 4.3038 11.3678 4.50764C11.4431 4.71156 11.5147 4.89116 11.5329 4.9094C11.5475 4.92756 11.6615 5.1278 11.7125 5.45548C11.7635 5.78316 11.7816 6.08532 11.812 6.28676C11.8266 6.38276 11.8387 6.4846 11.8691 6.58652C11.9018 6.697 11.9527 6.81108 12.0195 6.9858C12.0766 7.13268 12.1191 7.25524 12.1421 7.36084C12.1688 7.49556 12.1688 7.59748 12.1846 7.66428C12.1992 7.72132 12.221 7.83532 12.272 8.00028C12.3231 8.16524 12.3982 8.37772 12.4491 8.50996C12.5487 8.77452 12.5931 8.9954 12.6082 9.11316C12.6215 9.23452 12.6664 9.65444 12.6543 9.7806L12.6545 9.78044Z" fill="#A88F33"/>
<path fill-rule="evenodd" clip-rule="evenodd" d="M10.2028 1.7161L10.1967 1.73066C10.1967 1.73066 10.2148 1.73674 10.2112 1.76106C10.2115 1.79434 10.2095 1.82759 10.2052 1.86058C10.1992 1.90306 10.187 1.93578 10.1846 1.9625C10.1846 2.01954 10.1931 2.08507 10.1126 2.24771C10.0886 2.29259 10.0738 2.33139 10.0617 2.35811C10.0313 2.42363 10.0253 2.43339 9.99854 2.46371C10.041 2.43971 10.194 2.34371 10.2716 2.35811C10.2182 2.38843 10.1368 2.44795 10.0859 2.52563C10.098 2.52803 10.149 2.53779 10.2299 2.52563C10.3646 2.50499 10.5151 2.45643 10.6473 2.46611C10.7918 2.47459 10.7347 2.29259 10.7347 2.29259L10.568 1.9261L10.2525 1.7041L10.2028 1.71618V1.7161Z" fill="#BE9C44"/>
<path fill-rule="evenodd" clip-rule="evenodd" d="M11.0255 4.46115C11.0255 4.46115 10.8847 4.32035 10.8276 3.83715C10.7706 3.35171 10.7827 2.63715 10.7827 2.63715L10.6687 2.35803C10.6687 2.35803 10.6447 2.17235 10.5849 2.10323C10.5251 2.03411 10.4078 1.91755 10.3543 1.86051C10.3009 1.80347 10.2403 1.72579 10.2039 1.71363C10.222 1.68331 10.3034 1.51219 10.6152 1.50979C10.9271 1.50739 11.0232 1.68091 11.0558 1.74403C11.0883 1.80715 11.2354 2.08003 11.2899 2.60003C11.3409 3.11939 11.3434 3.15827 11.3349 3.33787C11.3288 3.43739 11.296 3.66795 11.2389 3.91427C11.1867 4.12307 11.1297 4.35611 11.0253 4.46163L11.0255 4.46115Z" fill="#A17C34"/>
<path fill-rule="evenodd" clip-rule="evenodd" d="M10.584 4.87522C10.6309 4.8786 10.6778 4.86803 10.7188 4.84482C10.7636 4.84242 10.9263 4.86306 11.0513 4.7041C11.0597 4.74042 11.0817 4.83882 11.0245 4.92618C11.0549 4.89578 11.0998 4.8837 11.1059 4.87522C11.1083 4.9201 11.1508 5.05842 10.9712 5.39457C11.0197 5.34121 11.0767 5.34361 11.1277 5.33753C11.1302 5.40065 11.1641 5.61297 11.0743 5.72713C11.0149 5.80481 10.9177 5.78049 10.9177 5.78049C10.9192 5.76353 10.9192 5.74648 10.9177 5.72953C10.9153 5.69673 10.9032 5.66401 10.9117 5.64217C10.8648 5.62073 10.822 5.59113 10.7855 5.55473C10.6799 5.45521 10.5427 5.28537 10.5331 5.15914C10.5209 5.01834 10.6471 4.98802 10.6471 4.98802C10.6366 4.97856 10.6275 4.96749 10.6204 4.95522C10.6143 4.93466 10.6083 4.90186 10.584 4.87522Z" fill="#8C6228"/>
<path fill-rule="evenodd" clip-rule="evenodd" d="M9.64817 3.34821C9.64817 3.34821 9.64209 3.33973 9.60938 3.37853C9.61545 3.33973 9.62153 3.30325 9.62393 3.26805C9.63942 3.23546 9.65946 3.20523 9.68345 3.17829C9.66521 3.21461 9.65305 3.24741 9.65305 3.24741C9.65305 3.24741 9.69801 3.16365 9.76353 3.11269C9.80841 3.07629 9.86544 3.05933 9.88968 3.02533C9.9164 2.98893 9.91032 2.98285 9.9164 2.97677C9.9164 2.97677 9.97592 2.93797 10.067 2.82381C10.079 2.80925 10.0973 2.79349 10.1094 2.77893C10.13 2.77045 10.1786 2.74861 10.2356 2.71941C10.2951 2.68669 10.3618 2.64181 10.4031 2.62341C10.4844 2.58701 10.5706 2.59069 10.6106 2.53357C10.6409 2.52509 10.6736 2.43405 10.6676 2.35645C10.7125 2.37461 10.9431 2.51781 11.022 2.83093C11.0791 3.05301 10.9771 3.39525 10.9346 3.56037C10.8921 3.72549 10.8861 3.84797 10.8266 3.92317C10.7513 4.02277 10.5087 4.16317 10.4492 4.23269C10.3982 4.28973 10.2453 4.43413 10.2513 4.53845C10.2574 4.61613 10.3533 4.65845 10.374 4.67317C10.3947 4.68789 10.3945 4.70597 10.4334 4.69717C10.4723 4.68837 10.4868 4.67045 10.5026 4.67045C10.5208 4.67285 10.5208 4.67653 10.5293 4.67653C10.5354 4.67634 10.5415 4.67551 10.5475 4.67405C10.5475 4.67405 10.5414 4.78453 10.2829 4.81805C10.2647 4.82053 10.2465 4.82653 10.2234 4.83021C10.2538 4.81565 10.272 4.81565 10.3048 4.77077C10.2684 4.76469 10.164 4.75861 10.1373 4.75013C10.1458 4.73557 10.1737 4.69669 10.1967 4.67853C10.2173 4.66037 10.1943 4.65453 10.1762 4.66397C10.1449 4.68524 10.1149 4.70832 10.0863 4.73309C10.056 4.75981 10.0293 4.79621 9.98072 4.82909C9.96616 4.78053 9.96856 4.68829 10.0257 4.62157C10.011 4.62397 9.98312 4.66645 9.95648 4.65797C9.95166 4.6137 9.95453 4.56893 9.96496 4.52565C9.97952 4.47101 10.0584 4.37517 10.0584 4.37517L10.4394 3.69429L10.5207 3.17853L9.64817 3.34805V3.34821Z" fill="#92723A"/>
<path fill-rule="evenodd" clip-rule="evenodd" d="M9.62736 3.37733C9.62736 3.37733 9.60672 3.39189 9.648 3.41981C9.64192 3.42829 9.62736 3.45861 9.60912 3.47925C9.58855 3.50325 9.56663 3.51813 9.55815 3.53877C9.53999 3.58125 9.52543 3.61037 9.52543 3.62861C9.52543 3.64685 9.51935 3.76333 9.46838 3.83853C9.45014 3.86525 9.4295 3.91013 9.41494 3.94045C9.38462 3.99381 9.35789 4.03645 9.35181 4.06045C9.33973 4.10293 9.33125 4.21941 9.33125 4.21941C9.33125 4.21941 9.35797 4.18661 9.36765 4.17453C9.35301 4.20485 9.33725 4.23757 9.31421 4.26189C9.32877 4.24973 9.37125 4.21941 9.44286 4.15629C9.54239 4.07261 9.69777 3.93181 9.88714 3.82029C9.83002 3.84093 9.78153 3.84093 9.74273 3.84701C9.77305 3.81669 10.0461 3.49629 10.1893 3.46597C10.198 3.45494 10.2024 3.4411 10.2015 3.42709L10.0788 3.41501L9.83002 3.46837L9.79369 3.27637L9.62736 3.37709V3.37733Z" fill="#B18E3E"/>
<path fill-rule="evenodd" clip-rule="evenodd" d="M10.0231 4.4699C10.0231 4.4699 9.99028 4.50262 9.95996 4.58398C9.93661 4.5596 9.9166 4.53225 9.90044 4.50262C9.85556 4.42742 9.78644 4.3315 9.625 4.38614C9.6226 4.33518 9.61892 4.30846 9.625 4.27206C9.65172 4.26606 9.733 4.20054 9.81428 4.10462C9.8714 4.0391 9.92476 3.96382 9.96116 3.86798C9.98516 3.84974 10.0267 3.81942 10.0812 3.78422C10.1588 3.73086 10.2523 3.65798 10.2668 3.5767C10.2304 3.59126 10.1528 3.62766 10.0362 3.62166C10.0812 3.60102 10.1503 3.57918 10.1418 3.48934C10.16 3.47718 10.1746 3.4687 10.1746 3.4687C10.1609 3.46414 10.1465 3.46208 10.1321 3.46262C10.1296 3.45414 10.126 3.44206 10.1054 3.44806C10.0848 3.45406 10.0814 3.45414 10.0787 3.46262C10.0702 3.4651 10.0423 3.46262 10.0216 3.47726C10.001 3.4919 9.94396 3.5403 9.92212 3.54878C9.9306 3.53422 9.94267 3.51246 9.94267 3.51246C9.94267 3.51246 9.88323 3.51846 9.84075 3.53646C9.76307 3.56318 9.67332 3.61174 9.58228 3.65902C9.59076 3.64446 9.59444 3.63502 9.60044 3.6323C9.60644 3.62958 9.62108 3.6263 9.62108 3.62382C9.62108 3.62134 9.61507 3.59982 9.61867 3.5911C9.64589 3.53344 9.67801 3.47822 9.71467 3.42606C9.75715 3.36894 9.76563 3.28766 9.76563 3.28766L9.95132 3.19422L10.4732 3.07422L10.8118 3.09486L10.7693 3.3291L10.5693 3.73806L10.3982 4.11062L10.2028 4.33886L10.0232 4.4699H10.0231Z" fill="#543E26"/>
<path fill-rule="evenodd" clip-rule="evenodd" d="M10.869 3.45631C10.869 3.45631 10.6651 3.70871 10.6081 3.74759C10.6445 3.66991 10.869 3.20751 10.9503 3.07887C10.9322 3.06431 10.9078 3.06431 10.9649 2.83887C10.9164 2.95287 10.8994 3.01239 10.8594 3.04271C10.8194 3.07303 10.8144 3.06335 10.7874 3.06335C10.7925 3.05411 10.7946 3.04351 10.7934 3.03303C10.7934 3.03303 10.6222 3.01239 10.5053 3.01239C10.3885 3.01239 10.1571 3.07551 10.0284 3.12647C9.92644 3.16895 9.86939 3.16895 9.83299 3.19559C9.79659 3.22591 9.77595 3.25871 9.75771 3.26719C9.74315 3.27567 9.67402 3.29751 9.65818 3.32055C9.64362 3.34455 9.61938 3.37151 9.61938 3.37759C9.61938 3.38367 9.6133 3.39223 9.63154 3.38607C9.63754 3.38367 9.6825 3.35935 9.73347 3.32903C9.80259 3.29023 9.88635 3.24535 9.94708 3.21863C10.1206 3.14943 10.1752 3.16159 10.2528 3.14703C10.3341 3.13247 10.4507 3.09847 10.5283 3.09847C10.606 3.09607 10.7529 3.09847 10.7869 3.10455C10.7723 3.11671 10.7602 3.13127 10.7662 3.18223C10.7662 3.19679 10.7541 3.21255 10.7422 3.24775C10.7059 3.34727 10.6367 3.51231 10.5982 3.59607C10.5449 3.71007 10.4842 3.80599 10.4542 3.86543C10.4242 3.92487 10.3582 4.08143 10.2929 4.16519C10.2275 4.24895 10.1933 4.29991 10.1728 4.31815C10.1524 4.33639 10.0053 4.44431 10.0163 4.48319C10.043 4.47471 10.2117 4.41119 10.3342 4.27327C10.4567 4.13535 10.4811 4.05119 10.5769 3.97591C10.6728 3.90063 10.7481 3.77447 10.793 3.67015C10.8306 3.57303 10.8221 3.54271 10.8694 3.45655L10.869 3.45631Z" fill="#806031"/>
<path fill-rule="evenodd" clip-rule="evenodd" d="M6.47454 5.3393C6.47454 5.3393 6.44782 5.4497 6.38709 5.50434C6.32765 5.55778 6.22204 5.60386 6.20996 5.6937C6.1954 5.78346 6.31557 5.82842 6.31557 5.82842C6.31557 5.82842 6.24997 5.93642 6.24997 6.0177C6.24997 6.10146 6.24757 6.11722 6.25605 6.1973C6.24642 6.20349 6.23824 6.21168 6.23205 6.2213C6.23205 6.2213 6.23805 6.29898 6.29757 6.34746C6.35709 6.39594 6.40797 6.42514 6.4383 6.41298C6.44293 6.42288 6.44699 6.43303 6.45046 6.44338C6.45046 6.44338 6.49542 6.3293 6.52574 6.22978C6.55606 6.12786 6.58278 6.14234 6.59486 6.00522C6.60694 5.8681 6.73887 5.63266 6.73887 5.63266L6.82887 5.43146L6.68207 5.31738L6.47454 5.33922V5.3393Z" fill="#B6903C"/>
<path fill-rule="evenodd" clip-rule="evenodd" d="M6.74761 5.53711C6.71734 5.56819 6.68939 5.60145 6.66401 5.63663C6.62521 5.69007 6.59488 5.73855 6.53784 5.75927C6.4808 5.77999 6.4444 5.77983 6.448 5.83695C6.4516 5.89407 6.50504 5.91823 6.53536 5.94735C6.56816 5.97767 6.59488 6.02863 6.58032 6.08575C6.59848 6.07727 6.63129 6.06751 6.66161 6.00199C6.69193 5.93647 6.90402 5.53719 6.90402 5.53719H6.74761V5.53711Z" fill="#685026"/>
<path fill-rule="evenodd" clip-rule="evenodd" d="M7.58389 4.61669C7.58389 4.61669 7.60205 4.56821 7.58389 4.53301C7.56565 4.49661 7.45526 4.48445 7.40062 4.44317C7.34358 4.40069 7.27438 4.37117 7.21734 4.38981C7.22582 4.36917 7.25982 4.32421 7.2319 4.31453C7.20518 4.30605 7.10574 4.35093 7.07902 4.37157C7.0523 4.39221 6.99158 4.41645 6.9795 4.43109C6.96742 4.44573 6.9467 4.47357 6.93454 4.46141C6.92238 4.45293 6.91638 4.43109 6.89574 4.44317C6.8751 4.45525 6.77574 4.53661 6.75742 4.58397C6.7391 4.63133 6.6979 4.73692 6.57415 4.857C6.45039 4.97708 6.39695 5.05484 6.43335 5.09972C6.46975 5.1446 6.48679 5.11188 6.49287 5.15068C6.49754 5.18877 6.49549 5.22738 6.48679 5.26476C6.47223 5.32788 6.44799 5.38732 6.48071 5.39948C6.56447 5.4262 6.64583 5.37548 6.66399 5.391C6.70038 5.42372 6.64335 5.54148 6.7295 5.56451C6.81694 5.58851 6.9031 5.54388 6.9031 5.54388L7.22102 5.37276L7.52685 5.2114L7.68333 4.90188L7.59941 4.64341L7.58341 4.61669H7.58389Z" fill="#D4B968"/>
<path fill-rule="evenodd" clip-rule="evenodd" d="M7.28395 5.3556C7.28395 5.3556 7.23051 5.27432 7.29611 5.20264C7.3617 5.13097 7.45506 5.10073 7.49146 5.05585C7.48453 5.0473 7.47524 5.04098 7.46474 5.03769C7.4889 4.99445 7.52576 4.95968 7.57034 4.93809C7.55218 4.91993 7.52786 4.90537 7.50122 4.90537C7.4417 4.90537 7.40522 4.94177 7.35066 4.94177C7.29731 4.94177 7.29123 4.91505 7.29123 4.91505C7.29123 4.91505 7.38106 4.90657 7.3725 4.86649C7.36402 4.82401 7.3485 4.82401 7.3485 4.82401C7.3485 4.82401 7.52202 4.75201 7.55234 4.71361C7.58266 4.67521 7.57906 4.62985 7.58514 4.61169C7.60569 4.61169 7.72585 4.54857 7.77441 4.57529C7.82297 4.60201 7.78897 4.67481 7.78897 4.67481C7.78897 4.67481 7.93592 4.56433 8.0108 4.45601C8.07632 4.46209 8.10679 4.41113 8.15479 4.41113C8.21431 4.41113 8.30775 4.49241 8.32591 4.66593C8.33807 4.76545 8.35623 4.82249 8.33807 4.99849C8.32959 5.09801 8.33199 5.31048 8.36206 5.41592C8.38262 5.49968 8.43118 5.4912 8.43118 5.4912C8.42373 5.51672 8.40896 5.5395 8.3887 5.55672C8.3559 5.58704 8.35231 5.6672 8.35591 5.69752C8.36074 5.71969 8.36683 5.74156 8.37414 5.76304C8.37414 5.76304 8.33535 5.80792 8.32559 5.83832C8.31711 5.86864 8.27711 5.88928 8.24791 5.88928C8.21871 5.88928 8.23335 5.8868 8.19455 5.88928C8.15575 5.89176 8.14359 5.89776 8.11927 5.88928C8.09496 5.8808 8.0768 5.87104 8.08656 5.79328C8.09504 5.7156 7.78681 5.5348 7.78681 5.5348L7.28283 5.3552L7.28395 5.3556Z" fill="#CCA849"/>
<path fill-rule="evenodd" clip-rule="evenodd" d="M6.70499 6.12314C6.70499 6.12314 6.81539 6.27002 7.26932 6.27002C7.48532 6.27002 7.5606 6.24938 7.60532 6.23722C7.65388 6.22506 7.83588 6.15354 8.01916 5.93746C8.18421 5.7421 8.14781 5.66202 8.14781 5.66202L8.0518 5.64746L7.7398 5.68994L6.81659 6.08314L6.70459 6.12314H6.70499Z" fill="#585136"/>
<path fill-rule="evenodd" clip-rule="evenodd" d="M7.04359 6.15923C7.04359 6.15923 6.65039 6.24667 6.65039 5.99787C6.65039 5.75514 6.89311 5.50026 6.95383 5.45538C7.01695 5.41042 7.16743 5.35938 7.16743 5.35938H7.53031L7.59943 5.54266L7.56911 5.93827L7.04359 6.15915V6.15923Z" fill="#252211"/>
<path fill-rule="evenodd" clip-rule="evenodd" d="M7.40674 5.43291C7.40674 5.43291 7.33154 5.36372 7.16042 5.45691C6.98929 5.55011 6.85089 5.7449 6.84241 5.92177C6.83393 6.07824 6.97105 6.1948 7.18466 6.20088C7.34362 6.20688 7.43954 6.18872 7.4881 6.17688C7.47594 6.16232 7.41282 6.08344 7.41282 6.08344L7.40682 5.43299L7.40674 5.43291Z" fill="#C3B378"/>
<path fill-rule="evenodd" clip-rule="evenodd" d="M7.33246 5.47239C7.33246 5.47239 7.3143 5.45783 7.26046 5.48695C7.21558 5.51095 7.15006 5.57438 7.0991 5.61926C7.0663 5.64598 7.04566 5.65806 7.0271 5.6787C6.95183 5.76853 6.88871 5.9154 6.92519 5.9882C6.96167 6.06099 7.08174 6.14475 7.38758 6.08771L7.33158 5.47247L7.33246 5.47239Z" fill="#E6D89C"/>
<path fill-rule="evenodd" clip-rule="evenodd" d="M7.23298 5.62213C7.23298 5.62213 7.18442 5.6974 7.18442 5.81756C7.18442 5.94011 7.25362 6.13547 7.50849 6.15002C7.70384 6.16218 7.83487 5.86852 7.97686 5.75444C8.08486 5.66709 8.15037 5.66461 8.15037 5.66461C8.15037 5.66461 8.03998 5.54461 7.74512 5.38918C7.45385 5.23262 7.12739 5.21199 6.9502 5.4523C7.03395 5.44622 7.30458 5.37702 7.30458 5.37702L7.43689 5.4195L7.23298 5.62221V5.62213Z" fill="#252211"/>
<path fill-rule="evenodd" clip-rule="evenodd" d="M7.61412 5.78209C7.60564 5.76393 7.59956 5.73961 7.63475 5.73361C7.66994 5.72761 7.6857 5.73113 7.69785 5.75761C7.71001 5.78409 7.72184 5.80617 7.70385 5.81712C7.6857 5.8268 7.63835 5.81712 7.61404 5.78193L7.61412 5.78209ZM7.5571 5.61097C7.5571 5.61097 7.54494 5.61945 7.55102 5.60249C7.55342 5.58193 7.56925 5.54545 7.60804 5.55401C7.64683 5.56257 7.63843 5.60497 7.63203 5.61713C7.62563 5.62929 7.59324 5.64985 7.56893 5.64113C7.56585 5.64034 7.563 5.63884 7.56061 5.63674C7.55821 5.63464 7.55635 5.63201 7.55517 5.62906C7.55398 5.6261 7.55351 5.62291 7.55379 5.61974C7.55407 5.61657 7.55509 5.61351 7.55678 5.61081L7.5571 5.61097Z" fill="#6F674D"/>
<path fill-rule="evenodd" clip-rule="evenodd" d="M4.27197 5.6879C4.27197 5.6879 4.36797 5.7599 4.47949 5.7571C4.58989 5.75462 4.73189 5.64062 4.79741 5.56774C4.83621 5.52526 4.86941 5.48038 4.90541 5.44518C4.93581 5.41486 4.95637 5.4003 4.97093 5.37966C4.99157 5.35566 5.01341 5.31054 5.02437 5.2959C4.99765 5.31654 4.95885 5.35302 4.91877 5.37726C4.87997 5.40126 4.79621 5.44638 4.76221 5.45854C4.72949 5.4707 4.38965 5.65054 4.38965 5.65054L4.27197 5.6879Z" fill="#AC924C"/>
<path fill-rule="evenodd" clip-rule="evenodd" d="M4.4187 4.79145C4.4187 4.79145 4.47206 4.75505 4.57526 4.73193C4.67478 4.70793 4.87502 4.68945 4.87502 4.68945L5.04006 4.76145L5.10558 5.01025L4.98558 5.26881L4.8327 5.36481L4.6591 5.08569L4.4191 4.79193L4.4187 4.79145Z" fill="#9F8E57"/>
<path fill-rule="evenodd" clip-rule="evenodd" d="M4.20287 5.0138L4.14575 5.05644C4.14575 5.05644 4.16039 5.02972 4.17247 4.94844C4.18455 4.86717 4.24775 4.66934 4.33999 4.55526C4.43223 4.44119 4.42983 4.44727 4.42983 4.44727C4.42135 4.44571 4.41263 4.44599 4.40425 4.44807C4.39588 4.45015 4.38805 4.454 4.38127 4.45934C4.39343 4.43247 4.47111 4.33647 4.5488 4.28847C4.62648 4.24048 4.6568 4.22536 4.73808 4.26447C4.81936 4.30359 4.84 4.32391 4.89952 4.32151C4.95904 4.31911 5.00992 4.25599 5.00992 4.25599C5.00992 4.25599 5.02208 4.29479 4.9772 4.38463C4.93232 4.47446 4.75512 4.65766 4.75512 4.65766L4.38615 4.91004L4.20287 5.01404V5.0138Z" fill="#EAC970"/>
<path fill-rule="evenodd" clip-rule="evenodd" d="M4.47566 4.76041C4.47566 4.76041 4.7427 4.79681 4.82398 4.72161C4.82638 4.73009 4.83614 4.73009 4.83614 4.73617C4.83549 4.74075 4.83335 4.745 4.83006 4.74825C4.8389 4.74684 4.84783 4.74604 4.85678 4.74585C4.86747 4.74903 4.87846 4.75107 4.88958 4.75193C4.89854 4.75174 4.90747 4.75091 4.9163 4.74945C4.91546 4.75548 4.91341 4.76128 4.91028 4.76651C4.90714 4.77173 4.90299 4.77627 4.89806 4.77985C4.91022 4.77985 4.92206 4.78225 4.92206 4.79193C4.92206 4.80161 4.92446 4.83081 4.9099 4.83689C4.89784 4.84023 4.885 4.83935 4.8735 4.83441C4.87446 4.85739 4.88071 4.87983 4.89174 4.90001C4.91574 4.94489 4.96694 4.99601 5.03574 4.98129C5.03574 4.98129 5.07206 5.06865 4.91918 5.26281C4.89862 5.28953 4.8767 5.32593 4.85006 5.35625C4.83954 5.37919 4.83149 5.4032 4.82606 5.42785C4.82606 5.42785 5.08462 5.32833 5.15862 5.10137C5.2339 4.87321 5.24846 4.64873 5.2339 4.43881C5.23142 4.37929 5.22174 4.33689 5.20718 4.30649C5.17078 4.23121 5.06878 4.24337 5.02758 4.28585C4.96806 4.34537 4.86854 4.49337 4.73022 4.59529C4.58942 4.69721 4.58342 4.71529 4.47534 4.76041H4.47566Z" fill="#D7BC6B"/>
<path fill-rule="evenodd" clip-rule="evenodd" d="M4.15553 5.08811C4.15553 5.08811 4.10456 5.11843 4.07784 5.23211C4.05112 5.34859 4.10184 5.49059 4.1312 5.53547C4.16057 5.58035 4.22721 5.70299 4.36545 5.70907C4.39967 5.70889 4.43351 5.70187 4.46497 5.68843C4.51323 5.6663 4.5585 5.63815 4.5997 5.60467C4.65922 5.55979 4.7077 5.52099 4.70162 5.51731C4.68706 5.51123 4.33513 5.21995 4.33513 5.21995L4.20281 5.07227L4.15545 5.08827L4.15553 5.08811Z" fill="#585136"/>
<path fill-rule="evenodd" clip-rule="evenodd" d="M4.488 5.57187C4.488 5.57187 4.5596 5.56587 4.60209 5.53915C4.64457 5.51243 4.35327 5.22363 4.35327 5.22363L4.37391 5.53563L4.488 5.57187Z" fill="#453A25"/>
<path fill-rule="evenodd" clip-rule="evenodd" d="M4.17823 5.06702C4.17823 5.06702 4.14183 5.13622 4.14183 5.15446C4.13575 5.2139 4.15399 5.40078 4.16855 5.46022C4.18311 5.52334 4.26198 5.61918 4.36398 5.61918C4.42702 5.61918 4.51446 5.58038 4.51446 5.5707C4.51446 5.55854 4.42462 5.5467 4.40038 5.5015C4.38582 5.4775 4.37974 5.41782 4.37638 5.3575C4.37398 5.3187 4.37398 5.27622 4.38854 5.2615C4.42134 5.2251 4.42734 5.1207 4.42734 5.1207L4.54382 4.9043H4.39062L4.20735 5.01838L4.17823 5.06702Z" fill="#84754B"/>
<path fill-rule="evenodd" clip-rule="evenodd" d="M4.13354 5.13309C4.13354 5.13309 4.25354 4.97413 4.3617 4.93765C4.46985 4.90118 4.51825 4.9231 4.51825 4.9231L4.45513 5.08453L4.3653 5.18405L4.37138 5.23501C4.37138 5.23501 4.35674 5.36973 4.44657 5.46316C4.53641 5.5566 4.60313 5.553 4.642 5.553C4.68088 5.553 4.79248 5.5202 4.84952 5.38549C4.90047 5.25933 4.94295 5.09749 4.84104 4.93526C4.74144 4.77382 4.56553 4.76758 4.53153 4.76758C4.49753 4.76758 4.23058 4.78094 4.13354 5.13285V5.13309Z" fill="#252211"/>
<path fill-rule="evenodd" clip-rule="evenodd" d="M7.2149 5.67315C7.17002 5.65251 7.2125 5.52635 7.25738 5.48747C7.30226 5.44859 7.3593 5.40379 7.45891 5.39763C7.49523 5.39523 7.53043 5.41827 7.52443 5.44259C7.51595 5.48747 7.45283 5.55059 7.39578 5.59547C7.3169 5.65739 7.26586 5.69619 7.2149 5.67315Z" fill="#F7F7E7"/>
<path fill-rule="evenodd" clip-rule="evenodd" d="M4.78765 4.9855C4.82045 4.9831 4.86294 5.0095 4.87142 5.04503C4.8799 5.08383 4.85078 5.16151 4.78765 5.16151C4.73668 5.16151 4.70996 5.09839 4.70996 5.08023C4.71053 5.0653 4.71471 5.05072 4.72212 5.03775C4.72452 5.03407 4.7306 4.99158 4.78765 4.9855Z" fill="#F8F6DE"/>
<path fill-rule="evenodd" clip-rule="evenodd" d="M4.31431 5.01367C4.31431 5.01367 4.23055 5.05247 4.19175 5.13366C4.16403 5.19362 4.15564 5.26071 4.16775 5.32565C4.17383 5.35597 4.20415 5.43116 4.22479 5.45788C4.24543 5.4846 4.27335 5.50284 4.29399 5.50036C4.31463 5.49788 4.35703 5.44332 4.35703 5.4106C4.35703 5.37789 4.35951 5.2395 4.39951 5.16422C4.43471 5.08903 4.31455 5.01375 4.31455 5.01375L4.31431 5.01367Z" fill="#D4C38B"/>
<path fill-rule="evenodd" clip-rule="evenodd" d="M4.32646 5.00784C4.3119 5.01632 4.28766 5.02848 4.29366 5.04424C4.29974 5.0588 4.3507 5.06824 4.36894 5.10377C4.38958 5.14017 4.38958 5.17898 4.3835 5.19722C4.39935 5.18969 4.41374 5.17939 4.42598 5.16682C4.4527 5.13649 4.48542 5.09529 4.51334 5.09529C4.53158 5.09529 4.54974 5.10377 4.56678 5.10377C4.5935 5.10377 4.62014 5.09529 4.62382 5.06736C4.62982 5.03096 4.57286 4.99816 4.54006 5.00424C4.54614 4.98023 4.55462 4.94479 4.5279 4.92047C4.50118 4.89614 4.4175 4.93871 4.39926 4.95087C4.38102 4.96303 4.32646 5.00792 4.32646 5.00792V5.00784Z" fill="#E2D59D"/>
<path fill-rule="evenodd" clip-rule="evenodd" d="M6.25511 7.55695L6.43471 7.50391L6.48567 7.54031C6.48567 7.54031 6.52199 7.61799 6.57911 7.62767C6.56087 7.66647 6.51351 7.69967 6.51599 7.72719C6.51847 7.75471 6.54271 7.77575 6.54271 7.77575C6.54271 7.77575 6.38127 8.04271 6.69927 8.31175C6.62399 8.34207 6.52815 8.38375 6.47719 8.40775C6.51351 8.41623 6.59119 8.43175 6.62399 8.46119C6.65679 8.49063 6.65679 8.49999 6.68711 8.51823C6.71743 8.53647 6.73559 8.56071 6.72959 8.57159C6.70895 8.55943 6.63975 8.52311 6.62767 8.55703C6.61559 8.59095 6.32791 8.57767 6.32791 8.57767L5.84247 8.67111C5.84247 8.67111 5.86063 8.62255 5.80967 8.57767C5.75023 8.52431 5.67743 8.58007 5.59975 8.52063C5.49783 8.44295 5.49415 8.35311 5.46143 8.31919C5.49415 8.29855 5.56095 8.26823 5.71991 8.24719C5.71383 8.23503 5.69319 8.19863 5.70535 8.16591C5.71991 8.12343 5.78055 8.09671 5.76239 8.04591C5.78911 8.03983 5.80119 8.03983 5.86799 7.95607C5.93111 7.87231 5.96991 7.85415 6.01847 7.84807C6.06703 7.84199 6.09615 7.84807 6.18599 7.76431C6.24903 7.70487 6.22847 7.65391 6.22847 7.65391C6.22847 7.65391 6.26967 7.64055 6.25519 7.55679L6.25511 7.55695Z" fill="#CBAC5A"/>
<path fill-rule="evenodd" clip-rule="evenodd" d="M5.72465 7.5838C5.72705 7.57164 5.73681 7.56556 5.80233 7.57164C5.86785 7.57772 6.28289 7.53284 6.39578 7.52676C6.50986 7.51828 6.91154 7.52428 7.10699 7.56556C7.30243 7.60685 7.50019 7.65541 7.59603 7.67966C7.69204 7.70638 7.72228 7.71598 7.7186 7.72814C7.7162 7.7403 7.6946 7.75214 7.6822 7.74878C7.67012 7.74638 7.35211 7.64925 7.25387 7.62877C7.15563 7.60829 6.8157 7.55348 6.62986 7.55676C6.45634 7.55924 6.38714 7.55436 6.24033 7.57132C6.09345 7.58957 5.85073 7.61381 5.77793 7.60413C5.70593 7.59565 5.72081 7.59565 5.72449 7.58348L5.72465 7.5838Z" fill="#D6BC6F"/>
<path fill-rule="evenodd" clip-rule="evenodd" d="M6.70163 8.53521C6.70163 8.53521 6.95043 8.66992 7.04027 8.83496C7.1058 8.95752 7.00147 9.01824 7.00147 9.01824C7.00147 9.01824 7.14228 9.01824 7.12404 9.09591C7.11556 9.14439 6.88131 9.27543 6.72475 9.34463C6.56579 9.41383 6.57187 9.41023 6.49419 9.42231C6.41891 9.43447 6.21259 9.39831 6.17011 9.4587C6.12763 9.5191 6.14611 9.58134 6.15795 9.59102C6.17011 9.5995 6.26843 9.61166 6.26843 9.61166C6.26843 9.61166 6.24779 9.6687 6.04395 9.67478C5.8401 9.68086 5.78906 9.69534 5.7769 9.71726C5.76474 9.73782 5.8157 9.72574 5.90922 9.74126C6.00267 9.75582 6.13371 9.76526 6.13371 9.76526C6.13371 9.76526 6.09123 9.80166 5.98083 9.83078C5.85458 9.86349 5.65674 9.89389 5.5973 9.93029C5.62762 9.95093 5.67258 9.98125 5.6933 9.98365C5.64234 9.99581 5.57066 10.0225 5.55858 10.0322C5.57674 10.0444 5.60106 10.0589 5.60106 10.0589C5.60106 10.0589 5.49906 10.1815 5.43962 10.2119C5.38018 10.2423 5.03794 10.4012 4.92018 10.3708C4.62649 10.2932 4.59009 9.97157 4.51849 9.94733C4.41049 9.91093 4.35953 9.98365 4.26361 9.93269C4.30609 9.90237 4.32921 9.88421 4.37409 9.86357C4.32553 9.83958 4.07433 9.6803 4.07433 9.6803C4.04806 9.62305 4.0189 9.56716 3.98697 9.51286C3.93841 9.42911 3.86697 9.31743 3.81337 9.21911C3.69689 9.00312 3.69081 8.9036 3.58521 8.78104C3.60345 8.75704 3.66649 8.7604 3.66649 8.7604L4.55129 9.05168L6.12019 9.09711L6.52819 8.51465L6.70171 8.53529L6.70163 8.53521Z" fill="#DFC677"/>
<path fill-rule="evenodd" clip-rule="evenodd" d="M4.37744 9.42326C4.38691 9.43379 4.39795 9.44281 4.41016 9.44998C4.44056 9.47062 4.48544 9.49494 4.51576 9.53126C4.52792 9.5131 4.55824 9.4803 4.61176 9.53126C4.66528 9.58222 4.73176 9.5459 4.77312 9.55798C4.8156 9.57262 4.818 9.57862 4.818 9.57862C4.818 9.57862 4.842 9.55798 4.89568 9.53614C4.92848 9.52398 4.96728 9.5155 5.00976 9.50342C5.04856 9.49494 5.09104 9.48278 5.12024 9.48278C5.14696 9.50094 5.2428 9.60278 5.62752 9.45246C5.9904 9.31166 6.07408 9.2959 6.1348 9.31766C6.14088 9.3031 6.14696 9.27518 6.2404 9.27886C6.2404 9.24006 6.16272 9.10774 6.16272 9.10774L5.73432 8.96094H5.5L4.79736 9.08958L4.408 9.31174L4.37768 9.42374L4.37744 9.42326Z" fill="#C4A859"/>
<path fill-rule="evenodd" clip-rule="evenodd" d="M4.14331 9.17722C4.14331 9.17722 4.15179 9.24274 4.24891 9.31194C4.34491 9.38106 4.37507 9.42234 4.37507 9.42234C4.37507 9.42234 4.39331 9.39834 4.40787 9.37386C4.42243 9.34714 4.43459 9.31682 4.45883 9.30834C4.50739 9.2877 4.61779 9.3265 4.64211 9.32042C4.66275 9.31442 4.65667 9.27194 4.67851 9.27194C4.72947 9.26946 4.76219 9.30465 4.78043 9.30465C4.79867 9.30465 4.84347 9.30225 4.84955 9.29257C4.85563 9.28289 4.85803 9.18209 4.92723 9.13353C5.00251 9.08017 5.09475 9.10322 5.11923 9.11538C5.11923 9.13354 5.12163 9.1785 5.17019 9.1809C5.21875 9.1833 5.22355 9.17482 5.26619 9.18938C5.30883 9.20394 5.35963 9.18698 5.38267 9.2585C5.40331 9.2525 5.45187 9.24642 5.43971 9.17722C5.46371 9.15906 5.48467 9.1469 5.53571 9.0753C5.54787 9.05714 5.56843 9.03649 5.58427 9.00977C5.62675 9.00977 5.67771 9.00129 5.74563 9.06073C5.72499 9.07529 5.71283 9.08473 5.70683 9.09953C5.72459 9.11712 5.74081 9.13621 5.75531 9.15657C5.77355 9.18057 5.78571 9.21002 5.80875 9.2161C5.85971 9.23066 5.94347 9.21002 6.03691 9.2161C6.12675 9.22218 6.20195 9.25489 6.23475 9.27553C6.24691 9.26953 6.24691 9.26706 6.27723 9.27314C6.30755 9.27922 6.33059 9.28162 6.29787 9.24282C6.31603 9.2513 6.33667 9.26954 6.35491 9.2513C6.37315 9.23306 6.38763 9.20642 6.43859 9.20034C6.48955 9.19426 6.50779 9.20274 6.52843 9.14938C6.55515 9.08386 6.46291 9.08385 6.46291 9.08385C6.46291 9.08385 6.50539 9.04498 6.55275 8.99401C6.60979 8.94065 6.67531 8.87146 6.69107 8.7865C6.71779 8.62994 6.56491 8.60938 6.56491 8.60938L5.82339 8.83753L4.91683 8.79257L4.14379 9.1773L4.14331 9.17722Z" fill="#927D49"/>
<path fill-rule="evenodd" clip-rule="evenodd" d="M3.47703 7.03512C3.47703 7.03512 3.45304 7.06544 3.43824 7.13705C3.42344 7.20865 3.42976 7.20017 3.4176 7.25113C3.40544 7.30209 3.25608 7.80939 3.31208 7.98052C3.36808 8.15165 3.46504 8.21477 3.52567 8.35309C3.53783 8.38341 3.54967 8.40165 3.55599 8.42838C3.57663 8.51814 3.55847 8.58734 3.58271 8.67719C3.59119 8.70751 3.61311 8.74271 3.64583 8.77911C3.71783 8.85431 3.83519 8.92591 3.88583 8.97688C3.95735 9.05216 4.05935 9.20512 4.18919 9.2196C4.25839 9.22809 4.35671 9.19896 4.43799 9.15048C4.50999 9.10552 4.55447 9.04248 4.62998 9.00648C4.68334 8.97976 4.74038 8.97008 4.79134 8.95792C4.89694 8.93727 4.99286 8.93391 5.0499 8.94575C5.13726 8.964 5.34358 9.02712 5.4579 9.02712C5.54723 9.02568 5.63606 9.01345 5.72245 8.99072C5.89597 8.93975 6.10589 8.85231 6.24429 8.81351C6.32557 8.78951 6.39109 8.78319 6.45789 8.76863C6.57197 8.74191 6.66781 8.70551 6.72245 8.6363C6.68605 8.59382 6.64117 8.5283 6.39837 8.5307C6.12293 8.53678 5.80493 8.68967 5.64838 8.71399C5.49182 8.73831 5.4239 8.75887 5.2491 8.69575C5.07774 8.63198 5.07206 8.58982 5.07206 8.58982C5.07206 8.58982 4.89214 8.46398 4.81686 8.14316C4.74158 7.82235 4.81686 7.58858 5.0123 7.36642C5.06326 7.30937 5.0511 7.25841 5.0511 7.25841C5.0511 7.25841 5.17974 7.08489 5.14454 6.9224C5.10574 6.76095 4.85694 6.79375 4.85694 6.79375L3.47711 7.03512H3.47703Z" fill="#6E6342"/>
<path fill-rule="evenodd" clip-rule="evenodd" d="M3.6844 7.5752C3.6737 7.59532 3.66867 7.61797 3.66984 7.64073C3.67224 7.67345 3.682 7.71594 3.78024 7.81187C3.864 7.89557 3.84576 7.98902 3.84576 7.98902C3.84576 7.98902 3.88792 7.9975 4.00232 7.94397C4.09216 7.90149 4.12232 7.97678 4.12232 7.97678C4.14847 7.96306 4.17682 7.95402 4.20608 7.95006C4.23259 7.94761 4.25825 7.93942 4.28128 7.92605C4.28128 7.92605 4.38688 8.03407 4.47912 8.08504C4.56288 8.13 4.61144 8.16033 4.65272 8.13C4.69152 8.10328 4.69152 8.04863 4.68904 8.02439C4.67941 8.00201 4.66722 7.98083 4.65272 7.96126C4.626 7.92245 4.58352 7.87748 4.58072 7.84124C4.57464 7.75754 4.64384 7.65793 4.6292 7.63368C4.61456 7.60944 4.56008 7.60336 4.42536 7.65193C4.28584 7.69802 3.68384 7.57544 3.68384 7.57544L3.6844 7.5752Z" fill="#39331F"/>
<path fill-rule="evenodd" clip-rule="evenodd" d="M4.0024 8.1178C4.0024 8.1178 3.93332 8.0523 3.95754 7.73442C3.98687 7.73399 4.01616 7.73683 4.04485 7.74289C4.04485 7.74289 4.08251 7.9892 4.0024 8.1178Z" fill="#292311"/>
<path fill-rule="evenodd" clip-rule="evenodd" d="M3.50961 6.7924C3.51926 6.78526 3.5282 6.77723 3.53633 6.7684C3.51233 6.81328 3.40153 6.99288 3.49137 7.27567C3.58121 7.55718 3.80689 7.7671 4.08481 7.77686C4.36273 7.78662 4.50881 7.65062 4.67585 7.44679C4.74137 7.36551 4.81665 7.26351 4.88337 7.19439C4.98289 7.08631 5.06057 7.05599 5.06057 6.95168C5.06057 6.73808 4.84209 6.64216 4.52049 6.54633C4.19889 6.45049 3.90881 6.46233 3.75833 6.52793C3.61153 6.59944 3.54841 6.67472 3.50953 6.79248L3.50961 6.7924Z" fill="#252211"/>
<path fill-rule="evenodd" clip-rule="evenodd" d="M4.54248 8.21406L4.56647 8.2019C4.56647 8.2019 4.57247 8.10589 4.61134 8.10845C4.65013 8.11453 4.66837 8.16557 4.66469 8.18374C4.66229 8.2019 4.65261 8.2323 4.61374 8.22862C4.56279 8.22982 4.54224 8.21406 4.54224 8.21406H4.54248Z" fill="#3F3824"/>
<path fill-rule="evenodd" clip-rule="evenodd" d="M4.43433 7.80584C4.43433 7.80584 4.45833 7.79735 4.48769 7.8265C4.51169 7.8265 4.61633 7.81433 4.64913 7.83499C4.68193 7.85566 4.69161 7.87384 4.69161 7.87384C4.69161 7.87384 4.56905 7.9006 4.50225 7.87384C4.43433 7.85077 4.43433 7.80584 4.43433 7.80584Z" fill="#2D2815"/>
<path fill-rule="evenodd" clip-rule="evenodd" d="M4.97469 7.82427C4.97469 7.81819 4.90918 7.77333 4.84 7.75869C4.82784 7.7563 4.82536 7.76477 4.816 7.76477C4.80992 7.76237 4.80752 7.74414 4.80752 7.74414L4.76817 7.76485C4.76817 7.76485 4.76209 7.77333 4.78273 7.78884C4.80088 7.8034 4.83128 7.81555 4.83976 7.83978C4.84823 7.86401 4.84823 7.87249 4.85191 7.87616C4.85431 7.87856 4.89679 7.87616 4.91742 7.86401C4.93806 7.85185 4.97693 7.83202 4.97445 7.82403L4.97469 7.82427Z" fill="#82764F"/>
<path fill-rule="evenodd" clip-rule="evenodd" d="M4.36182 8.07003C4.36182 8.07003 4.3739 7.98642 4.45526 7.98275C4.53894 7.97667 4.55478 8.05788 4.55478 8.05788L4.50622 8.1064C4.50622 8.1052 4.46982 8.05429 4.36222 8.07003H4.36182Z" fill="#2D2816"/>
<path fill-rule="evenodd" clip-rule="evenodd" d="M4.88959 7.70971C4.88959 7.70971 4.84463 7.75825 4.74519 7.77281C4.73671 7.76065 4.71847 7.73642 4.74519 7.69764C4.77191 7.65885 4.80223 7.6467 4.83255 7.65877C4.84593 7.66094 4.8584 7.66689 4.86851 7.67591C4.87862 7.68494 4.88593 7.69667 4.88959 7.70971Z" fill="#574F35"/>
<path fill-rule="evenodd" clip-rule="evenodd" d="M5.07281 7.76937C5.07529 7.75721 5.06681 7.75481 5.07281 7.74874C5.07881 7.74266 5.11169 7.73058 5.11777 7.73658C5.12017 7.73906 5.11777 7.74874 5.11777 7.76057C5.11777 7.77241 5.11777 7.78457 5.11169 7.79329C5.10321 7.80545 5.07897 7.81152 5.06681 7.80793C5.05465 7.80433 5.05225 7.78729 5.05225 7.78393C5.05825 7.78153 5.07281 7.77545 5.07281 7.76937ZM5.28001 7.63835C5.28001 7.63227 5.30065 7.62012 5.31281 7.62012C5.33097 7.62012 5.33097 7.63467 5.33345 7.63835C5.33945 7.64075 5.33945 7.63587 5.34553 7.64683C5.35161 7.65779 5.36017 7.67715 5.35401 7.68931C5.34785 7.70146 5.32369 7.70986 5.31769 7.70746C5.30921 7.70138 5.28249 7.64683 5.28001 7.63835Z" fill="#82764F"/>
<path fill-rule="evenodd" clip-rule="evenodd" d="M4.86304 7.79696C4.86304 7.79696 4.88976 7.80295 4.92616 7.83336C4.914 7.84184 4.89576 7.85152 4.89576 7.85152C4.89576 7.85152 4.89336 7.8236 4.86304 7.79688V7.79696Z" fill="#6E6342"/>
<path fill-rule="evenodd" clip-rule="evenodd" d="M4.80345 7.52994C4.79737 7.52394 4.82161 7.50938 4.83617 7.51178C4.85073 7.51418 4.85681 7.52394 4.87257 7.52634C4.88833 7.52874 4.89081 7.52026 4.89657 7.51418C4.90234 7.5081 4.9233 7.51178 4.9269 7.51418C4.92914 7.51684 4.93117 7.51968 4.93298 7.52266C4.93323 7.51804 4.93443 7.51352 4.93651 7.5094C4.93859 7.50527 4.9415 7.50161 4.94506 7.49866C4.94971 7.49524 4.95508 7.49291 4.96076 7.49186C4.96644 7.49081 4.97229 7.49105 4.97786 7.49258C4.98026 7.50106 4.99242 7.53138 4.99002 7.53746C4.98762 7.54354 4.95122 7.55209 4.94506 7.54594C4.95114 7.56057 4.97786 7.59089 4.98146 7.59689C4.98506 7.60289 4.95474 7.61753 4.94266 7.61513C4.9257 7.61393 4.82129 7.55322 4.80313 7.53018L4.80345 7.52994ZM4.96242 7.3285C4.96017 7.32238 4.95587 7.31724 4.95026 7.31394C4.94178 7.31154 4.91386 7.31394 4.91386 7.3285C4.91386 7.34306 4.93786 7.4245 4.96482 7.4669C4.99522 7.50938 5.01578 7.5445 5.03642 7.55426C5.0429 7.55721 5.05026 7.55759 5.05702 7.55534C5.06377 7.55308 5.06942 7.54835 5.07282 7.5421C5.07522 7.53602 5.0813 7.49114 5.0789 7.38554C5.0765 7.27994 5.07282 7.17802 5.06674 7.17194C5.06066 7.16586 5.03642 7.16594 5.02794 7.17802C5.01946 7.1901 4.96482 7.31034 4.96234 7.3285H4.96242Z" fill="#585136"/>
<path fill-rule="evenodd" clip-rule="evenodd" d="M4.85435 7.95039C4.85435 7.95039 4.81186 7.92369 4.77057 7.94191C4.73176 7.96014 4.73416 8.0317 4.73416 8.0317C4.74289 8.03512 4.75233 8.03635 4.76164 8.03529C4.77096 8.03423 4.77988 8.03091 4.78762 8.02563C4.81434 8.00748 4.84827 7.97717 4.85435 7.95047V7.95039Z" fill="#574F35"/>
<path fill-rule="evenodd" clip-rule="evenodd" d="M4.9344 8.04572C4.932 8.02172 4.9104 8.02172 4.9104 8.00932C4.91189 8.00339 4.91532 7.99814 4.92015 7.99439C4.92498 7.99065 4.93093 7.98864 4.93704 7.98868C4.9492 7.98868 4.96104 8.00324 4.97592 8.01268C4.99048 8.02116 5.01232 8.03668 5.01472 8.05516C5.01712 8.07364 4.99072 8.12429 4.96136 8.12429C4.932 8.12429 4.94072 8.06964 4.93464 8.0454L4.9344 8.04572ZM5.16864 8.01292C5.16864 8.01292 5.12008 8.02748 5.12368 8.01292C5.12728 7.99836 5.13832 7.99476 5.15408 7.99476C5.16209 7.98638 5.17286 7.98118 5.1844 7.98012C5.191 7.97979 5.19749 7.98196 5.20256 7.9862C5.20256 7.9862 5.23536 7.97164 5.24504 7.98012C5.25472 7.9886 5.24752 7.9886 5.25352 7.99836C5.26116 8.00919 5.26617 8.02165 5.26816 8.03476C5.26816 8.04444 5.23176 8.06508 5.20256 8.06148C5.16864 8.0542 5.17464 8.019 5.16864 8.01292ZM5.45136 7.95828C5.45136 7.95828 5.46592 7.96676 5.45384 7.97652C5.44536 7.985 5.40288 8.00052 5.3664 8.00324C5.33 8.00324 5.29728 8.00924 5.29728 7.99716C5.29728 7.98508 5.3276 7.96076 5.34576 7.95468C5.3494 7.95011 5.35403 7.94644 5.35929 7.94391C5.36456 7.94139 5.37032 7.94009 5.37616 7.94012C5.39072 7.94012 5.44768 7.93403 5.46352 7.93163C5.47808 7.92915 5.49024 7.93764 5.48168 7.9498C5.47808 7.95828 5.45136 7.95828 5.45136 7.95828ZM5.53512 7.58353C5.53512 7.58353 5.51688 7.62233 5.49632 7.62233C5.47568 7.61993 5.47568 7.61385 5.47568 7.60777C5.47568 7.59929 5.49632 7.57745 5.49384 7.57137C5.48784 7.57137 5.4732 7.57137 5.47568 7.55681C5.47568 7.54465 5.49632 7.53009 5.51448 7.53281C5.5282 7.52153 5.54529 7.51514 5.56304 7.51465C5.58368 7.51465 5.60184 7.52065 5.60184 7.53281C5.60184 7.54497 5.57784 7.57161 5.56904 7.57777C5.55936 7.58745 5.5472 7.59377 5.53512 7.58377V7.58353ZM5.2584 8.30078C5.2584 8.30078 5.2344 8.30326 5.2344 8.31534C5.2344 8.32142 5.2404 8.32142 5.24896 8.31782C5.25389 8.31754 5.25878 8.31671 5.26352 8.31534C5.26592 8.31782 5.26592 8.3299 5.28416 8.3299C5.29914 8.32788 5.31357 8.32293 5.32664 8.31534C5.3412 8.30934 5.35336 8.30318 5.35336 8.29134C5.34728 8.2707 5.33512 8.26094 5.31696 8.26094C5.30765 8.26035 5.29838 8.26246 5.29024 8.26702C5.29024 8.26702 5.28416 8.25486 5.26352 8.26702C5.24288 8.27918 5.24528 8.27918 5.25136 8.28526C5.26224 8.29494 5.25864 8.30126 5.25864 8.30126L5.2584 8.30078ZM5.12128 8.42703C5.12128 8.42095 5.1516 8.40878 5.16008 8.41246C5.16856 8.41486 5.1928 8.46095 5.1928 8.46583C5.1928 8.47191 5.16248 8.48647 5.15032 8.48647C5.13816 8.48647 5.1176 8.46583 5.1176 8.46247C5.1176 8.46007 5.13216 8.45647 5.13216 8.45399C5.13576 8.44799 5.12128 8.43335 5.12128 8.42727V8.42703ZM5.02528 8.24981C5.03136 8.24741 5.03136 8.24133 5.03984 8.23525C5.0425 8.23349 5.04552 8.23235 5.04868 8.23194C5.05184 8.23152 5.05506 8.23183 5.05808 8.23285C5.06022 8.22904 5.06318 8.22574 5.06675 8.22321C5.07032 8.22068 5.07441 8.21897 5.07872 8.21821C5.09328 8.21581 5.10544 8.21821 5.10272 8.22429C5.10272 8.24253 5.11488 8.25461 5.11488 8.26918C5.11488 8.28374 5.1064 8.30198 5.07608 8.31414C5.04576 8.32262 5.00448 8.32262 4.9984 8.32022C4.99232 8.31782 4.98624 8.2935 4.99232 8.28134C4.9984 8.26918 5.01536 8.2559 5.02512 8.24981H5.02528Z" fill="#82764F"/>
<path fill-rule="evenodd" clip-rule="evenodd" d="M5.06412 8.25879C5.06412 8.25879 5.04346 8.27094 5.04346 8.27702C5.04163 8.28289 5.04082 8.28903 5.04106 8.29517C5.04106 8.29877 5.0678 8.29277 5.07141 8.28909C5.07261 8.2867 5.06412 8.26511 5.06412 8.25879Z" fill="#6E6342"/>
<path fill-rule="evenodd" clip-rule="evenodd" d="M4.88339 8.20165C4.89547 8.20413 4.91611 8.20165 4.93187 8.20773C4.94403 8.21381 4.95251 8.22596 4.94035 8.24051C4.92819 8.25507 4.91635 8.2769 4.88939 8.27322C4.85908 8.27082 4.82996 8.25507 4.82996 8.24291C4.82945 8.23522 4.83048 8.22751 4.83298 8.22022C4.83547 8.21293 4.8394 8.20621 4.84452 8.20045C4.85668 8.19078 4.86268 8.19686 4.88331 8.20165H4.88339Z" fill="#585136"/>
<path fill-rule="evenodd" clip-rule="evenodd" d="M4.86894 8.21289C4.86894 8.21289 4.83014 8.24321 4.82038 8.25785C4.80822 8.27241 4.74878 8.34761 4.73062 8.36337C4.73665 8.35273 4.74352 8.34259 4.75118 8.33305C4.72718 8.3484 4.70918 8.37153 4.70021 8.39857C4.68565 8.44353 4.78158 8.46777 4.84462 8.48601C4.90767 8.50425 4.93207 8.51001 4.93207 8.51001C4.90886 8.47513 4.88893 8.43817 4.87254 8.39961C4.84854 8.34257 4.83614 8.33649 4.8519 8.30977C4.86406 8.28305 4.88231 8.26489 4.88231 8.24425C4.87502 8.22505 4.86894 8.21289 4.86894 8.21289Z" fill="#574F35"/>
<path fill-rule="evenodd" clip-rule="evenodd" d="M3.48551 8.31003C3.49434 8.31166 3.5034 8.31166 3.51223 8.31003C3.53039 8.30755 3.71975 8.23804 3.9176 8.25052C4.0657 8.25947 4.2125 8.28359 4.35568 8.32251C4.60448 8.38802 4.91393 8.51785 5.11417 8.59192C5.16753 8.61247 5.21977 8.64895 5.25817 8.66343C5.41113 8.72294 5.41713 8.72294 5.50697 8.7387C5.61257 8.75325 5.72057 8.71806 5.83345 8.69382C5.97178 8.66343 6.20842 8.64887 6.41594 8.61855C6.48304 8.60925 6.54923 8.59424 6.61378 8.57368C6.61378 8.57368 6.44874 8.7387 6.05306 8.79813C5.89312 8.82241 5.73059 8.82446 5.57009 8.80421C5.44385 8.79205 5.36017 8.77381 5.29705 8.75565C5.22545 8.73502 5.07857 8.68038 4.89777 8.63567C4.77152 8.60287 4.63072 8.57864 4.46936 8.54832C4.07128 8.47545 3.63927 8.39178 3.48535 8.31051L3.48551 8.31003Z" fill="#252211"/>
<path fill-rule="evenodd" clip-rule="evenodd" d="M3.03864 7.55957C2.94264 7.64085 2.8408 7.71853 2.74136 7.79373L2.44161 8.02405C2.33969 8.09925 2.24017 8.17693 2.13817 8.25221C2.03617 8.32749 1.93433 8.39901 1.82617 8.46821C1.92217 8.38693 2.02401 8.31165 2.12593 8.23765C2.22785 8.16365 2.33353 8.09109 2.43185 8.01605L2.7316 7.78541C2.83472 7.71021 2.93424 7.63253 3.03864 7.55973V7.55957ZM2.50832 8.40909C2.50832 8.40909 2.61632 8.31925 2.75104 8.19309C2.91848 8.03661 3.1236 7.83629 3.18912 7.79997L2.50824 8.40917L2.50832 8.40909Z" fill="#CFB66C"/>
<path fill-rule="evenodd" clip-rule="evenodd" d="M2.5083 8.40843C2.56174 8.35508 2.61878 8.30294 2.67582 8.25191L2.76318 8.17672C2.7899 8.15272 2.8203 8.12577 2.84694 8.09906C2.9003 8.04571 2.95254 7.9886 3.0059 7.93405C3.03235 7.90662 3.06031 7.88069 3.08966 7.85638C3.10433 7.8434 3.12063 7.83238 3.13814 7.82359C3.15278 7.81511 3.16854 7.79959 3.1891 7.79688C3.17702 7.81511 3.16246 7.82359 3.1503 7.83935C3.13574 7.8515 3.12358 7.86606 3.1115 7.87814C3.08478 7.90485 3.05446 7.92909 3.02774 7.9534C2.9707 8.00195 2.91126 8.04939 2.85422 8.10018C2.79718 8.15096 2.74382 8.20575 2.6867 8.2567C2.62486 8.30893 2.56782 8.35988 2.5083 8.40867V8.40843ZM3.23406 7.92309C3.23406 7.92309 2.83846 8.31021 2.7571 8.37324L3.23406 7.92309Z" fill="#CFB66C"/>
<path fill-rule="evenodd" clip-rule="evenodd" d="M3.23428 7.92383C3.1987 7.96502 3.16054 8.00393 3.12004 8.04031L3.00004 8.15439C2.96124 8.19319 2.92476 8.23207 2.88356 8.27087C2.84108 8.30727 2.80228 8.34287 2.75732 8.37647L2.8738 8.26239C2.91268 8.22359 2.95516 8.19087 2.99644 8.15199L3.11292 8.03791C3.15292 7.99791 3.1918 7.95903 3.23428 7.92383ZM3.25244 8.13375C3.21598 8.23552 3.17301 8.33485 3.1238 8.43111C3.02188 8.63503 2.869 8.88983 2.8022 9.01975L3.25244 8.13375Z" fill="#CFB66C"/>
<path fill-rule="evenodd" clip-rule="evenodd" d="M3.25251 8.13379C3.25251 8.17868 3.24035 8.21756 3.22579 8.25637C3.21159 8.2952 3.19541 8.33329 3.17731 8.37046C3.15907 8.40687 3.13843 8.44575 3.11779 8.48096C3.09715 8.51616 3.07291 8.55249 3.05467 8.58897L2.93211 8.805C2.88963 8.87701 2.84835 8.94942 2.80347 9.01863C2.83379 8.94094 2.87507 8.86813 2.91395 8.79652C2.95643 8.72451 2.99523 8.6525 3.03395 8.57801C3.05285 8.54089 3.06986 8.50284 3.08491 8.46399C3.10307 8.42511 3.12123 8.3887 3.13587 8.3535C3.15403 8.31469 3.16859 8.27821 3.18683 8.24308C3.20739 8.2054 3.22443 8.16899 3.25235 8.13379H3.25251Z" fill="#CFB66C"/>
<path fill-rule="evenodd" clip-rule="evenodd" d="M3.68452 9.12891C3.68452 9.12891 3.56453 9.28787 3.57653 9.48931C3.60925 9.38379 3.65053 9.22235 3.68452 9.12891ZM3.7986 9.28827C3.7986 9.28827 3.75612 9.72027 3.72092 9.93267C3.77068 9.68715 3.78036 9.70779 3.7986 9.28827ZM4.59346 9.95819C4.59346 9.95819 4.41387 10.4862 4.41019 10.6329C4.44907 10.482 4.52427 10.1738 4.59346 9.95779V9.95819Z" fill="#DEC270"/>
<path fill-rule="evenodd" clip-rule="evenodd" d="M5.01343 9.0957C5.01343 9.0957 5.30471 9.57626 5.52319 9.98642C5.46407 9.78002 5.32807 9.40146 5.01343 9.0957Z" fill="#CBAF59"/>
<path fill-rule="evenodd" clip-rule="evenodd" d="M5.79614 9.80371C5.95607 10.0864 6.10029 10.3777 6.22814 10.6763C6.2039 10.4699 6.1383 10.1168 5.79614 9.80371Z" fill="#E3C677"/>
<path fill-rule="evenodd" clip-rule="evenodd" d="M8.09696 10.5119C8.14544 10.4815 8.24135 10.3164 8.32511 10.2752C8.40879 10.2327 8.47191 10.2243 8.54719 10.1405C8.62239 10.0531 8.64319 9.9997 8.80807 9.93058C9.03871 9.83098 8.88007 9.70234 8.88007 9.70234C8.90547 9.67739 8.93264 9.65429 8.96135 9.63322C9.02087 9.58834 9.08999 9.5337 9.08399 9.43778C9.07551 9.27642 9.04519 9.04218 8.91287 8.90626C9.04151 8.87954 9.28782 8.86138 9.44086 8.82258C9.61798 8.77762 9.69934 8.7145 9.69934 8.7145C9.69934 8.7145 9.59742 8.54098 9.76246 8.36626C9.9275 8.19154 10.0622 8.08714 10.1617 7.8917C10.0477 7.87714 9.87374 7.8165 9.4299 7.98514C9.45386 7.99641 9.47699 8.00938 9.4991 8.02394C9.4991 8.02394 9.22606 8.09922 9.12655 8.18298C8.95295 8.32978 8.93111 8.44994 8.74303 8.53978C8.55495 8.62962 8.36559 8.6053 8.20911 8.6781C8.05264 8.7509 8.02952 8.81282 7.9724 8.83954C7.98456 8.8541 7.97 8.87834 7.99304 8.89898C7.97848 8.91962 7.89352 9.05794 7.80736 9.05794C7.81584 9.09074 7.88864 9.11498 7.88864 9.11498C7.88864 9.11498 7.83528 9.15386 7.69936 9.16354C7.76848 9.23554 7.83408 9.31402 8.01488 9.4281C8.00032 9.45842 7.9396 9.50338 7.96392 9.56042C7.99064 9.61746 8.05992 9.69514 8.33647 9.75826C8.19567 9.76426 8.03072 9.79706 7.80848 9.76674C7.5864 9.74002 7.55 9.72426 7.41288 9.75826C7.42744 9.77282 7.46624 9.77282 7.50024 9.81162C7.46384 9.81402 7.23568 9.7849 7.158 9.8869C7.07673 9.99242 7.04153 10.166 7.04761 10.2825C7.00513 10.3031 6.96385 10.3395 6.98449 10.4148C7.00513 10.4901 7.11313 10.5143 7.18232 10.5616C7.25144 10.6126 7.25752 10.6307 7.32312 10.6187C7.39224 10.6041 7.49416 10.535 7.55368 10.535C7.6132 10.535 7.6556 10.5799 7.6556 10.5799C7.6556 10.5799 7.81704 10.5022 7.8328 10.5167C7.84736 10.5313 7.8352 10.6247 7.85096 10.6393C7.86696 10.6503 8.0488 10.5423 8.09736 10.5119H8.09696Z" fill="#ECD592"/>
<path fill-rule="evenodd" clip-rule="evenodd" d="M11.625 5.65558C10.8665 3.69686 8.99145 3.33398 8.99145 3.33398H3.64193L3.66257 5.3291H4.72793V9.78422H3.64185V11.7757H8.84337C10.097 11.7757 11.1018 10.516 11.1018 10.516C12.711 8.23206 11.6249 5.65558 11.6249 5.65558H11.625ZM8.87129 9.17374C8.87129 9.17374 8.46329 9.76238 8.01937 9.76238H7.13137L7.11033 5.33398H8.24993C8.24993 5.33398 8.77793 5.44438 9.14681 6.48926C9.14681 6.48926 9.63585 7.98526 8.87129 9.17374Z" fill="white" fill-opacity="0.8"/>
</svg>
