<svg width="12" height="15" viewBox="0 0 12 15" fill="none" xmlns="http://www.w3.org/2000/svg">
<path d="M5.68336 0C2.55032 0.0125849 0.0135615 2.54934 0.000976562 5.68238C0.000976562 6.30983 0.102255 6.93308 0.300617 7.52817C0.448639 7.93328 0.887912 8.15142 1.30022 8.02617C1.69874 7.87335 1.91029 7.43767 1.78324 7.03016C1.61484 6.56632 1.53993 6.07431 1.5621 5.5817C1.63042 3.31882 3.51995 1.53955 5.78284 1.60787C8.04572 1.67619 9.82499 3.56572 9.75667 5.82861C9.69255 7.94706 8.02415 9.6676 5.90809 9.79644C5.90809 9.79644 5.11045 9.84499 4.71372 9.89353C4.5675 9.9145 4.42247 9.94327 4.27924 9.97983C4.25887 10.0008 4.22591 10.0008 4.20493 9.98042L4.20433 9.97983C4.18995 9.96125 4.18995 9.93488 4.20433 9.9163L4.32778 9.24271L5.07689 5.87355C5.16678 5.45286 4.8989 5.03875 4.4782 4.94886C4.05751 4.85897 3.64341 5.12685 3.55351 5.54754C3.55351 5.54754 1.77185 13.7942 1.77185 13.8692C1.66997 14.2701 1.91208 14.6776 2.313 14.7795C2.3172 14.7807 2.32199 14.7819 2.32619 14.7825H2.36754C2.76786 14.8861 3.17657 14.6452 3.27964 14.2449C3.28144 14.2383 3.28324 14.2317 3.28444 14.2245C3.28324 14.2119 3.28324 14.1994 3.28444 14.1874C3.30661 14.0903 3.53134 12.993 3.53134 12.993C3.70154 12.1648 4.36913 11.5302 5.20453 11.4019C5.37653 11.3755 6.09926 11.327 6.09926 11.327C9.22031 11.016 11.4982 8.23352 11.1866 5.11246C10.9025 2.26588 8.54432 0.0743108 5.68336 0Z" fill="#1E1E1E"/>
<path d="M6.02861 13.1021C5.51625 12.9954 5.01527 13.3245 4.90861 13.8363C4.90741 13.841 4.90681 13.8458 4.90561 13.8506C4.79475 14.3594 5.11715 14.8623 5.62651 14.9731C5.62711 14.9731 5.62771 14.9731 5.62831 14.9737H5.65468C6.15325 15.0942 6.65483 14.7873 6.77468 14.2893C6.77588 14.2857 6.77648 14.2815 6.77767 14.2779V14.2258C6.86576 13.7116 6.53737 13.2184 6.02861 13.1021Z" fill="#E6007A"/>
</svg>
