<svg width="15" height="15" viewBox="0 0 15 15" fill="none" xmlns="http://www.w3.org/2000/svg">
<mask id="mask0" mask-type="alpha" maskUnits="userSpaceOnUse" x="0" y="0" width="15" height="15">
<path fill-rule="evenodd" clip-rule="evenodd" d="M0 0H15V15H0V0Z" fill="white"/>
</mask>
<g mask="url(#mask0)">
<path fill-rule="evenodd" clip-rule="evenodd" d="M7.5 14.9993C3.375 14.9993 0 11.6243 0 7.46183C0.0375 3.33683 3.375 -0.0381671 7.5375 -0.000667053C11.6625 0.0368329 15 3.37433 15 7.57433C14.9625 11.6618 11.625 14.9993 7.5 14.9993Z" fill="#0090FF"/>
<path fill-rule="evenodd" clip-rule="evenodd" d="M8.2124 6.59945L7.9874 7.79945L10.1249 8.09945L9.9749 8.66195L7.8749 8.36195C7.7249 8.84945 7.6499 9.37445 7.4624 9.82445C7.2749 10.3494 7.0874 10.8744 6.8624 11.3619C6.5624 11.9994 6.0374 12.4494 5.3249 12.5619C4.9124 12.6369 4.4624 12.5995 4.1249 12.337C4.0124 12.262 3.8999 12.1119 3.8999 11.9994C3.8999 11.8494 3.9749 11.6619 4.0874 11.5869C4.1624 11.5494 4.3499 11.5869 4.4624 11.6244C4.5749 11.7369 4.6874 11.8869 4.7624 12.0369C4.9874 12.3369 5.2874 12.3744 5.5874 12.1495C5.9249 11.8495 6.1124 11.4369 6.2249 11.0244C6.4499 10.1244 6.6749 9.26195 6.8624 8.36195V8.21195L4.8749 7.91195L4.9499 7.34945L7.0124 7.64945L7.2749 6.48695L5.1374 6.14945L5.2124 5.54945L7.4249 5.84945C7.4999 5.62445 7.5374 5.43695 7.6124 5.24945C7.7999 4.57445 7.9874 3.89945 8.4374 3.29945C8.8874 2.69945 9.4124 2.32445 10.1999 2.36195C10.5374 2.36195 10.8749 2.47445 11.0999 2.73695C11.1374 2.77445 11.2124 2.84945 11.2124 2.92445C11.2124 3.07445 11.2124 3.26195 11.0999 3.37445C10.9499 3.48695 10.7624 3.44945 10.6124 3.29945C10.4999 3.18695 10.4249 3.07445 10.3124 2.96195C10.0874 2.66195 9.7499 2.62445 9.4874 2.88695C9.2999 3.07445 9.1124 3.33695 8.9999 3.59945C8.7374 4.38695 8.5499 5.21195 8.2874 6.03695L10.3499 6.33695L10.1999 6.89945L8.2124 6.59945Z" fill="white"/>
</g>
</svg>
