<svg width="15" height="15" viewBox="0 0 15 15" fill="none" xmlns="http://www.w3.org/2000/svg">
<path d="M7.5 15C11.6421 15 15 11.6421 15 7.5C15 3.35786 11.6421 0 7.5 0C3.35786 0 0 3.35786 0 7.5C0 11.6421 3.35786 15 7.5 15Z" fill="#6747ED"/>
<path fill-rule="evenodd" clip-rule="evenodd" d="M7.39063 8.46875C6.28125 8.46875 5.39063 7.57813 5.39063 6.46875C5.39063 5.35938 6.28125 4.46875 7.39063 4.46875C8.5 4.46875 9.39063 5.35938 9.39063 6.46875C9.39063 7.57813 8.5 8.46875 7.39063 8.46875ZM7.39063 3.46875C9.04688 3.46875 10.3906 4.8125 10.3906 6.46875C10.3906 8.125 9.04688 9.46875 7.39063 9.46875C5.73438 9.46875 4.39062 8.125 4.39062 6.46875C4.39062 4.8125 5.73438 3.46875 7.39063 3.46875ZM10.25 9.625C10.4531 9.82812 10.4531 10.1406 10.25 10.3281L8.25 12.3281C8.04688 12.5312 7.73438 12.5312 7.54688 12.3281C7.34375 12.125 7.34375 11.8125 7.54688 11.625L9.54688 9.625C9.73438 9.42188 10.0625 9.42188 10.25 9.625ZM11.4062 3.96875C11.4062 4.25 11.1875 4.46875 10.9063 4.46875C10.625 4.46875 10.4063 4.25 10.4063 3.96875C10.4063 3.6875 10.625 3.46875 10.9063 3.46875C11.1719 3.46875 11.4062 3.6875 11.4062 3.96875Z" fill="white"/>
</svg>
