<svg width="15" height="15" viewBox="0 0 15 15" fill="none" xmlns="http://www.w3.org/2000/svg">
<path d="M7.50002 14.188C11.1938 14.188 14.1883 11.1936 14.1883 7.49978C14.1883 3.80596 11.1938 0.811523 7.50002 0.811523C3.8062 0.811523 0.811768 3.80596 0.811768 7.49978C0.811768 11.1936 3.8062 14.188 7.50002 14.188Z" fill="white"/>
<path d="M7.5 0C6.01664 0 4.56659 0.439867 3.33323 1.26398C2.09986 2.08809 1.13856 3.25943 0.570907 4.62987C0.00324961 6.00032 -0.145275 7.50832 0.144114 8.96318C0.433503 10.418 1.14781 11.7544 2.1967 12.8033C3.2456 13.8522 4.58197 14.5665 6.03683 14.8559C7.49168 15.1453 8.99968 14.9967 10.3701 14.4291C11.7406 13.8614 12.9119 12.9001 13.736 11.6668C14.5601 10.4334 15 8.98336 15 7.5C15.0029 6.51794 14.8123 5.54494 14.4391 4.63655C14.0659 3.72815 13.5175 2.90216 12.8251 2.20572C12.1327 1.50928 11.3099 0.956033 10.4037 0.577575C9.49751 0.199118 8.52564 0.00285757 7.54359 0H7.5ZM7.62712 7.75424L6.84625 10.3874H11.023C11.0507 10.3864 11.0783 10.3909 11.1042 10.4006C11.1301 10.4103 11.1539 10.425 11.1741 10.4439C11.1944 10.4628 11.2107 10.4855 11.2221 10.5107C11.2336 10.5359 11.24 10.5631 11.2409 10.5908V10.6598L10.8777 11.9128C10.8617 11.9721 10.826 12.0241 10.7765 12.0604C10.727 12.0967 10.6667 12.1151 10.6053 12.1126H4.21308L5.28451 8.46247L4.08596 8.82566L4.35836 7.99031L5.5569 7.62712L7.06417 2.50605C7.08076 2.44713 7.11659 2.39545 7.16595 2.35925C7.21532 2.32305 7.27538 2.30441 7.33656 2.30629H8.95279C8.98045 2.30532 9.00804 2.30982 9.03397 2.31952C9.0599 2.32922 9.08366 2.34393 9.1039 2.36282C9.12414 2.38171 9.14046 2.4044 9.15192 2.4296C9.16338 2.4548 9.16977 2.48202 9.1707 2.50968V2.57869L7.89952 6.90072L9.09806 6.53753L8.84383 7.4092L7.62712 7.75424Z" fill="#345D9D"/>
</svg>
