<svg width="24" height="15" viewBox="0 0 24 15" fill="none" xmlns="http://www.w3.org/2000/svg">
<g clip-path="url(#clip0)">
<path d="M17.7594 0.00740646L15.8222 0.925854C15.8142 0.929865 15.8022 0.937886 15.7981 0.945907C15.7901 0.953929 15.7861 0.96195 15.7821 0.973982C15.7781 0.986014 15.7781 0.994036 15.7781 1.00607C15.7781 1.0181 15.7821 1.02612 15.7861 1.03815L18.73 7.24269C19.8249 9.55284 19.5321 11.3015 17.8677 12.0956C16.5201 12.7333 15.361 12.2881 14.4546 10.732L10.9653 3.38039C9.55349 0.400454 7.62835 -0.389652 5.34226 0.697245C3.8583 1.40313 2.996 2.66248 3.01204 4.26275C3.01204 4.2828 3.00803 4.29884 2.996 4.31488C2.98397 4.33093 2.96793 4.33895 2.94787 4.34296C2.92782 4.34697 2.91178 4.34697 2.89172 4.33895C2.87568 4.33093 2.85964 4.3189 2.85161 4.29884L2.08958 2.69457C2.08557 2.68655 2.07755 2.67451 2.06953 2.6705C2.06151 2.66248 2.05349 2.65847 2.04145 2.65446C2.03343 2.64644 2.02541 2.64644 2.01338 2.64644C2.00135 2.64644 1.99333 2.65045 1.98129 2.65446L0.0481388 3.57291C0.0280853 3.58093 0.0120425 3.59697 0.00803182 3.62104C1.04313e-05 3.64109 1.04313e-05 3.66515 0.0120425 3.68521L5.3583 14.9592C5.36632 14.9793 5.38637 14.9953 5.40643 15.0034C5.42648 15.0114 5.45055 15.0114 5.4706 14.9994L7.40777 14.0809C7.41579 14.0769 7.42782 14.0689 7.43183 14.0609C7.43985 14.0528 7.44386 14.0448 7.44787 14.0328C7.45188 14.0207 7.45188 14.0127 7.45188 14.0007C7.45188 13.9887 7.44787 13.9806 7.44386 13.9686L4.58022 7.93654C3.41311 5.47397 3.6337 3.69323 5.41846 2.84697C6.79012 2.19724 7.85696 2.63441 8.81552 4.30285C8.81552 4.30285 8.81953 4.30686 8.81953 4.31087L12.2727 11.5863C13.6043 14.3937 15.6738 15.3563 17.8556 14.3215C19.5441 13.5194 20.246 12.3162 20.2019 10.728C20.2019 10.7079 20.2059 10.6919 20.2179 10.6758C20.23 10.6598 20.246 10.6518 20.2661 10.6478C20.2861 10.6437 20.3022 10.6437 20.3222 10.6518C20.3382 10.6598 20.3543 10.6718 20.3623 10.6919L21.1324 12.3122C21.1364 12.3202 21.1444 12.3322 21.1524 12.3363C21.1604 12.3443 21.1685 12.3483 21.1805 12.3523C21.1925 12.3563 21.2005 12.3563 21.2126 12.3563C21.2246 12.3563 21.2326 12.3523 21.2447 12.3483L23.1818 11.4298C23.1899 11.4258 23.2019 11.4178 23.2059 11.4098C23.2139 11.4018 23.2179 11.3937 23.2219 11.3817C23.2259 11.3697 23.2259 11.3617 23.2259 11.3496C23.2259 11.3376 23.2219 11.3296 23.2179 11.3175L17.8677 0.0475133C17.8596 0.0274599 17.8396 0.0114171 17.8195 0.00339577C17.7995 -0.00462561 17.7754 -0.000614919 17.7594 0.00740646Z" fill="#1E65F3"/>
</g>
<defs>
<clipPath id="clip0">
<rect width="23.2219" height="15" fill="white"/>
</clipPath>
</defs>
</svg>
