<svg width="15" height="15" viewBox="0 0 15 15" fill="none" xmlns="http://www.w3.org/2000/svg">
<g clip-path="url(#clip0)">
<path d="M10.8593 1.3191C10.4733 1.70508 10.1197 2.12341 9.80537 2.56948L9.70598 2.53713C9.13279 2.34991 8.5388 2.23435 7.94019 2.19506C7.75991 2.18119 7.08734 2.18119 6.86777 2.19506C6.20444 2.23898 5.69597 2.33836 5.11816 2.53944C5.09504 2.54868 5.07424 2.55562 5.05344 2.56255C4.72755 2.11879 4.36469 1.70277 3.96484 1.32141C5.88318 0.339129 8.1274 0.221255 10.1359 0.995524C10.3508 1.07642 10.5611 1.17118 10.7668 1.27287L10.8593 1.3191Z" fill="#F00500"/>
<path d="M14.4371 10.0858C14.1459 10.9155 13.7091 11.6852 13.1428 12.3555C12.8354 12.716 12.4957 13.0465 12.1305 13.347C11.2753 14.0357 10.2769 14.528 9.2114 14.7869C8.03266 15.0712 6.80308 15.0712 5.62434 14.7869C4.55654 14.528 3.5604 14.0357 2.70523 13.347C2.34006 13.0465 2.0003 12.716 1.69291 12.3555C0.0634761 10.4302 -0.431131 7.78611 0.398607 5.4032C0.555772 4.96175 0.752228 4.53648 0.987975 4.13201C1.0966 3.94711 1.23066 3.7391 1.29537 3.65358C1.51725 4.60813 1.78998 5.44712 1.89167 5.74989C1.88474 5.76607 1.87549 5.78456 1.86625 5.80074C1.32773 6.89165 1.03651 7.94327 0.967175 9.06192C0.967175 9.07579 0.964863 9.09196 0.964863 9.10583C0.946373 9.44096 0.955618 9.60044 1.01109 9.81076C1.18443 10.4695 1.71833 11.1952 2.555 11.9071C3.92557 13.0719 5.78382 13.9132 7.19137 14.0103C8.65901 14.1097 10.8246 13.2522 12.2669 11.9995C12.4934 11.7984 12.706 11.5858 12.9048 11.3593C13.0481 11.1929 13.2607 10.9063 13.2445 10.9063C13.2399 10.9063 13.2445 10.9017 13.2538 10.8971C13.2607 10.8924 13.2676 10.8855 13.263 10.8809C13.2607 10.8786 13.2653 10.8716 13.2723 10.8693C13.2792 10.867 13.2838 10.8624 13.2815 10.8578C13.2792 10.8531 13.2815 10.8485 13.2907 10.8462C13.2977 10.8439 13.3 10.837 13.2977 10.8323C13.2954 10.8277 13.2977 10.8231 13.3023 10.8231C13.3069 10.8231 13.3116 10.8162 13.3116 10.8115C13.3116 10.8069 13.3162 10.8 13.3208 10.8C13.3254 10.8 13.33 10.7954 13.33 10.7907C13.337 10.7722 13.3485 10.7538 13.3601 10.7376C13.3948 10.6844 13.5334 10.4371 13.5519 10.3955C13.6837 10.0974 13.7669 9.83157 13.8062 9.56577C13.8246 9.43865 13.8362 9.20522 13.827 9.14975C13.8246 9.1405 13.8246 9.12432 13.8223 9.0989C13.8177 9.05267 13.8154 8.98334 13.8108 8.914C13.8062 8.80999 13.7969 8.66438 13.79 8.59273C13.6906 7.54342 13.4225 6.68595 12.914 5.77763C12.8932 5.74296 12.8747 5.70829 12.8632 5.68055C12.8585 5.67362 12.8562 5.66669 12.8539 5.66206C12.9256 5.44712 13.2191 4.54804 13.4525 3.51953L13.4572 3.52415L13.4918 3.57038C13.5519 3.65127 13.7114 3.89164 13.783 4.00721C14.1089 4.53879 14.3632 5.10967 14.5434 5.70598C14.9618 7.14127 14.9271 8.67132 14.4371 10.0858Z" fill="#F00500"/>
<path d="M11.4371 7.32407C11.4302 7.36105 11.3215 7.47199 11.2129 7.55288C10.8939 7.78632 10.323 8.00357 9.74292 8.10757C9.4124 8.16767 9.08189 8.17691 8.9825 8.12838C8.91779 8.09602 8.90854 8.0706 8.93166 7.98739C8.98019 7.81405 9.13736 7.62453 9.38236 7.44657C9.50717 7.35643 10.0133 7.04904 10.2491 6.91961C10.6374 6.70698 10.9517 6.57986 11.1644 6.54982C11.2314 6.54057 11.3123 6.53826 11.3377 6.54982C11.3793 6.56599 11.4255 6.68849 11.444 6.83641C11.4533 6.91499 11.4486 7.26167 11.4371 7.32407Z" fill="black"/>
<path d="M5.99175 8.08857C5.97789 8.11631 5.90855 8.14635 5.82997 8.15791C5.75139 8.16947 5.51102 8.16253 5.37466 8.14635C4.88467 8.08164 4.36465 7.9314 3.98561 7.7465C3.77297 7.64249 3.62043 7.53848 3.50718 7.42523L3.44246 7.3582L3.43553 7.27037C3.42397 7.11783 3.42629 6.87746 3.44478 6.79194C3.45633 6.72029 3.48175 6.65095 3.51642 6.58854C3.53491 6.56543 3.53491 6.56543 3.61812 6.56543C3.71981 6.56543 3.80533 6.58161 3.944 6.62552C4.22828 6.71335 4.65124 6.92599 5.16665 7.2357C5.59191 7.48995 5.75139 7.61476 5.87388 7.78579C5.95709 7.89211 6.01256 8.04235 5.99175 8.08857Z" fill="black"/>
<path d="M9.26456 11.306C9.26456 11.3129 9.23683 11.4239 9.20216 11.5556C9.16749 11.6874 9.13975 11.7937 9.13975 11.7983C9.11433 11.8006 9.09122 11.8029 9.06579 11.8006H8.99183L8.89014 12.041C8.83467 12.1727 8.78382 12.2952 8.77689 12.3137L8.76302 12.3461L8.71448 12.2675L8.66595 12.1889V11.5487L8.64746 11.5533C8.60817 11.5626 8.32851 11.5995 8.20601 11.6111C7.69985 11.6619 7.19137 11.6504 6.68752 11.5787C6.60662 11.5672 6.53729 11.5579 6.53498 11.5602C6.53266 11.5626 6.53498 11.7105 6.5396 11.8931L6.54653 12.2213L6.50724 12.2814C6.48644 12.3137 6.46564 12.3414 6.46564 12.3438C6.4587 12.3507 6.43559 12.3137 6.38243 12.2074C6.32465 12.0965 6.28305 11.9786 6.253 11.8561L6.23682 11.7891L6.16518 11.7937L6.09353 11.8006L6.07504 11.7151C6.06579 11.6689 6.05424 11.5972 6.04961 11.5579L6.04268 11.484L5.98259 11.4308C5.94792 11.4008 5.91325 11.3707 5.90632 11.3661C5.89476 11.3569 5.89014 11.3407 5.89014 11.3268V11.2991L6.17904 11.3014L6.46795 11.3037L6.47719 11.3337L6.48644 11.3638L6.58582 11.3684C6.64129 11.3707 6.81695 11.3753 6.97411 11.38L7.26302 11.3869L7.33698 11.2713L7.41325 11.1558H7.51032L7.50801 10.9154L7.5057 10.675L7.37858 10.6196C6.96949 10.4393 6.72912 10.2336 6.63898 9.98397C6.62049 9.93312 6.62049 9.91463 6.61587 9.68351C6.61356 9.45469 6.61356 9.43389 6.62974 9.38305C6.66209 9.26748 6.75223 9.17734 6.8678 9.1473C6.90709 9.13574 7.01109 9.13574 7.55655 9.13574L8.19907 9.13805L8.27072 9.17272C8.35624 9.21433 8.39553 9.24437 8.44407 9.30909C8.49954 9.38305 8.51572 9.44083 8.51572 9.58181C8.51572 9.78289 8.50185 9.95624 8.48105 10.0256C8.451 10.1203 8.40478 10.2105 8.34699 10.2914C8.23143 10.4393 8.02111 10.5872 7.82927 10.6542L7.7738 10.675L7.77612 10.9177L7.77843 11.1604L7.82927 11.165L7.88012 11.1696L7.94946 11.2736L8.01649 11.3777H8.32619C8.49723 11.3777 8.64746 11.38 8.66132 11.3823C8.68444 11.3869 8.68906 11.3846 8.71217 11.3453L8.73991 11.3037H9.0057C9.20447 11.2944 9.26456 11.2991 9.26456 11.306Z" fill="black"/>
<path d="M8.04425 11.9689C8.00033 11.9943 7.97029 12.0059 7.96335 12.0013C7.95642 11.999 7.92406 11.9712 7.88939 11.9458L7.82699 11.895L7.76227 11.9643C7.62129 12.1168 7.61666 12.1238 7.57506 12.1261C7.51035 12.133 7.49648 12.1215 7.4179 12.0036C7.3763 11.9435 7.34394 11.8926 7.34394 11.8926C7.34394 11.8926 7.31389 11.888 7.27922 11.8857L7.21451 11.8788L7.18446 11.9412L7.15442 12.0036L7.10126 11.9874C7.05965 11.9735 7.01805 11.9574 6.97876 11.9389L6.90942 11.9042V11.7725L7.52422 11.7748L8.13901 11.7771L8.14132 11.8395C8.14363 11.9134 8.14594 11.9111 8.04425 11.9689Z" fill="black"/>
<path d="M13.8224 9.15006C13.8201 9.14081 13.8201 9.12463 13.8178 9.09921C13.2631 9.03912 11.6799 9.00214 10.2099 10.2155C10.2099 10.2155 9.73614 8.04297 7.51734 8.04297C5.29854 8.04297 4.47574 10.2155 4.47574 10.2155C3.23229 8.87733 1.56819 8.9744 0.967265 9.06223C0.967265 9.0761 0.964953 9.09228 0.964953 9.10614C0.946463 9.44127 0.955708 9.60075 1.01118 9.81107C1.18452 10.4698 1.71842 11.1955 2.55509 11.9074C3.92566 13.0722 5.78391 13.9135 7.19146 14.0106C8.6591 14.11 10.8247 13.2525 12.267 11.9998C12.4935 11.7987 12.7061 11.5861 12.9049 11.3596C13.0482 11.1932 13.2608 10.9066 13.2446 10.9066C13.24 10.9066 13.2446 10.902 13.2539 10.8974C13.2608 10.8927 13.2677 10.8858 13.2631 10.8812C13.2608 10.8789 13.2654 10.8719 13.2723 10.8696C13.2793 10.8673 13.2839 10.8627 13.2816 10.8581C13.2793 10.8534 13.2816 10.8488 13.2908 10.8465C13.2978 10.8442 13.3001 10.8373 13.2978 10.8326C13.2955 10.828 13.2978 10.8234 13.3024 10.8234C13.307 10.8234 13.3116 10.8165 13.3116 10.8118C13.3116 10.8072 13.3163 10.8003 13.3209 10.8003C13.3255 10.8003 13.3301 10.7957 13.3301 10.791C13.3371 10.7726 13.3486 10.7541 13.3602 10.7379C13.3948 10.6847 13.5335 10.4374 13.552 10.3958C13.6838 10.0977 13.767 9.83188 13.8062 9.56608C13.8201 9.43896 13.8317 9.20553 13.8224 9.15006ZM8.04431 11.9698C8.00039 11.9952 7.97035 12.0068 7.96341 12.0021C7.95648 11.9998 7.92412 11.9721 7.88945 11.9467L7.82705 11.8958L7.76233 11.9652C7.62135 12.1177 7.61672 12.1246 7.57512 12.1269C7.51041 12.1339 7.49654 12.1223 7.41796 12.0044C7.37636 11.9444 7.344 11.8935 7.344 11.8935C7.344 11.8935 7.31395 11.8889 7.27928 11.8866L7.21457 11.8796L7.18452 11.942L7.15448 12.0044L7.10132 11.9883C7.05971 11.9744 7.01811 11.9582 6.97882 11.9397L6.90948 11.9051V11.7733L7.52428 11.7756L8.13907 11.7779L8.14138 11.8403C8.14369 11.9143 8.146 11.912 8.04431 11.9698ZM9.19993 11.5538C9.16526 11.6855 9.13752 11.7918 9.13752 11.7964C9.1121 11.7987 9.08899 11.8011 9.06357 11.7987H8.98961L8.89022 12.0414C8.83475 12.1732 8.7839 12.2957 8.77697 12.3142L8.7631 12.3465L8.71457 12.2679L8.66603 12.1893V11.5491L8.64754 11.5538C8.60825 11.563 8.32859 11.6 8.20609 11.6115C7.69993 11.6624 7.19145 11.6508 6.6876 11.5792C6.60671 11.5676 6.53737 11.5584 6.53506 11.5607C6.53275 11.563 6.53506 11.7109 6.53968 11.8935L6.54662 12.2217L6.50733 12.2818C6.48653 12.3142 6.46572 12.3419 6.46572 12.3442C6.45879 12.3511 6.43568 12.3142 6.38252 12.2078C6.32474 12.0969 6.28314 11.979 6.25309 11.8565L6.23691 11.7895L6.16526 11.7941L6.09361 11.8011L6.07512 11.7155C6.06588 11.6693 6.05432 11.5977 6.0497 11.5584L6.04277 11.4844L5.98267 11.4313C5.948 11.4012 5.91334 11.3712 5.9064 11.3665C5.89485 11.3573 5.89022 11.3411 5.89022 11.3273V11.2995L6.17913 11.3018L6.46803 11.3041L6.47728 11.3342L6.48653 11.3642L6.58591 11.3689C6.64138 11.3712 6.81703 11.3758 6.9742 11.3804L7.2631 11.3873L7.33706 11.2718L7.41333 11.1562H7.51041L7.50809 10.9158L7.50578 10.6755L7.37867 10.62C6.96957 10.4397 6.72921 10.234 6.63907 9.98442C6.62058 9.93357 6.62058 9.91508 6.61595 9.68395C6.61364 9.45514 6.61364 9.43434 6.62982 9.38349C6.66218 9.26793 6.75232 9.17779 6.86788 9.14775C6.90717 9.13619 7.01118 9.13619 7.55663 9.13619L8.19916 9.1385L8.27081 9.17317C8.35632 9.21477 8.39561 9.24482 8.44415 9.30953C8.49962 9.38349 8.5158 9.44127 8.5158 9.58226C8.5158 9.78334 8.50193 9.95668 8.48113 10.026C8.45109 10.1208 8.40486 10.2109 8.34708 10.2918C8.23152 10.4397 8.02119 10.5877 7.82936 10.6547L7.77389 10.6755L7.7762 10.9182L7.77851 11.1608L7.82936 11.1655L7.88021 11.1701L7.94955 11.2741L8.01657 11.3781H8.32628C8.49731 11.3781 8.64754 11.3804 8.66141 11.3827C8.68452 11.3873 8.68915 11.385 8.71226 11.3457L8.73999 11.3041H9.00578C9.21149 11.3041 9.27158 11.3065 9.27158 11.3134C9.26464 11.3111 9.2346 11.4243 9.19993 11.5538Z" fill="white"/>
<path d="M13.8037 8.91437C13.7991 8.81037 13.7898 8.66476 13.7829 8.59311C13.6835 7.5438 13.4154 6.68633 12.9069 5.77801C12.8861 5.74334 12.8676 5.70867 12.8561 5.68094C12.8515 5.674 12.8491 5.66707 12.8468 5.66245C12.9185 5.4475 13.212 4.54842 13.4455 3.51992C13.7621 2.12392 13.9632 0.492184 13.3484 0.00219965C13.3484 0.00219965 12.2852 -0.0763828 10.8615 1.31961C10.4755 1.70559 10.1219 2.12393 9.80755 2.57L9.70817 2.53764C9.13498 2.35043 8.54098 2.23487 7.94237 2.19557C7.76209 2.18171 7.08952 2.18171 6.86995 2.19557C6.20662 2.23949 5.69815 2.33887 5.12034 2.53995C5.09723 2.54919 5.07642 2.55613 5.05562 2.56306C4.72974 2.1193 4.36687 1.70328 3.96702 1.32192C2.48551 -0.0810051 1.38305 -0.000111735 1.38305 -0.000111735C0.731278 0.506052 0.953158 2.21175 1.2906 3.65397C1.51248 4.60852 1.78521 5.4475 1.8869 5.75027C1.87997 5.76645 1.87072 5.78494 1.86148 5.80112C1.32296 6.89203 1.03174 7.94365 0.962402 9.06229C1.56564 8.97446 3.22743 8.87508 4.47319 10.2156C4.47319 10.2156 5.29599 8.04303 7.51479 8.04303C9.73359 8.04303 10.2074 10.2156 10.2074 10.2156C11.6773 9.0022 13.2606 9.04149 13.8153 9.09927C13.8129 9.05305 13.8083 8.98371 13.8037 8.91437ZM2.32373 4.87893C2.32373 4.87893 1.45932 2.71792 1.6812 1.48371C1.71818 1.2757 1.78752 1.09311 1.89615 0.954433C1.89615 0.954433 2.87611 1.05151 4.45701 2.80805C4.45701 2.80805 4.15655 2.95366 3.75439 3.26337C3.75439 3.26337 3.75208 3.26568 3.74977 3.26568C3.31294 3.60081 2.75362 4.1324 2.32373 4.87893ZM5.99168 8.08926C5.97781 8.11699 5.90847 8.14704 5.82989 8.15859C5.75131 8.17015 5.51094 8.16322 5.37458 8.14704C4.88459 8.08232 4.36456 7.93209 3.98552 7.74719C3.77288 7.64319 3.62034 7.53918 3.50709 7.42593L3.44237 7.3589L3.43544 7.27107C3.42388 7.11853 3.42619 6.87816 3.44468 6.79265C3.45624 6.721 3.48166 6.65166 3.51633 6.58926C3.53482 6.56614 3.53482 6.56614 3.61803 6.56614C3.71972 6.56614 3.80524 6.58232 3.94391 6.62624C4.2282 6.71406 4.65115 6.9267 5.16656 7.23641C5.59183 7.49064 5.75131 7.61545 5.8738 7.78648C5.95701 7.8928 6.01248 8.04303 5.99168 8.08926ZM11.437 7.32423C11.43 7.36121 11.3214 7.47215 11.2128 7.55305C10.8938 7.78648 10.323 8.00374 9.74283 8.10775C9.41233 8.16784 9.08182 8.17708 8.98243 8.12855C8.91772 8.09619 8.90847 8.07077 8.93159 7.98756C8.98012 7.81422 9.13729 7.6247 9.38228 7.44673C9.50709 7.35659 10.0133 7.0492 10.249 6.91977C10.6373 6.70713 10.9516 6.58001 11.1643 6.54997C11.2313 6.54072 11.3122 6.53841 11.3376 6.54997C11.3792 6.56614 11.4254 6.68864 11.4439 6.83656C11.4532 6.91514 11.4485 7.26183 11.437 7.32423ZM11.0533 3.26337L11.0487 3.26106C10.6604 2.95135 10.3692 2.80574 10.3692 2.80574C11.8969 1.04919 12.8422 0.952123 12.8422 0.952123C12.9462 1.09311 13.0132 1.27339 13.0502 1.4814C13.2652 2.71561 12.4308 4.87893 12.4308 4.87893C12.0818 4.25721 11.6126 3.70713 11.0533 3.26337Z" fill="#FFA409"/>
<path d="M13.0525 1.48142C12.8723 1.45831 12.0194 1.45369 11.0533 3.2634L11.0487 3.26109C10.6604 2.95138 10.3691 2.80577 10.3691 2.80577C11.8969 1.04922 12.8422 0.952148 12.8422 0.952148C12.9485 1.09313 13.0155 1.27341 13.0525 1.48142Z" fill="#FF9300"/>
<path d="M12.4333 4.87869C12.082 4.25465 11.6151 3.70689 11.0535 3.26313C12.0196 1.45342 12.8701 1.45804 13.0527 1.48115C13.2676 2.71767 12.4333 4.87869 12.4333 4.87869Z" fill="#FF8300"/>
<path d="M13.0874 1.48838C13.0758 1.48607 13.0643 1.48376 13.0527 1.48145L13.0874 1.48838Z" fill="#FF8300"/>
<path d="M4.45707 2.80577C4.45707 2.80577 4.15661 2.95138 3.75446 3.26109C3.75446 3.26109 3.75214 3.2634 3.74983 3.2634C2.74906 1.45138 1.86848 1.45831 1.67896 1.48142C1.71594 1.27341 1.78527 1.09082 1.8939 0.952148C1.89621 0.952148 2.87618 1.04922 4.45707 2.80577Z" fill="#FF9300"/>
<path d="M3.75207 3.26313C3.31293 3.60057 2.75361 4.12984 2.32372 4.87869C2.32372 4.87869 1.45932 2.71767 1.6812 1.48115C1.86841 1.45804 2.7513 1.45342 3.75207 3.26313Z" fill="#FF8300"/>
<path d="M1.68127 1.48145C1.66971 1.48376 1.65584 1.48607 1.64429 1.48838L1.68127 1.48145Z" fill="#FF8300"/>
<path d="M10.0943 6.0783C10.0943 6.0783 9.35476 6.12453 9.44721 5.54672C9.53965 4.96892 10.1175 4.89958 10.2792 4.92269C10.441 4.9458 11.0882 5.17693 10.9726 5.66228C10.857 6.14764 10.6952 6.05519 10.6028 6.0783C10.5104 6.10142 10.0943 6.0783 10.0943 6.0783Z" fill="white"/>
<path d="M4.63976 6.0783C4.63976 6.0783 3.90017 6.12453 3.99262 5.54672C4.08506 4.96892 4.66287 4.89958 4.82465 4.92269C4.98644 4.9458 5.63358 5.17693 5.51802 5.66228C5.40246 6.14764 5.24067 6.05519 5.14822 6.0783C5.05577 6.10142 4.63976 6.0783 4.63976 6.0783Z" fill="white"/>
</g>
<defs>
<clipPath id="clip0">
<rect width="14.8313" height="15" fill="white"/>
</clipPath>
</defs>
</svg>
