<svg width="14" height="15" viewBox="0 0 14 15" fill="none" xmlns="http://www.w3.org/2000/svg">
<path d="M5.10645 3.41171C4.94399 3.3885 4.93626 3.38077 5.01362 3.37303C5.1606 3.34982 5.50098 3.38077 5.74079 3.43492C6.29778 3.56643 6.80062 3.90681 7.3344 4.50248L7.47364 4.66493L7.67478 4.63399C8.53347 4.49474 9.41536 4.60305 10.1503 4.94343C10.3514 5.03626 10.6686 5.22192 10.7073 5.26834C10.7227 5.28381 10.7459 5.38438 10.7614 5.48494C10.8156 5.84853 10.7924 6.11929 10.6763 6.32816C10.6144 6.4442 10.6144 6.47515 10.6531 6.57571C10.6841 6.65307 10.7769 6.70722 10.862 6.70722C11.0476 6.70722 11.241 6.41326 11.3339 6.00325L11.3726 5.8408L11.4422 5.91816C11.8367 6.35911 12.1461 6.97025 12.1926 7.40346L12.208 7.5195L12.1384 7.41893C12.0224 7.241 11.9141 7.12496 11.7671 7.0244C11.5041 6.84647 11.2256 6.79232 10.4907 6.75364C9.82537 6.71496 9.44631 6.66081 9.07498 6.53703C8.44064 6.32816 8.11573 6.0574 7.36534 5.05947C7.0327 4.61852 6.82383 4.3787 6.61495 4.17757C6.15853 3.73662 5.70211 3.50454 5.10645 3.41171Z" fill="#FF007A"/>
<path d="M10.8698 4.39446C10.8852 4.10049 10.9239 3.90709 11.009 3.72917C11.04 3.65954 11.0709 3.59766 11.0786 3.59766C11.0864 3.59766 11.0709 3.65181 11.0477 3.7137C10.9858 3.88389 10.9781 4.1237 11.0167 4.39446C11.0709 4.74258 11.0941 4.78899 11.4654 5.16805C11.6356 5.34598 11.8368 5.57032 11.9141 5.66315L12.0456 5.83334L11.9141 5.70957C11.7517 5.55485 11.3803 5.26088 11.2952 5.2222C11.2411 5.19126 11.2334 5.19126 11.1947 5.22994C11.1637 5.26088 11.156 5.3073 11.156 5.53164C11.1483 5.87976 11.1018 6.09637 10.9858 6.32071C10.9239 6.43675 10.9162 6.41354 10.9703 6.28203C11.009 6.18146 11.0167 6.13505 11.0167 5.8024C11.0167 5.12937 10.9394 4.96692 10.4675 4.69616C10.3514 4.62654 10.1503 4.52597 10.0343 4.47182C9.9105 4.41767 9.81767 4.37125 9.8254 4.37125C9.84087 4.35578 10.2973 4.48729 10.4752 4.56465C10.746 4.67295 10.7924 4.68069 10.8233 4.67295C10.8466 4.64974 10.862 4.58786 10.8698 4.39446Z" fill="#FF007A"/>
<path d="M5.423 5.54638C5.09809 5.0977 4.88922 4.40147 4.93564 3.88316L4.95111 3.7207L5.02847 3.73618C5.16772 3.75938 5.40753 3.85221 5.52357 3.92184C5.83301 4.1075 5.97225 4.36279 6.10376 4.99713C6.14244 5.18279 6.19659 5.3994 6.2198 5.46902C6.25848 5.58506 6.40546 5.85582 6.52924 6.02601C6.61433 6.14979 6.56018 6.21167 6.36678 6.1962C6.07282 6.16526 5.67829 5.8945 5.423 5.54638Z" fill="#FF007A"/>
<path d="M10.4751 8.91183C8.94337 8.29295 8.40186 7.75918 8.40186 6.85407C8.40186 6.72256 8.40959 6.61426 8.40959 6.61426C8.41733 6.61426 8.47148 6.66067 8.5411 6.71483C8.85054 6.96237 9.19866 7.07068 10.1657 7.20992C10.7304 7.29502 11.0553 7.35691 11.3493 7.45747C12.2853 7.76691 12.8655 8.40126 13.0047 9.25995C13.0434 9.5075 13.0202 9.97939 12.9583 10.2269C12.9042 10.4203 12.7495 10.7762 12.7108 10.7839C12.703 10.7839 12.6876 10.7452 12.6876 10.6834C12.6721 10.3584 12.5096 10.049 12.2389 9.8092C11.914 9.5307 11.4962 9.32183 10.4751 8.91183Z" fill="#FF007A"/>
<path d="M9.39273 9.16653C9.37726 9.0505 9.33858 8.90351 9.31537 8.84163L9.27669 8.72559L9.34632 8.81068C9.44688 8.92672 9.52424 9.06597 9.59387 9.25937C9.64802 9.40635 9.64802 9.45276 9.64802 9.69258C9.64802 9.92466 9.64028 9.97881 9.59387 10.1103C9.51651 10.3192 9.42368 10.4662 9.26896 10.6286C8.99046 10.9149 8.62687 11.0696 8.10857 11.1392C8.01574 11.1469 7.75271 11.1701 7.52064 11.1856C6.94044 11.2166 6.55364 11.2784 6.20553 11.4022C6.15911 11.4177 6.1127 11.4332 6.10496 11.4254C6.08949 11.41 6.3293 11.2707 6.5227 11.1779C6.79346 11.0464 7.07195 10.9767 7.68309 10.8684C7.98479 10.822 8.29423 10.7601 8.37159 10.7292C9.13745 10.4894 9.51651 9.89371 9.39273 9.16653Z" fill="#FF007A"/>
<path d="M10.0972 10.4126C9.89609 9.97167 9.84968 9.55392 9.95798 9.15939C9.97345 9.12071 9.98893 9.08203 10.0044 9.08203C10.0199 9.08203 10.0663 9.10524 10.1127 9.13618C10.2055 9.19807 10.3989 9.30637 10.894 9.57713C11.5206 9.91751 11.8765 10.1805 12.124 10.4822C12.3406 10.7453 12.4721 11.047 12.534 11.4183C12.5727 11.6272 12.5495 12.13 12.4954 12.3389C12.3252 12.9964 11.9384 13.5225 11.3737 13.8242C11.2886 13.8706 11.2189 13.9015 11.2112 13.9015C11.2035 13.9015 11.2344 13.8242 11.2808 13.7313C11.4665 13.3368 11.4897 12.9577 11.3504 12.5323C11.2653 12.2692 11.0874 11.9521 10.7316 11.4183C10.3061 10.7994 10.2055 10.637 10.0972 10.4126Z" fill="#FF007A"/>
<path d="M4.33213 12.78C4.90459 12.3004 5.60856 11.96 6.25838 11.8517C6.53687 11.8053 7.00103 11.8208 7.25632 11.8904C7.66632 11.9987 8.03764 12.2308 8.23104 12.517C8.41671 12.7955 8.5018 13.0353 8.5869 13.5691C8.61784 13.778 8.65652 13.9946 8.66425 14.041C8.72614 14.3195 8.84992 14.5361 9.00464 14.6521C9.24445 14.8301 9.66219 14.8378 10.0722 14.6831C10.1418 14.6599 10.2037 14.6367 10.2037 14.6444C10.2192 14.6599 10.0103 14.7991 9.87106 14.8688C9.67766 14.9693 9.52294 15.0003 9.31407 15.0003C8.94275 15.0003 8.62558 14.8069 8.37029 14.4201C8.31614 14.3427 8.20783 14.1184 8.115 13.9095C7.84425 13.2829 7.705 13.0972 7.38783 12.8883C7.10933 12.7104 6.75348 12.6717 6.48272 12.8033C6.12687 12.9734 6.03404 13.4299 6.28159 13.7084C6.38215 13.8244 6.56782 13.9172 6.72254 13.9404C7.00877 13.9791 7.25632 13.7548 7.25632 13.4685C7.25632 13.2829 7.18669 13.1746 7.00103 13.0895C6.75348 12.9812 6.48272 13.105 6.49046 13.3448C6.49046 13.4453 6.53687 13.5072 6.63744 13.5536C6.69933 13.5846 6.69933 13.5846 6.65291 13.5768C6.42857 13.5304 6.37442 13.2519 6.55234 13.074C6.76895 12.8574 7.22537 12.9502 7.38009 13.2519C7.44198 13.3757 7.44971 13.6233 7.39556 13.778C7.26405 14.1184 6.89273 14.2963 6.51367 14.1957C6.25838 14.1261 6.15008 14.0565 5.84064 13.7393C5.29912 13.1823 5.09025 13.074 4.31666 12.958L4.16968 12.9348L4.33213 12.78Z" fill="#FF007A"/>
<path fill-rule="evenodd" clip-rule="evenodd" d="M0.263366 0.332645C2.06584 2.52191 4.84304 5.92572 4.98229 6.11139C5.09832 6.26611 5.05191 6.41309 4.85851 6.52139C4.75021 6.58328 4.52587 6.64517 4.41756 6.64517C4.29379 6.64517 4.1468 6.58328 4.04624 6.48271C3.97661 6.41309 3.67491 5.97214 2.99415 4.91232C2.47584 4.10004 2.03489 3.42702 2.02716 3.41928C1.99621 3.40381 1.99621 3.40381 2.94 5.09024C3.53567 6.15007 3.72906 6.52913 3.72906 6.57554C3.72906 6.67611 3.69812 6.73026 3.57435 6.86951C3.36548 7.10159 3.27264 7.36461 3.20302 7.91386C3.12566 8.525 2.91679 8.95821 2.32112 9.69312C1.97301 10.1263 1.91886 10.2037 1.83376 10.3816C1.72546 10.5982 1.69451 10.722 1.67904 11.0005C1.66357 11.2945 1.69451 11.4801 1.77961 11.7586C1.85697 12.0062 1.94206 12.1686 2.15093 12.4858C2.32886 12.7643 2.43716 12.9732 2.43716 13.0505C2.43716 13.1124 2.45263 13.1124 2.73113 13.0505C3.39642 12.8958 3.94567 12.6328 4.24737 12.3079C4.43303 12.1067 4.47945 11.9984 4.47945 11.7199C4.47945 11.542 4.47171 11.5033 4.4253 11.395C4.34794 11.2248 4.20096 11.0856 3.88378 10.869C3.46604 10.5828 3.28812 10.3507 3.2417 10.0412C3.20302 9.77822 3.24944 9.60029 3.48151 9.11293C3.72133 8.61009 3.78322 8.40122 3.8219 7.89065C3.8451 7.56574 3.88378 7.43423 3.97661 7.33366C4.07718 7.22536 4.16228 7.18668 4.40209 7.15574C4.79662 7.10159 5.05191 7.00102 5.25304 6.80762C5.43097 6.64517 5.50833 6.48271 5.51606 6.2429L5.5238 6.06497L5.42323 5.95667C5.05964 5.53893 0.0235519 0 0.000344098 0C-0.00739184 0 0.116383 0.146983 0.263366 0.332645ZM2.6383 11.3331C2.72339 11.1862 2.67698 11.0005 2.53773 10.9077C2.40622 10.8226 2.20509 10.8612 2.20509 10.9773C2.20509 11.0082 2.22056 11.0392 2.26697 11.0546C2.3366 11.0933 2.34433 11.132 2.29018 11.2171C2.23603 11.3022 2.23603 11.3796 2.30565 11.4337C2.41396 11.5188 2.56094 11.4724 2.6383 11.3331Z" fill="#FF007A"/>
<path fill-rule="evenodd" clip-rule="evenodd" d="M5.77285 7.26404C5.58709 7.31822 5.40907 7.51945 5.35489 7.72069C5.32393 7.84453 5.33941 8.06899 5.39359 8.13865C5.47873 8.24701 5.55613 8.27797 5.77285 8.27797C6.19854 8.27797 6.56232 8.09221 6.60102 7.86775C6.63972 7.68199 6.47718 7.42658 6.25272 7.31048C6.13662 7.24856 5.89668 7.22534 5.77285 7.26404ZM6.2682 7.65103C6.33012 7.55815 6.3069 7.45754 6.1908 7.38788C5.98182 7.2563 5.66449 7.36466 5.66449 7.56589C5.66449 7.66651 5.82703 7.77487 5.98182 7.77487C6.08244 7.77487 6.22176 7.71295 6.2682 7.65103Z" fill="#FF007A"/>
</svg>
