<svg width="15" height="15" viewBox="0 0 15 15" fill="none" xmlns="http://www.w3.org/2000/svg">
<path d="M7.5 15C11.6563 15 15 11.6563 15 7.5C15 3.34372 11.6563 0 7.5 0C3.34372 0 0 3.34372 0 7.5C0 11.6563 3.34372 15 7.5 15Z" fill="#2775CA"/>
<path d="M9.56241 8.68752C9.56241 7.59379 8.90617 7.21879 7.59369 7.06256C6.65621 6.93754 6.46871 6.68756 6.46871 6.25001C6.46871 5.81246 6.78123 5.53128 7.4062 5.53128C7.96869 5.53128 8.28121 5.71878 8.43743 6.18753C8.46871 6.28129 8.56245 6.34376 8.6562 6.34376H9.15615C9.28117 6.34376 9.37492 6.25001 9.37492 6.12506V6.09378C9.24989 5.40626 8.6874 4.87503 7.96869 4.81255V4.06255C7.96869 3.93753 7.87494 3.84378 7.71872 3.8125H7.24997C7.12495 3.8125 7.0312 3.90625 6.99993 4.06255V4.78128C6.06244 4.9063 5.46875 5.53128 5.46875 6.31256C5.46875 7.34381 6.09371 7.75002 7.4062 7.90632C8.28121 8.06254 8.56245 8.25004 8.56245 8.75007C8.56245 9.2501 8.12491 9.59382 7.53122 9.59382C6.71868 9.59382 6.43743 9.25002 6.34369 8.78127C6.31249 8.65632 6.21874 8.59377 6.12499 8.59377H5.5937C5.46875 8.59377 5.375 8.68752 5.375 8.81255V8.84382C5.49995 9.62502 5.99997 10.1875 7.0312 10.3438V11.0938C7.0312 11.2188 7.12495 11.3125 7.28117 11.3438H7.74992C7.87494 11.3438 7.96869 11.2501 7.99996 11.0938V10.3438C8.93745 10.1875 9.56241 9.53127 9.56241 8.68752Z" fill="white"/>
<path d="M5.90637 11.9687C3.46887 11.0938 2.21885 8.375 3.12515 5.9687C3.5939 4.6562 4.62515 3.65622 5.90637 3.18747C6.0314 3.125 6.09387 3.03125 6.09387 2.87495V2.43747C6.09387 2.31245 6.0314 2.2187 5.90637 2.1875C5.8751 2.1875 5.81262 2.1875 5.78135 2.2187C2.81262 3.1562 1.1876 6.3125 2.1251 9.28122C2.6876 11.0312 4.03137 12.375 5.78135 12.9375C5.90637 13 6.0314 12.9375 6.0626 12.8124C6.09387 12.7812 6.09387 12.75 6.09387 12.6875V12.2499C6.09387 12.1562 6.00012 12.0312 5.90637 11.9687ZM9.2189 2.2187C9.09387 2.15622 8.96885 2.2187 8.93765 2.34372C8.90637 2.375 8.90637 2.4062 8.90637 2.46875V2.90622C8.90637 3.03125 9.00012 3.1562 9.09387 3.21875C11.5314 4.0937 12.7814 6.81245 11.8751 9.21875C11.4063 10.5312 10.3751 11.5312 9.09387 12C8.96885 12.0625 8.90637 12.1562 8.90637 12.3125V12.75C8.90637 12.875 8.96885 12.9688 9.09387 12.9999C9.12515 12.9999 9.18762 13 9.2189 12.9688C12.1876 12.0312 13.8126 8.87495 12.8751 5.90622C12.3126 4.12497 10.9376 2.7812 9.2189 2.2187Z" fill="white"/>
</svg>
