<svg width="18" height="15" viewBox="0 0 18 15" fill="none" xmlns="http://www.w3.org/2000/svg">
<path d="M15.2266 1.96299L13.0919 3.05061L2.78355 8.30118C2.74869 8.03532 2.73115 7.76747 2.73105 7.49934C2.73246 6.42949 3.01334 5.37857 3.54587 4.45068C4.07841 3.52279 4.84412 2.75012 5.76716 2.20922C6.69019 1.66831 7.73853 1.37793 8.80832 1.36684C9.87811 1.35576 10.9322 1.62435 11.8663 2.14601L13.0882 1.52344L13.2704 1.43043C12.1511 0.618011 10.829 0.130888 9.4501 0.0229008C8.07125 -0.0850865 6.68938 0.190267 5.45723 0.818529C4.22508 1.44679 3.19062 2.4035 2.4682 3.58291C1.74577 4.76232 1.3635 6.11851 1.36365 7.50159C1.36365 7.69261 1.3709 7.88288 1.3854 8.0724C1.40571 8.34079 1.34619 8.60918 1.21432 8.84382C1.08245 9.07846 0.884136 9.26885 0.64432 9.39104L0 9.71958V11.252L1.89696 10.2851L2.51127 9.97161L3.11659 9.66332L13.9838 4.12622L15.2049 3.50441L17.7289 2.21802V0.686352L15.2266 1.96299Z" fill="black"/>
<path d="M17.7289 3.75098L3.7339 10.8767L2.51277 11.5001L0 12.7805V14.3114L2.49552 13.04L4.63025 11.9524L14.9491 6.69429C14.984 6.96191 15.0015 7.2315 15.0016 7.50138C15.001 8.57247 14.7202 9.62475 14.1871 10.5538C13.6541 11.4828 12.8873 12.2562 11.9629 12.7973C11.0385 13.3384 9.98873 13.6283 8.91769 13.6382C7.84665 13.6482 6.79163 13.3778 5.85738 12.854L5.78238 12.8937L4.45773 13.5688C5.5768 14.3812 6.89868 14.8685 8.27732 14.9767C9.65597 15.085 11.0377 14.81 12.2699 14.1822C13.502 13.5543 14.5366 12.5981 15.2593 11.4191C15.9821 10.2401 16.3648 8.88427 16.3653 7.50138C16.3653 7.30861 16.3578 7.11584 16.3435 6.92532C16.3232 6.65703 16.3827 6.38873 16.5144 6.15412C16.6461 5.91951 16.8442 5.72906 17.0838 5.60668L17.7289 5.27814V3.75098Z" fill="black"/>
</svg>
