<svg width="19" height="15" viewBox="0 0 19 15" fill="none" xmlns="http://www.w3.org/2000/svg">
<path d="M15.4613 0H18.0792L12.6311 5.39434C10.6581 7.34682 7.45931 7.34682 5.4849 5.39434L0.034668 0H2.65472L6.79387 4.09776C7.39694 4.69214 8.20968 5.02533 9.05643 5.02533C9.90317 5.02533 10.7159 4.69214 11.319 4.09776L15.4613 0Z" fill="#23292F"/>
<path d="M2.62067 15.0004H0.000976562L5.48447 9.57276C7.45746 7.62028 10.6563 7.62028 12.6307 9.57276L18.1142 15.0004H15.4963L11.3217 10.8693C10.7187 10.275 9.90592 9.94177 9.05917 9.94177C8.21243 9.94177 7.39968 10.275 6.79661 10.8693L2.62067 15.0004Z" fill="#23292F"/>
</svg>
