<svg width="12" height="15" viewBox="0 0 12 15" fill="none" xmlns="http://www.w3.org/2000/svg">
<path d="M7.11563 14.9999C6.04526 14.9999 5.264 14.7421 4.77185 14.2264C4.31593 13.79 4.05136 13.1908 4.03597 12.5598C4.03043 12.3681 4.07485 12.1783 4.16488 12.0089C4.24885 11.8626 4.37015 11.7412 4.51638 11.6572C4.68636 11.5724 4.87371 11.5283 5.06365 11.5283C5.2536 11.5283 5.44095 11.5724 5.61092 11.6572C5.7569 11.7409 5.87764 11.8624 5.96045 12.0089C6.05308 12.1774 6.09916 12.3676 6.09397 12.5598C6.10354 12.7893 6.03769 13.0157 5.9065 13.2043C5.79714 13.3583 5.64084 13.4726 5.46102 13.5303C5.63687 13.7542 5.88568 13.9093 6.16412 13.9686C6.47565 14.0591 6.79829 14.1056 7.12269 14.1069C7.55218 14.1106 7.97282 13.9848 8.32975 13.7459C8.70003 13.4843 8.97617 13.1104 9.11723 12.6796C9.29605 12.1668 9.38332 11.6265 9.37505 11.0835C9.38947 10.5174 9.29395 9.95387 9.09379 9.42412C8.94323 9.00043 8.65744 8.63804 8.28051 8.39287C7.93015 8.17116 7.52345 8.05484 7.10885 8.05775C6.74757 8.08836 6.39921 8.20662 6.09397 8.40229L5.34143 8.77959V8.40229L8.72345 3.86532H4.03597V8.57338C4.02273 8.91313 4.1126 9.24893 4.29379 9.53664C4.38145 9.66202 4.5 9.76263 4.63796 9.82873C4.77593 9.89484 4.92862 9.92419 5.08126 9.91395C5.36329 9.90824 5.63603 9.81213 5.85932 9.63975C6.11243 9.45426 6.33268 9.22768 6.51092 8.96942C6.52697 8.92413 6.55655 8.88488 6.59567 8.85699C6.62707 8.82985 6.66716 8.81488 6.70866 8.81481C6.7901 8.82224 6.86715 8.85501 6.929 8.9085C7.00733 8.99603 7.04997 9.10977 7.04849 9.22723C7.03944 9.30617 7.02535 9.38446 7.00631 9.4616C6.83979 9.86464 6.56067 10.2112 6.20235 10.4597C5.86956 10.6849 5.47649 10.8043 5.07467 10.8023C4.05979 10.8023 3.35672 10.6023 2.96544 10.2023C2.76433 9.98119 2.60933 9.72221 2.50952 9.4405C2.40972 9.15878 2.3671 8.85999 2.38418 8.56161V3.86532H0V2.99056H2.39529V0.996037L1.84689 0.447266V0H3.43823L4.03597 0.309414V2.99056L10.2281 2.97173L10.8445 3.59046L7.04765 7.40578C7.27703 7.31353 7.5186 7.2551 7.76478 7.23233C8.25204 7.25367 8.72744 7.38938 9.15254 7.62847C9.6448 7.86245 10.0597 8.23266 10.3479 8.69522C10.6062 9.08679 10.7891 9.52319 10.887 9.98193C10.9675 10.3438 11.0107 10.7129 11.0159 11.0836C11.0184 11.791 10.858 12.4895 10.5472 13.1249C10.2524 13.7403 9.7562 14.2364 9.14087 14.5312C8.51099 14.8416 7.81783 15.002 7.11563 14.9999Z" fill="#2C7DF7"/>
</svg>
