<svg width="32" height="32" viewBox="0 0 32 32" fill="none" xmlns="http://www.w3.org/2000/svg">
<path d="M16 32C24.8366 32 32 24.8366 32 16C32 7.16344 24.8366 0 16 0C7.16344 0 0 7.16344 0 16C0 24.8366 7.16344 32 16 32Z" fill="#F3BA2F"/>
<path d="M11.7281 14.2444L16.0005 9.97225L20.2751 14.2467L22.7611 11.7607L16.0005 5L9.24219 11.7585L11.7281 14.2444Z" fill="white"/>
<path d="M9.97175 15.9993L7.48584 13.5134L4.99981 15.9995L7.48572 18.4854L9.97175 15.9993Z" fill="white"/>
<path d="M11.7279 17.7553L16.0002 22.0274L20.2747 17.7532L22.762 20.2377L22.7608 20.2391L16.0002 26.9997L9.24176 20.2414L9.23828 20.2379L11.7279 17.7553Z" fill="white"/>
<path d="M24.5145 18.4868L27.0005 16.0007L24.5146 13.5148L22.0285 16.0009L24.5145 18.4868Z" fill="white"/>
<path d="M18.5215 15.9984H18.5225L15.9999 13.4758L14.1357 15.3401H14.1355L13.9214 15.5543L13.4795 15.9962L13.4761 15.9997L13.4795 16.0033L15.9999 18.5237L18.5225 16.0011L18.5237 15.9997L18.5215 15.9984Z" fill="white"/>
</svg>
