<svg width="32" height="32" viewBox="0 0 32 32" fill="none" xmlns="http://www.w3.org/2000/svg">
<path d="M16 32C24.8366 32 32 24.8366 32 16C32 7.16344 24.8366 0 16 0C7.16344 0 0 7.16344 0 16C0 24.8366 7.16344 32 16 32Z" fill="#85B5F8"/>
<path fill-rule="evenodd" clip-rule="evenodd" d="M18.1628 6.93111H18.1597C17.6963 6.36287 16.9906 6 16.2002 6C15.4097 6 14.7039 6.36299 14.2405 6.93139L9.68262 11.4534L16.067 14.7786L22.5844 11.4534L18.1628 6.93111ZM14.8694 26.0842L14.8693 16.9066L7.68693 13.3154C7.64181 13.3605 7.58169 13.4165 7.51094 13.4824C7.16457 13.805 6.56369 14.3647 6.22381 15.0445C5.69187 16.1086 6.22381 17.4386 6.62284 17.8377C6.71512 17.93 6.96191 18.1842 7.31963 18.5527L7.31965 18.5527C8.91825 20.1994 12.7319 24.1278 14.8694 26.0842ZM17.1306 26.0842L17.1307 16.9066L24.3131 13.3154C24.3582 13.3605 24.4183 13.4165 24.4891 13.4824C24.8354 13.805 25.4363 14.3647 25.7762 15.0445C26.3081 16.1086 25.7762 17.4386 25.3772 17.8377C25.2849 17.93 25.0381 18.1842 24.6803 18.5527C23.0817 20.1995 19.2681 24.1278 17.1306 26.0842Z" fill="white"/>
</svg>
