<svg width="32" height="32" viewBox="0 0 32 32" fill="none" xmlns="http://www.w3.org/2000/svg">
<path d="M16 32C24.8366 32 32 24.8366 32 16C32 7.16344 24.8366 0 16 0C7.16344 0 0 7.16344 0 16C0 24.8366 7.16344 32 16 32Z" fill="#0052FF"/>
<path d="M17.4751 21C18.2938 21 19.1126 20.8188 19.8376 20.5469L21.3813 22.9094C20.0188 23.6375 18.5626 24 17.0188 24C12.3845 24 8.92822 20.9094 8.92822 16C9.01885 11.0906 12.5657 8 17.1095 8C18.747 8 19.9282 8.3625 21.2001 9L19.747 11.4531C19.0188 11.1813 18.2032 11 17.3845 11C14.6563 11 12.4751 12.7281 12.4751 16C12.4751 19.0906 14.5657 21 17.4751 21Z" fill="white"/>
</svg>
