<svg width="32" height="32" viewBox="0 0 32 32" fill="none" xmlns="http://www.w3.org/2000/svg">
<path d="M16 32C24.8366 32 32 24.8366 32 16C32 7.16344 24.8366 0 16 0C7.16344 0 0 7.16344 0 16C0 24.8366 7.16344 32 16 32Z" fill="#7CC0FF"/>
<path d="M17.475 21C18.2938 21 19.1125 20.8188 19.8375 20.5469L21.3813 22.9094C20.0188 23.6375 18.5625 24 17.0188 24C12.3844 24 8.92816 20.9094 8.92816 16C9.01879 11.0906 12.5657 8 17.1094 8C18.7469 8 19.9282 8.3625 21.2 9L19.7469 11.4531C19.0188 11.1813 18.2032 11 17.3844 11C14.6563 11 12.475 12.7281 12.475 16C12.475 19.0906 14.5657 21 17.475 21Z" fill="white"/>
</svg>
