<svg width="32" height="32" viewBox="0 0 32 32" fill="none" xmlns="http://www.w3.org/2000/svg">
<path d="M16 32C24.8366 32 32 24.8366 32 16C32 7.16344 24.8366 0 16 0C7.16344 0 0 7.16344 0 16C0 24.8366 7.16344 32 16 32Z" fill="#03316C"/>
<path d="M16 6L7 11.2105V21.6316L16 26.8421L25 21.6316V11.2105L16 6ZM16 6L7 11.2105V21.6316L16 26.8421L25 21.6316V11.2105L16 6Z" fill="#03316C"/>
<path d="M19.5531 22.7714H18.2725L16.7395 21.3602V20.6365L18.3267 19.1168V16.7105L20.4008 15.3536L22.7635 17.1447L19.5531 22.7714ZM14.2505 18.972L14.485 16.7105L13.7094 14.6842H18.2906L17.5331 16.7105L17.7495 18.972H15.982H14.2505ZM15.2966 21.3602L13.7635 22.7895H12.4649L9.23647 17.1447L11.6172 15.3717L13.7094 16.7105V19.1168L15.2966 20.6365V21.3602ZM12.4469 10.5049H19.5351L20.3828 14.1234H11.6172L12.4469 10.5049ZM16 6L7 11.2105V21.6316L16 26.8421L25 21.6316V11.2105L16 6Z" fill="white"/>
</svg>
