<svg width="32" height="32" viewBox="0 0 32 32" fill="none" xmlns="http://www.w3.org/2000/svg">
<path d="M16 32C24.8366 32 32 24.8366 32 16C32 7.16344 24.8366 0 16 0C7.16344 0 0 7.16344 0 16C0 24.8366 7.16344 32 16 32Z" fill="#5C9F04"/>
<path d="M11.0266 7.00038C10.8513 6.99136 10.7354 7.14591 10.7354 7.14591C10.7354 7.14591 8.84496 9.42172 7.732 10.7933C6.61893 12.1648 6.21694 13.1197 6.21694 13.1197C5.43424 15.0944 7.02116 16.387 7.02116 16.387C8.67276 17.7513 10.4679 17.7441 10.4679 17.7441C10.4392 16.4947 10.4894 15.7551 10.4894 15.7551C10.6115 14.4267 12.0259 13.1126 12.0259 13.1126C11.5446 13.1498 10.5832 13.1477 10.0528 12.668C9.52249 12.1883 9.85784 11.0496 9.85784 11.0496L11.2306 7.41109C11.2306 7.41109 11.4023 7.16144 11.1566 7.03666C11.1105 7.01325 11.067 7.00248 11.0266 7.00038ZM20.9634 7.00038C20.923 7.00137 20.8793 7.01326 20.833 7.03666C20.5869 7.16144 20.7588 7.41109 20.7588 7.41109L22.1343 11.0496C22.1343 11.0496 22.4704 12.1883 21.9389 12.668C21.4076 13.1477 20.4442 13.1498 19.9618 13.1126C19.9618 13.1126 21.3793 14.4267 21.5016 15.7551C21.5016 15.7551 21.5519 16.4947 21.5231 17.7441C21.5231 17.7441 23.3219 17.7513 24.9768 16.387C24.9768 16.387 26.5669 15.0944 25.7826 13.1197C25.7826 13.1197 25.3798 12.1648 24.2646 10.7933C23.1493 9.42172 21.2552 7.14591 21.2552 7.14591C21.2552 7.14591 21.139 6.99138 20.9634 7.00038ZM15.8918 12.8597C15.8918 12.8597 12.0294 12.8451 11.5339 16.2556V20.7301C11.5339 20.7301 11.5922 23.9073 16.0812 24.1405C16.0812 24.1405 18.4422 24.3883 20.1475 22.1292L18.2237 20.8612C18.2237 20.8612 17.3055 22.0417 16.125 21.9689C14.9445 21.896 13.8222 21.4587 13.8222 20.2491V19.258H19.8705C19.8705 19.258 20.2932 19.3454 20.2932 18.5876V16.3576C20.2932 16.3576 20.3516 13.0054 15.8918 12.8597ZM16.1514 15.0738C17.1734 15.0827 18.0492 15.7301 18.0633 16.4596V17.3779H13.8222V16.2993C13.8222 16.2993 14.3185 15.1305 16.0521 15.0751C16.0853 15.0746 16.1185 15.0744 16.1514 15.0745V15.0738Z" fill="white"/>
</svg>
