<svg width="32" height="32" viewBox="0 0 32 32" fill="none" xmlns="http://www.w3.org/2000/svg">
<path d="M16 32C24.8366 32 32 24.8366 32 16C32 7.16344 24.8366 0 16 0C7.16344 0 0 7.16344 0 16C0 24.8366 7.16344 32 16 32Z" fill="#DE5959"/>
<path d="M13.8358 15.8432L13.6626 15.6689C13.5315 15.5379 13.3062 15.6307 13.3062 15.8164V18.3065C13.3062 18.4215 13.4005 18.515 13.5158 18.515H16.0065C16.1922 18.515 16.2857 18.2901 16.1537 18.1593C16.0722 18.0779 16.0722 17.946 16.1537 17.8648L18.8028 15.2075C18.8844 15.1266 18.8844 14.9947 18.8028 14.913L18.5614 14.6725C18.4303 14.5415 18.5238 14.3165 18.7089 14.3165H21.1981C21.3132 14.3165 21.4074 14.41 21.4074 14.5251V17.015C21.4074 17.2007 21.1817 17.2937 21.0503 17.1625L20.8825 16.9948C20.8005 16.911 20.6687 16.911 20.5885 16.9948L16.1221 21.459C16.041 21.5403 15.9094 21.5403 15.8272 21.459L10.3629 15.9947C10.2808 15.9125 10.2808 15.7805 10.3629 15.6989L17.9274 8.13472C18.0086 8.05329 18.0086 7.92043 17.9274 7.83936L16.1487 6.0608C16.0672 5.97973 15.9354 5.97973 15.8536 6.0608L6.0608 15.8539C5.97973 15.9354 5.97973 16.0682 6.0608 16.1493L15.8526 25.941C15.934 26.0219 16.0669 26.0219 16.148 25.941L25.9393 16.1493C26.0202 16.0679 26.0202 15.9357 25.9393 15.8546L20.1787 10.0939C20.0981 10.0128 19.9656 10.0128 19.884 10.0939L14.1322 15.8433C14.0501 15.9254 13.918 15.9254 13.8358 15.8433V15.8432Z" fill="white"/>
</svg>
