<svg width="32" height="32" viewBox="0 0 32 32" fill="none" xmlns="http://www.w3.org/2000/svg">
<path d="M16 32C24.8366 32 32 24.8366 32 16C32 7.16344 24.8366 0 16 0C7.16344 0 0 7.16344 0 16C0 24.8366 7.16344 32 16 32Z" fill="#7668FF"/>
<path d="M15.4974 9.01686C16.8822 8.92444 18.2931 9.21325 19.5402 9.85248C21.3754 10.7844 22.8384 12.471 23.5308 14.4618C23.8361 15.3398 23.9999 16.2717 23.9999 17.2036V20.6693C23.9999 20.8118 24.0036 20.9543 23.9701 21.0929C23.8956 21.4433 23.6537 21.7514 23.3372 21.8977C23.1176 22.0055 22.8645 22.0171 22.6262 21.9786C22.1162 21.8823 21.7179 21.3855 21.7142 20.8503C21.7105 19.7759 21.7142 18.7015 21.7142 17.6233C21.7216 17.3191 21.7253 16.9918 21.5653 16.7223C21.3047 16.2255 20.6793 15.9906 20.173 16.2024C19.7449 16.3603 19.4359 16.807 19.4322 17.2768C19.4285 18.3704 19.4322 19.4602 19.4322 20.5499C19.4322 20.754 19.4434 20.962 19.3838 21.1583C19.2759 21.5434 18.9669 21.8553 18.5946 21.9593C18.1069 22.0979 17.5448 21.8746 17.2991 21.4086C17.1316 21.1275 17.1428 20.7887 17.1465 20.4729C17.1428 19.3908 17.1502 18.3049 17.1428 17.2229C17.1316 16.6722 16.6961 16.1754 16.1675 16.1061C15.825 16.0522 15.4639 16.1716 15.2145 16.4219C14.9911 16.6414 14.8608 16.9571 14.8608 17.2768V20.4344C14.8571 20.7001 14.8869 20.9735 14.7901 21.2238C14.6375 21.6743 14.1982 22.0055 13.7329 21.994C13.2564 22.0209 12.7948 21.682 12.6421 21.22C12.5565 20.9928 12.5751 20.7463 12.5751 20.5076C12.5751 19.4178 12.5788 18.328 12.5751 17.2383C12.5714 16.6991 12.1656 16.2062 11.6556 16.11C11.1903 16.006 10.6766 16.2486 10.4458 16.6799C10.3453 16.8609 10.2931 17.0688 10.2931 17.2729V20.8118C10.2969 21.1545 10.1442 21.4972 9.88738 21.7167C9.50022 22.0671 8.87482 22.0864 8.46905 21.7629C8.17496 21.555 8 21.1968 8 20.8272V17.2421C8.00372 15.8866 8.33504 14.535 8.96044 13.3413C9.47044 12.367 10.174 11.5006 11.0153 10.8075C12.281 9.75236 13.8706 9.11698 15.4974 9.01686Z" fill="#FDFCFF"/>
</svg>
