<svg width="32" height="32" viewBox="0 0 32 32" fill="none" xmlns="http://www.w3.org/2000/svg">
<path d="M16 32C24.8366 32 32 24.8366 32 16C32 7.16344 24.8366 0 16 0C7.16344 0 0 7.16344 0 16C0 24.8366 7.16344 32 16 32Z" fill="#0499E8"/>
<path fill-rule="evenodd" clip-rule="evenodd" d="M12.6903 15.8392L18.5292 21.6672L22.2147 17.9891C22.8737 17.3969 23.8819 17.4233 24.509 18.0491C25.1361 18.6749 25.1625 19.6811 24.5691 20.3388L19.7055 25.1935C19.0522 25.8347 18.0044 25.8347 17.3511 25.1935L10.3342 18.1888V22.3522C10.3342 23.2711 9.58778 24.016 8.66708 24.016C7.74638 24.016 7 23.2711 7 22.3522V9.32073C7 8.40187 7.74638 7.65699 8.66708 7.65699C9.58778 7.65699 10.3342 8.40187 10.3342 9.32073V13.4841L17.3502 6.48126C18.0033 5.83958 19.0515 5.83958 19.7046 6.48126L24.5718 11.3351C25.1652 11.9928 25.1388 12.999 24.5117 13.6248C23.8847 14.2506 22.8764 14.2769 22.2174 13.6848L18.5319 10.0066L12.6903 15.8392ZM18.5319 14.1737C17.8568 14.1733 17.248 14.5789 16.9894 15.2012C16.7308 15.8235 16.8734 16.5401 17.3506 17.0166C17.8278 17.4931 18.5457 17.6358 19.1695 17.378C19.7932 17.1203 20.1999 16.5129 20.1999 15.8392C20.2001 15.3975 20.0245 14.9737 19.7117 14.6612C19.3989 14.3487 18.9745 14.173 18.5319 14.1728V14.1737Z" fill="white"/>
</svg>
