<svg width="32" height="32" viewBox="0 0 32 32" fill="none" xmlns="http://www.w3.org/2000/svg">
<path d="M16 32C24.8366 32 32 24.8366 32 16C32 7.16344 24.8366 0 16 0C7.16344 0 0 7.16344 0 16C0 24.8366 7.16344 32 16 32Z" fill="#0088F4"/>
<path d="M16 26C21.5228 26 26 21.5228 26 16C26 10.4772 21.5228 6 16 6C10.4772 6 6 10.4772 6 16C6 21.5228 10.4772 26 16 26Z" fill="#FDFCFF"/>
<path d="M16.0002 8.36841C14.4908 8.36841 13.0154 8.81599 11.7604 9.65456C10.5053 10.4931 9.52719 11.685 8.94957 13.0795C8.37196 14.474 8.22083 16.0085 8.51529 17.4888C8.80976 18.9692 9.5366 20.329 10.6039 21.3963C11.6712 22.4636 13.031 23.1905 14.5114 23.4849C15.9918 23.7794 17.5262 23.6283 18.9207 23.0506C20.3152 22.473 21.5071 21.4949 22.3457 20.2399C23.1842 18.9849 23.6318 17.5094 23.6318 16C23.6318 13.976 22.8278 12.0348 21.3966 10.6036C19.9654 9.17245 18.0243 8.36841 16.0002 8.36841ZM16.0002 21.5263C14.9072 21.5263 13.8388 21.2022 12.93 20.595C12.0212 19.9877 11.3129 19.1246 10.8946 18.1148C10.4763 17.105 10.3669 15.9939 10.5801 14.9219C10.7933 13.8499 11.3197 12.8652 12.0925 12.0923C12.8654 11.3194 13.8501 10.7931 14.9221 10.5799C15.9941 10.3666 17.1053 10.4761 18.1151 10.8943C19.1249 11.3126 19.988 12.0209 20.5952 12.9297C21.2024 13.8385 21.5265 14.907 21.5265 16C21.5265 17.4657 20.9443 18.8713 19.9079 19.9077C18.8715 20.9441 17.4659 21.5263 16.0002 21.5263Z" fill="#0088F4"/>
</svg>
