<svg width="32" height="32" viewBox="0 0 32 32" fill="none" xmlns="http://www.w3.org/2000/svg">
<path d="M16 32C24.8366 32 32 24.8366 32 16C32 7.16344 24.8366 0 16 0C7.16344 0 0 7.16344 0 16C0 24.8366 7.16344 32 16 32Z" fill="#0A99EB"/>
<path fill-rule="evenodd" clip-rule="evenodd" d="M22.7865 24.1626C23.4885 23.7815 23.8274 22.8345 23.4909 22.0856C23.4069 21.8985 23.3166 21.6985 23.2225 21.4898C22.6201 20.1544 21.8569 18.4627 21.5375 17.5355C22.144 17.0378 22.6198 16.515 22.9908 15.939C23.3205 15.4295 23.5621 14.868 23.7053 14.2783C23.8866 13.4694 23.9182 12.6341 23.7984 11.8138C23.7311 11.3568 23.6176 10.7589 23.339 10.1907C23.0205 9.54585 22.5971 8.95654 22.0634 8.48933C21.2847 7.80768 20.2876 7.41872 19.3008 7.21524C18.3319 7.01568 17.3427 6.99924 16.3597 7.00002C15.7852 7.00069 15.2109 7.02209 14.638 7.0642C14.1681 7.10201 13.6989 7.14898 13.2309 7.20507C12.773 7.25829 12.3129 7.31698 11.8723 7.46411C11.4708 7.59794 11.0912 7.90472 10.8838 8.29368C10.7563 8.53472 10.7124 8.8102 10.7093 9.08254C10.7081 9.22501 10.714 9.36729 10.7199 9.50957C10.726 9.65568 10.732 9.80179 10.7304 9.94811C10.7273 10.2533 10.7109 10.5593 10.6866 10.8638C10.6395 11.4415 10.5615 12.0156 10.4837 12.5896C10.4801 12.6159 10.4765 12.6422 10.473 12.6685L10.4698 12.6896C10.1716 14.8535 9.52443 19.1719 9.05096 21.5471L9.04469 21.5784C8.9273 22.228 9.01574 23.1922 9.61835 23.9513C9.99635 24.4287 10.7116 24.9977 11.9662 24.9984C13.3663 25 14.0369 24.7832 14.5934 24.6032C15.4738 24.3199 15.9763 23.7173 16.1156 23.4176C16.654 24.2863 17.9038 25 19.1505 25C19.9301 24.9814 20.7055 24.8806 21.4639 24.6995C21.9233 24.5852 22.3835 24.3817 22.7865 24.1626ZM12.4608 10.3887C12.478 9.98959 12.4749 9.58889 12.4514 9.19133C12.4467 9.10356 13.424 9.0053 13.7758 8.96993C13.8318 8.9643 13.872 8.96026 13.8898 8.95811C15.0484 8.81729 16.2172 8.77905 17.3826 8.84385C18.4571 8.90254 19.559 9.00976 20.5154 9.57167C21.082 9.90506 21.4975 10.4263 21.791 11.0234C21.9491 11.3427 22.0266 11.7364 22.0782 12.0901C22.1322 12.4579 22.144 12.8336 22.1127 13.2045C22.0955 13.4151 22.0681 13.6303 22.0188 13.8361C21.9249 14.2258 21.7613 14.5929 21.5469 14.9263C21.2487 15.3904 20.8589 15.7856 20.4387 16.1284C20.1311 16.378 19.8048 16.6011 19.4682 16.8061C20.1632 19.1484 21.4389 22.3384 21.8849 22.5872C21.7315 22.7711 20.6656 23.1022 19.217 23.182C18.0862 23.2446 17.6792 21.951 17.6792 21.951L16.2987 17.7757H14.98C14.9473 17.9963 14.915 18.212 14.8835 18.4221C14.5563 20.6049 14.3183 22.1928 14.656 22.5669C14.656 22.5669 14.3609 22.9793 12.5054 23.1687C11.9959 23.2211 11.265 23.1577 10.9801 22.6365C10.7104 22.1447 10.834 21.5107 10.9419 20.9573C10.962 20.8537 10.9817 20.753 10.9981 20.6565L11.0051 20.6157C11.2273 19.3169 11.4494 18.0196 11.6476 16.7153C11.8378 15.4616 12.0194 14.2055 12.1916 12.9478L12.2096 12.8164C12.2643 12.4141 12.3183 12.0118 12.363 11.608C12.4083 11.2026 12.4436 10.7965 12.4608 10.3887ZM15.871 11.7256C15.9134 11.4242 15.9561 11.1208 16.0007 10.8074C17.3037 10.7143 18.8979 10.9303 18.5402 13.2624C18.1511 15.7876 16.5198 15.7587 15.5679 15.7419C15.4631 15.74 15.3665 15.7383 15.2807 15.7402C15.5366 14.0998 15.7015 12.9289 15.871 11.7256Z" fill="white"/>
</svg>
